<svg width="80" height="60" viewBox="0 0 80 60" fill="none" xmlns="http://www.w3.org/2000/svg">
<mask id="path-1-inside-1_2603_12172" fill="white">
<path d="M0 8C0 3.58172 3.58172 0 8 0H72C76.4183 0 80 3.58172 80 8V60H0V8Z"/>
</mask>
<path d="M0 8C0 3.58172 3.58172 0 8 0H72C76.4183 0 80 3.58172 80 8V60H0V8Z" fill="url(#paint0_linear_2603_12172)" fill-opacity="0.3"/>
<path d="M0 0H80H0ZM80 61H0V59H80V61ZM0 60V0V60ZM80 0V60V0Z" fill="url(#paint1_linear_2603_12172)" mask="url(#path-1-inside-1_2603_12172)"/>
<path d="M26.667 30C26.667 29.558 26.8426 29.134 27.1551 28.8215C27.4677 28.5089 27.8916 28.3333 28.3337 28.3333H51.667C52.109 28.3333 52.5329 28.5089 52.8455 28.8215C53.1581 29.134 53.3337 29.558 53.3337 30C53.3337 30.442 53.1581 30.8659 52.8455 31.1785C52.5329 31.4911 52.109 31.6667 51.667 31.6667H28.3337C27.8916 31.6667 27.4677 31.4911 27.1551 31.1785C26.8426 30.8659 26.667 30.442 26.667 30ZM26.667 21.6667C26.667 21.2246 26.8426 20.8007 27.1551 20.4882C27.4677 20.1756 27.8916 20 28.3337 20H51.667C52.109 20 52.5329 20.1756 52.8455 20.4882C53.1581 20.8007 53.3337 21.2246 53.3337 21.6667C53.3337 22.1087 53.1581 22.5326 52.8455 22.8452C52.5329 23.1577 52.109 23.3333 51.667 23.3333H28.3337C27.8916 23.3333 27.4677 23.1577 27.1551 22.8452C26.8426 22.5326 26.667 22.1087 26.667 21.6667ZM26.667 38.3333C26.667 37.8913 26.8426 37.4674 27.1551 37.1548C27.4677 36.8423 27.8916 36.6667 28.3337 36.6667H51.667C52.109 36.6667 52.5329 36.8423 52.8455 37.1548C53.1581 37.4674 53.3337 37.8913 53.3337 38.3333C53.3337 38.7754 53.1581 39.1993 52.8455 39.5118C52.5329 39.8244 52.109 40 51.667 40H28.3337C27.8916 40 27.4677 39.8244 27.1551 39.5118C26.8426 39.1993 26.667 38.7754 26.667 38.3333Z" fill="white" fill-opacity="0.7"/>
<defs>
<linearGradient id="paint0_linear_2603_12172" x1="18.8182" y1="38.6905" x2="83.6009" y2="24.1099" gradientUnits="userSpaceOnUse">
<stop stop-color="#53546C"/>
<stop offset="1"/>
</linearGradient>
<linearGradient id="paint1_linear_2603_12172" x1="80" y1="-1.10061e-05" x2="2.15054" y2="-8.18655e-06" gradientUnits="userSpaceOnUse">
<stop stop-color="#7A16E6" stop-opacity="0"/>
<stop offset="0.435" stop-color="#7A16E6"/>
<stop offset="1" stop-color="#7A16E6" stop-opacity="0"/>
</linearGradient>
</defs>
</svg>
