<svg width="24" height="25" viewBox="0 0 24 25" fill="none" xmlns="http://www.w3.org/2000/svg">
<path d="M12.8967 3.55743C12.7282 3.2161 12.3806 3 12 3C11.6193 3 11.2717 3.2161 11.1032 3.55743L8.57408 8.68205L2.91873 9.50382C2.54204 9.55855 2.2291 9.82239 2.11147 10.1844C1.99385 10.5464 2.09194 10.9438 2.36452 11.2095L6.45676 15.1985L5.49071 20.831C5.42637 21.2061 5.58059 21.5853 5.88854 21.809C6.19648 22.0328 6.60475 22.0623 6.94166 21.8851L12 19.2258L17.0583 21.8851C17.3952 22.0623 17.8034 22.0328 18.1114 21.809C18.4193 21.5853 18.5735 21.2061 18.5092 20.831L17.5432 15.1985L21.6354 11.2095C21.908 10.9438 22.0061 10.5464 21.8884 10.1844C21.7708 9.82239 21.4579 9.55855 21.0812 9.50382L15.4258 8.68205L12.8967 3.55743Z" fill="black"/>
</svg>
