<svg width="18" height="14" viewBox="0 0 18 14" fill="none" xmlns="http://www.w3.org/2000/svg">
<path d="M15.0588 1.7529C13.9504 1.23624 12.7504 0.861236 11.5004 0.64457C11.4895 0.644219 11.4786 0.646276 11.4685 0.650595C11.4584 0.654915 11.4494 0.661392 11.4421 0.66957C11.2921 0.94457 11.1171 1.3029 11.0004 1.5779C9.67459 1.3779 8.32626 1.3779 7.00042 1.5779C6.88376 1.29457 6.70876 0.94457 6.55042 0.66957C6.54209 0.652903 6.51709 0.64457 6.49209 0.64457C5.24209 0.861236 4.05042 1.23624 2.93376 1.7529C2.92542 1.7529 2.91709 1.76124 2.90876 1.76957C0.64209 5.16124 0.0170899 8.46124 0.325423 11.7279C0.325423 11.7446 0.333757 11.7612 0.350423 11.7696C1.85042 12.8696 3.29209 13.5362 4.71709 13.9779C4.74209 13.9862 4.76709 13.9779 4.77542 13.9612C5.10876 13.5029 5.40876 13.0196 5.66709 12.5112C5.68376 12.4779 5.66709 12.4446 5.63376 12.4362C5.15876 12.2529 4.70876 12.0362 4.26709 11.7862C4.23376 11.7696 4.23376 11.7196 4.25876 11.6946C4.35042 11.6279 4.44209 11.5529 4.53376 11.4862C4.55042 11.4696 4.57542 11.4696 4.59209 11.4779C7.45876 12.7862 10.5504 12.7862 13.3838 11.4779C13.4004 11.4696 13.4254 11.4696 13.4421 11.4862C13.5338 11.5612 13.6254 11.6279 13.7171 11.7029C13.7504 11.7279 13.7504 11.7779 13.7088 11.7946C13.2754 12.0529 12.8171 12.2612 12.3421 12.4446C12.3088 12.4529 12.3004 12.4946 12.3088 12.5196C12.5754 13.0279 12.8754 13.5112 13.2004 13.9696C13.2254 13.9779 13.2504 13.9862 13.2754 13.9779C14.7088 13.5362 16.1504 12.8696 17.6504 11.7696C17.6671 11.7612 17.6754 11.7446 17.6754 11.7279C18.0421 7.9529 17.0671 4.6779 15.0921 1.76957C15.0838 1.76124 15.0754 1.7529 15.0588 1.7529ZM6.10042 9.73624C5.24209 9.73624 4.52542 8.94457 4.52542 7.96957C4.52542 6.99457 5.22542 6.2029 6.10042 6.2029C6.98376 6.2029 7.68376 7.0029 7.67542 7.96957C7.67542 8.94457 6.97542 9.73624 6.10042 9.73624ZM11.9088 9.73624C11.0504 9.73624 10.3338 8.94457 10.3338 7.96957C10.3338 6.99457 11.0338 6.2029 11.9088 6.2029C12.7921 6.2029 13.4921 7.0029 13.4838 7.96957C13.4838 8.94457 12.7921 9.73624 11.9088 9.73624Z" fill="#070707"/>
</svg>
