<svg width="28" height="28" viewBox="0 0 28 28" fill="none" xmlns="http://www.w3.org/2000/svg">
<path d="M26.8084 12.3851L16.8924 16.8917L12.3857 26.8077C12.277 27.0471 12.1 27.2489 11.8769 27.3879C11.6539 27.5269 11.3947 27.5969 11.132 27.5891C10.8692 27.5813 10.6147 27.496 10.4003 27.3439C10.1859 27.1918 10.0213 26.9798 9.92703 26.7344L0.500364 2.22108C0.41261 1.9807 0.395375 1.72025 0.450688 1.47041C0.506 1.22057 0.631557 0.991733 0.812571 0.810859C0.993585 0.629986 1.22252 0.504606 1.4724 0.449487C1.72229 0.394368 1.98272 0.411805 2.22303 0.499744L26.7364 9.92641C26.9788 10.0236 27.1876 10.1895 27.3371 10.4037C27.4866 10.6179 27.5703 10.8711 27.578 11.1322C27.5856 11.3933 27.5169 11.6509 27.3802 11.8735C27.2434 12.096 27.0447 12.2739 26.8084 12.3851Z" fill="#F9C80E"/>
</svg>
