<svg width="32" height="32" viewBox="0 0 32 32" fill="none" xmlns="http://www.w3.org/2000/svg">
<path d="M31.5596 9.58033L16.4971 0.142827C16.3481 0.0494968 16.1758 0 16 0C15.8242 0 15.6519 0.0494968 15.5029 0.142827L0.440375 9.58033C0.30563 9.6646 0.194521 9.78175 0.117488 9.92076C0.040455 10.0598 2.61053e-05 10.2161 0 10.375C2.61053e-05 10.5339 0.040455 10.6903 0.117488 10.8293C0.194521 10.9683 0.30563 11.0854 0.440375 11.1697L15.5029 20.5447C15.6519 20.638 15.8242 20.6874 16 20.6874C16.1758 20.6874 16.3481 20.638 16.4971 20.5447L31.5596 11.1697C31.6944 11.0854 31.8055 10.9683 31.8825 10.8293C31.9595 10.6903 32 10.5339 32 10.375C32 10.2161 31.9595 10.0598 31.8825 9.92076C31.8055 9.78175 31.6944 9.6646 31.5596 9.58033Z" fill="#B2B2B2"/>
<path d="M31.5596 20.8303L30.0999 19.918L16.4971 28.3807C16.3481 28.4739 16.1758 28.5234 16 28.5234C15.8242 28.5234 15.6519 28.4739 15.5029 28.3807L1.90006 19.918L0.440375 20.8303C0.30563 20.9146 0.194521 21.0317 0.117488 21.1707C0.040455 21.3097 2.61053e-05 21.466 0 21.625C2.61053e-05 21.7839 0.040455 21.9402 0.117488 22.0792C0.194521 22.2182 0.30563 22.3354 0.440375 22.4197L15.5029 31.8572C15.6519 31.9504 15.8242 31.9999 16 31.9999C16.1758 31.9999 16.3481 31.9504 16.4971 31.8572L31.5596 22.4197C31.6944 22.3354 31.8055 22.2182 31.8825 22.0792C31.9595 21.9402 32 21.7839 32 21.625C32 21.466 31.9595 21.3097 31.8825 21.1707C31.8055 21.0317 31.6944 20.9146 31.5596 20.8303Z" fill="#B2B2B2"/>
<path d="M31.5596 15.2053L30.0999 14.293L16.4971 22.7557C16.3481 22.8489 16.1758 22.8984 16 22.8984C15.8242 22.8984 15.6519 22.8489 15.5029 22.7557L1.90006 14.293L0.440375 15.2053C0.30563 15.2896 0.194521 15.4067 0.117488 15.5457C0.040455 15.6847 2.61053e-05 15.841 0 16C2.61053e-05 16.1589 0.040455 16.3152 0.117488 16.4542C0.194521 16.5932 0.30563 16.7104 0.440375 16.7947L15.5029 26.1697C15.6519 26.2629 15.8242 26.3124 16 26.3124C16.1758 26.3124 16.3481 26.2629 16.4971 26.1697L31.5596 16.7947C31.6944 16.7104 31.8055 16.5932 31.8825 16.4542C31.9595 16.3152 32 16.1589 32 16C32 15.841 31.9595 15.6847 31.8825 15.5457C31.8055 15.4067 31.6944 15.2896 31.5596 15.2053Z" fill="#B2B2B2"/>
</svg>
