<svg width="18" height="18" viewBox="0 0 18 18" fill="none" xmlns="http://www.w3.org/2000/svg">
<path d="M9.0013 6.8099C8.33826 6.8099 7.70238 7.07329 7.23354 7.54213C6.76469 8.01097 6.5013 8.64685 6.5013 9.3099C6.5013 9.97294 6.76469 10.6088 7.23354 11.0777C7.70238 11.5465 8.33826 11.8099 9.0013 11.8099C9.66434 11.8099 10.3002 11.5465 10.7691 11.0777C11.2379 10.6088 11.5013 9.97294 11.5013 9.3099C11.5013 8.64685 11.2379 8.01097 10.7691 7.54213C10.3002 7.07329 9.66434 6.8099 9.0013 6.8099ZM9.0013 5.14323C10.1064 5.14323 11.1662 5.58222 11.9476 6.36362C12.729 7.14502 13.168 8.20483 13.168 9.3099C13.168 10.415 12.729 11.4748 11.9476 12.2562C11.1662 13.0376 10.1064 13.4766 9.0013 13.4766C7.89623 13.4766 6.83643 13.0376 6.05502 12.2562C5.27362 11.4748 4.83464 10.415 4.83464 9.3099C4.83464 8.20483 5.27362 7.14502 6.05502 6.36362C6.83643 5.58222 7.89623 5.14323 9.0013 5.14323ZM14.418 4.9349C14.418 5.21116 14.3082 5.47611 14.1129 5.67147C13.9175 5.86682 13.6526 5.97656 13.3763 5.97656C13.1 5.97656 12.8351 5.86682 12.6397 5.67147C12.4444 5.47611 12.3346 5.21116 12.3346 4.9349C12.3346 4.65863 12.4444 4.39368 12.6397 4.19833C12.8351 4.00298 13.1 3.89323 13.3763 3.89323C13.6526 3.89323 13.9175 4.00298 14.1129 4.19833C14.3082 4.39368 14.418 4.65863 14.418 4.9349ZM9.0013 2.64323C6.93964 2.64323 6.60297 2.64906 5.6438 2.69156C4.99047 2.7224 4.55214 2.8099 4.14547 2.96823C3.80515 3.09318 3.49748 3.29345 3.24547 3.55406C2.98464 3.80606 2.7841 4.11372 2.6588 4.45406C2.50047 4.8624 2.41297 5.2999 2.38297 5.9524C2.33964 6.8724 2.3338 7.19406 2.3338 9.3099C2.3338 11.3724 2.33964 11.7082 2.38214 12.6674C2.41297 13.3199 2.50047 13.7591 2.65797 14.1649C2.79964 14.5274 2.9663 14.7882 3.24297 15.0649C3.5238 15.3449 3.78464 15.5124 4.14297 15.6507C4.55464 15.8099 4.99297 15.8982 5.64297 15.9282C6.56297 15.9716 6.88464 15.9766 9.00047 15.9766C11.063 15.9766 11.3988 15.9707 12.358 15.9282C13.0096 15.8974 13.448 15.8099 13.8555 15.6524C14.1955 15.5268 14.503 15.3266 14.7555 15.0666C15.0363 14.7866 15.2038 14.5257 15.3421 14.1666C15.5005 13.7566 15.5888 13.3182 15.6188 12.6666C15.6621 11.7474 15.6671 11.4249 15.6671 9.3099C15.6671 7.24823 15.6613 6.91156 15.6188 5.9524C15.588 5.30073 15.4996 4.86073 15.3421 4.45406C15.2165 4.11408 15.0163 3.80655 14.7563 3.55406C14.5044 3.2931 14.1967 3.09253 13.8563 2.9674C13.448 2.80906 13.0096 2.72156 12.358 2.69156C11.4388 2.64823 11.118 2.64323 9.0013 2.64323ZM9.0013 0.976562C11.2655 0.976562 11.548 0.984896 12.4371 1.02656C13.3238 1.06823 13.9288 1.2074 14.4596 1.41406C15.0096 1.62573 15.473 1.9124 15.9363 2.3749C16.36 2.79148 16.6879 3.29539 16.8971 3.85156C17.103 4.3824 17.243 4.9874 17.2846 5.8749C17.3238 6.76323 17.3346 7.04573 17.3346 9.3099C17.3346 11.5741 17.3263 11.8566 17.2846 12.7449C17.243 13.6324 17.103 14.2366 16.8971 14.7682C16.6885 15.3247 16.3605 15.8287 15.9363 16.2449C15.5196 16.6685 15.0157 16.9964 14.4596 17.2057C13.9288 17.4116 13.3238 17.5516 12.4371 17.5932C11.548 17.6324 11.2655 17.6432 9.0013 17.6432C6.73714 17.6432 6.45464 17.6349 5.56547 17.5932C4.6788 17.5516 4.07464 17.4116 3.54297 17.2057C2.98657 16.997 2.48257 16.669 2.0663 16.2449C1.64249 15.8284 1.3146 15.3244 1.10547 14.7682C0.898802 14.2374 0.759636 13.6324 0.717969 12.7449C0.677969 11.8566 0.667969 11.5741 0.667969 9.3099C0.667969 7.04573 0.676302 6.76323 0.717969 5.8749C0.759636 4.98656 0.898802 4.38323 1.10547 3.85156C1.314 3.29505 1.64197 2.791 2.0663 2.3749C2.48269 1.95092 2.98666 1.623 3.54297 1.41406C4.0738 1.2074 4.67797 1.06823 5.56547 1.02656C6.45464 0.987396 6.73714 0.976562 9.0013 0.976562Z" fill="black"/>
</svg>
