<svg width="32" height="28" viewBox="0 0 32 28" fill="none" xmlns="http://www.w3.org/2000/svg">
<path d="M31.2111 0.899828C30.7102 0.399453 30.0447 0.119516 29.337 0.111516C29.3267 0.111391 29.3163 0.111328 29.306 0.111328C28.6096 0.111328 27.9499 0.375641 27.4453 0.857891L12.4295 15.2158C14.0367 15.6255 15.4097 16.6569 16.3072 18.1656C16.5786 18.6225 16.7977 19.1084 16.9606 19.6143L31.2537 4.66602C31.7349 4.16245 32 3.50164 32 2.80533C32 2.08614 31.7201 1.4097 31.2111 0.899828ZM11.0367 16.8962C10.9612 16.893 10.8857 16.8914 10.8101 16.8915C9.54306 16.8915 8.28631 17.3321 7.26113 18.0696C6.02538 18.9587 5.53262 20.2356 4.62525 21.399C3.4875 22.8577 1.73719 23.571 0 24.0574C1.01169 26.7312 4.77 27.826 7.2345 27.8849C7.323 27.887 7.41194 27.8881 7.50156 27.8881C10.2919 27.8881 13.5786 26.851 14.9237 24.1055C16.4005 21.0915 14.5802 17.0445 11.0367 16.8962Z" fill="#F9C80E"/>
</svg>
