<svg width="32" height="32" viewBox="0 0 32 32" fill="none" xmlns="http://www.w3.org/2000/svg">
<path d="M19.648 27.9638V28.8988C19.648 29.6428 19.1015 30.2617 18.3904 30.3671L18.1599 31.2165C18.0348 31.6774 17.62 32 17.1393 32H14.8546C14.3739 32 13.9591 31.6774 13.834 31.2165L13.6101 30.3671C12.8924 30.2551 12.3459 29.6428 12.3459 28.8922V27.9572C12.3459 27.4568 12.7476 27.0551 13.248 27.0551H18.7459C19.2463 27.0617 19.648 27.4634 19.648 27.9638ZM23.8817 15.3613C23.8817 17.4881 23.0389 19.4173 21.6694 20.8329C20.629 21.9128 19.9574 23.2889 19.7336 24.7572C19.6348 25.3893 19.0883 25.8568 18.443 25.8568H13.5509C12.9122 25.8568 12.3591 25.3959 12.2669 24.7638C12.0365 23.2955 11.3583 21.8996 10.3179 20.8263C8.97473 19.4304 8.13851 17.5342 8.11876 15.4469C8.07267 11.0617 11.5624 7.51276 15.9476 7.47983C20.3262 7.44691 23.8817 10.9893 23.8817 15.3613ZM16.8891 10.5877C16.8891 10.1004 16.4941 9.69876 16.0002 9.69876C12.8661 9.69876 10.3114 12.2469 10.3114 15.3877C10.3114 15.8749 10.7064 16.2765 11.2002 16.2765C11.6875 16.2765 12.0891 15.8815 12.0891 15.3877C12.0891 13.228 13.8472 11.4765 16.0002 11.4765C16.4941 11.4765 16.8891 11.0815 16.8891 10.5877ZM16.0002 4.89218C16.4875 4.89218 16.8891 4.49712 16.8891 4.00329V0.888889C16.8891 0.401646 16.4941 0 16.0002 0C15.5064 0 15.1114 0.395062 15.1114 0.888889V4.00329C15.1114 4.49712 15.513 4.89218 16.0002 4.89218ZM5.53769 15.3547C5.53769 14.8675 5.14263 14.4658 4.6488 14.4658H1.5344C1.04715 14.4658 0.645508 14.8609 0.645508 15.3547C0.645508 15.842 1.04057 16.2436 1.5344 16.2436H4.6488C5.14263 16.2436 5.53769 15.8486 5.53769 15.3547ZM30.4661 14.4658H27.3517C26.8644 14.4658 26.4628 14.8609 26.4628 15.3547C26.4628 15.842 26.8579 16.2436 27.3517 16.2436H30.4661C30.9533 16.2436 31.355 15.8486 31.355 15.3547C31.355 14.8675 30.9599 14.4658 30.4661 14.4658ZM7.34839 22.7556L5.14263 24.9613C4.79366 25.3103 4.79366 25.87 5.14263 26.2189C5.31382 26.3901 5.54427 26.4757 5.76814 26.4757C5.99201 26.4757 6.22246 26.3901 6.39366 26.2189L8.59942 24.0132C8.94839 23.6642 8.94839 23.1045 8.59942 22.7556C8.25703 22.4066 7.69077 22.4066 7.34839 22.7556ZM24.0266 8.21728C24.2504 8.21728 24.4809 8.13169 24.6521 7.96049L26.8579 5.75473C27.2068 5.40576 27.2068 4.84609 26.8579 4.49712C26.5089 4.14815 25.9492 4.14815 25.6002 4.49712L23.3945 6.70288C23.0455 7.05185 23.0455 7.61152 23.3945 7.96049C23.5723 8.13169 23.7961 8.21728 24.0266 8.21728ZM7.34839 7.95391C7.51958 8.1251 7.75003 8.2107 7.9739 8.2107C8.19777 8.2107 8.42822 8.1251 8.59942 7.95391C8.94839 7.60494 8.94839 7.04527 8.59942 6.6963L6.39366 4.49053C6.04468 4.14156 5.48501 4.14156 5.13604 4.49053C4.78707 4.83951 4.78707 5.39918 5.13604 5.74815L7.34839 7.95391ZM24.6521 22.7556C24.3031 22.4066 23.7434 22.4066 23.3945 22.7556C23.0455 23.1045 23.0455 23.6642 23.3945 24.0132L25.6002 26.2189C25.7714 26.3901 26.0019 26.4757 26.2258 26.4757C26.4496 26.4757 26.6801 26.3901 26.8513 26.2189C27.2002 25.87 27.2002 25.3103 26.8513 24.9613L24.6521 22.7556Z" fill="#F9C80E"/>
</svg>
