<svg width="28" height="29" viewBox="0 0 28 29" fill="none" xmlns="http://www.w3.org/2000/svg">
<path opacity="0.6" d="M1.45898 14.3112C1.45898 21.2378 7.07408 26.8529 14.0007 26.8529C20.9273 26.8529 26.5423 21.2378 26.5423 14.3112C26.5423 7.38463 20.9273 1.76953 14.0007 1.76953C7.07408 1.76953 1.45898 7.38463 1.45898 14.3112Z" fill="#7950FF"/>
<path d="M19.6898 9.66766C19.9989 10.233 19.7913 10.9419 19.226 11.251C17.626 12.126 16.1236 13.9576 14.9763 15.7143C14.4171 16.5706 13.9684 17.368 13.6598 17.951C13.5058 18.2419 13.3875 18.478 13.3086 18.6395L13.1939 18.8791C13.0136 19.2731 12.6298 19.5351 12.1972 19.559C11.7645 19.5828 11.3541 19.3649 11.1317 18.993C10.7692 18.3869 10.1931 17.8336 9.65931 17.4117C9.39993 17.2066 9.16645 17.0449 8.99984 16.9358L8.7545 16.7824C8.1951 16.4629 8.00031 15.7507 8.31945 15.1911C8.63867 14.6314 9.35117 14.4364 9.91087 14.7556L10.2784 14.9839C10.491 15.1231 10.7825 15.3252 11.1065 15.5813C11.354 15.777 11.6308 16.0124 11.9103 16.2835C12.2099 15.7452 12.5844 15.1097 13.0227 14.4384C14.2089 12.6223 15.973 10.3706 18.1065 9.20384C18.6717 8.89467 19.3806 9.10234 19.6898 9.66766Z" fill="white"/>
</svg>
