<svg width="28" height="29" viewBox="0 0 28 29" fill="none" xmlns="http://www.w3.org/2000/svg">
<path opacity="0.8" d="M1.45898 14.6559C1.45898 21.5825 7.07408 27.1976 14.0007 27.1976C20.9273 27.1976 26.5423 21.5825 26.5423 14.6559C26.5423 7.72935 20.9273 2.11426 14.0007 2.11426C7.07408 2.11426 1.45898 7.72935 1.45898 14.6559Z" fill="#F9C80E"/>
<path d="M19.6898 10.0124C19.9989 10.5777 19.7913 11.2866 19.226 11.5958C17.626 12.4707 16.1236 14.3024 14.9763 16.059C14.4171 16.9153 13.9684 17.7128 13.6598 18.2957C13.5058 18.5866 13.3875 18.8227 13.3086 18.9842L13.1939 19.2238C13.0136 19.6178 12.6298 19.8798 12.1972 19.9038C11.7645 19.9276 11.3541 19.7096 11.1317 19.3377C10.7692 18.7316 10.1931 18.1784 9.65931 17.7564C9.39993 17.5513 9.16645 17.3896 8.99984 17.2805L8.7545 17.1271C8.1951 16.8077 8.00031 16.0954 8.31945 15.5359C8.63867 14.9761 9.35117 14.7812 9.91087 15.1004L10.2784 15.3287C10.491 15.4679 10.7825 15.6699 11.1065 15.926C11.354 16.1218 11.6308 16.3571 11.9103 16.6282C12.2099 16.0899 12.5844 15.4544 13.0227 14.7831C14.2089 12.967 15.973 10.7153 18.1065 9.54856C18.6717 9.2394 19.3806 9.44706 19.6898 10.0124Z" fill="#1D1F2C"/>
</svg>
