<svg width="20" height="21" viewBox="0 0 20 21" fill="none" xmlns="http://www.w3.org/2000/svg">
<g clip-path="url(#clip0_2603_12787)">
<path d="M10 13.8337C9.91555 13.8337 9.83198 13.8165 9.75434 13.7833C9.67671 13.7501 9.60662 13.7014 9.54833 13.6403L5.17333 9.05699C5.08882 8.9685 5.03214 8.85715 5.01033 8.73675C4.98851 8.61635 5.00252 8.49219 5.05062 8.37967C5.09871 8.26716 5.17877 8.17124 5.28088 8.1038C5.38298 8.03637 5.50264 8.00039 5.625 8.00033H7.91667V3.20866C7.91667 2.63449 8.38417 2.16699 8.95833 2.16699H11.0417C11.6158 2.16699 12.0833 2.63449 12.0833 3.20866V8.00033H14.375C14.4974 8.00039 14.617 8.03637 14.7191 8.1038C14.8212 8.17124 14.9013 8.26716 14.9494 8.37967C14.9975 8.49219 15.0115 8.61635 14.9897 8.73675C14.9679 8.85715 14.9112 8.9685 14.8267 9.05699L10.4517 13.6403C10.3934 13.7014 10.3233 13.7501 10.2457 13.7833C10.168 13.8165 10.0844 13.8337 10 13.8337ZM18.5417 18.8337H1.45833C0.654167 18.8337 0 18.1795 0 17.3753V16.9587C0 16.1545 0.654167 15.5003 1.45833 15.5003H18.5417C19.3458 15.5003 20 16.1545 20 16.9587V17.3753C20 18.1795 19.3458 18.8337 18.5417 18.8337Z" fill="#D2D2D5"/>
</g>
<defs>
<clipPath id="clip0_2603_12787">
<rect width="20" height="20" fill="white" transform="translate(0 0.5)"/>
</clipPath>
</defs>
</svg>
