<svg width="23" height="21" viewBox="0 0 23 21" fill="none" xmlns="http://www.w3.org/2000/svg">
<path d="M8.375 1.49993C7.87772 1.49993 7.4008 1.69748 7.04917 2.04911C6.69754 2.40074 6.5 2.87765 6.5 3.37493C6.5 3.87221 6.69754 4.34913 7.04917 4.70076C7.4008 5.05239 7.87772 5.24993 8.375 5.24993H10.25V9.74993H2.375C1.87772 9.74993 1.40081 9.55239 1.04917 9.20076C0.697544 8.84913 0.5 8.37221 0.5 7.87493V7.12493C0.5 6.08893 1.34 5.24993 2.375 5.24993H5.568C5.08181 4.52769 4.89354 3.6455 5.04253 2.7877C5.19152 1.9299 5.66624 1.16286 6.36749 0.646862C7.06875 0.130861 7.94228 -0.0941793 8.80557 0.0187642C9.66885 0.131708 10.4551 0.573896 11 1.25293C11.5449 0.573896 12.3312 0.131708 13.1944 0.0187642C14.0577 -0.0941793 14.9313 0.130861 15.6325 0.646862C16.3338 1.16286 16.8085 1.9299 16.9575 2.7877C17.1065 3.6455 16.9182 4.52769 16.432 5.24993H20.375C21.41 5.24993 22.25 6.08993 22.25 7.12493V7.87493C22.25 8.91093 21.41 9.74993 20.375 9.74993H11.75V5.24993H13.625C13.9958 5.24993 14.3584 5.13997 14.6667 4.93394C14.975 4.72791 15.2154 4.43508 15.3573 4.09246C15.4992 3.74985 15.5363 3.37285 15.464 3.00914C15.3916 2.64542 15.213 2.31133 14.9508 2.04911C14.6886 1.78688 14.3545 1.60831 13.9908 1.53596C13.6271 1.46361 13.2501 1.50074 12.9075 1.64266C12.5649 1.78457 12.272 2.0249 12.066 2.33324C11.86 2.64158 11.75 3.00409 11.75 3.37493V5.24993H10.25V3.37493C10.25 2.33893 9.41 1.49993 8.375 1.49993ZM10.25 11.2499H2V17.9999C2 18.5967 2.23705 19.169 2.65901 19.5909C3.08097 20.0129 3.65326 20.2499 4.25 20.2499H10.25V11.2499ZM11.75 11.2499V20.2499H18.5C19.0967 20.2499 19.669 20.0129 20.091 19.5909C20.5129 19.169 20.75 18.5967 20.75 17.9999V11.2499H11.75Z" fill="#F9C80E"/>
</svg>
