<svg width="24" height="16" viewBox="0 0 24 16" fill="none" xmlns="http://www.w3.org/2000/svg">
<path fill-rule="evenodd" clip-rule="evenodd" d="M0 1C0 0.734784 0.105357 0.480429 0.292893 0.292893C0.480429 0.105357 0.734784 0 1 0H23C23.2652 0 23.5196 0.105357 23.7071 0.292893C23.8946 0.480429 24 0.734784 24 1C24 1.26522 23.8946 1.51957 23.7071 1.70711C23.5196 1.89464 23.2652 2 23 2H1C0.734784 2 0.480429 1.89464 0.292893 1.70711C0.105357 1.51957 0 1.26522 0 1ZM0 8C0 7.73478 0.105357 7.48043 0.292893 7.29289C0.480429 7.10536 0.734784 7 1 7H23C23.2652 7 23.5196 7.10536 23.7071 7.29289C23.8946 7.48043 24 7.73478 24 8C24 8.26522 23.8946 8.51957 23.7071 8.70711C23.5196 8.89464 23.2652 9 23 9H1C0.734784 9 0.480429 8.89464 0.292893 8.70711C0.105357 8.51957 0 8.26522 0 8ZM0 15C0 14.7348 0.105357 14.4804 0.292893 14.2929C0.480429 14.1054 0.734784 14 1 14H23C23.2652 14 23.5196 14.1054 23.7071 14.2929C23.8946 14.4804 24 14.7348 24 15C24 15.2652 23.8946 15.5196 23.7071 15.7071C23.5196 15.8946 23.2652 16 23 16H1C0.734784 16 0.480429 15.8946 0.292893 15.7071C0.105357 15.5196 0 15.2652 0 15Z" fill="white"/>
</svg>
