<svg width="26" height="32" viewBox="0 0 26 32" fill="none" xmlns="http://www.w3.org/2000/svg">
<path d="M23.272 13.3957C23.0948 13.4598 22.9276 13.5488 22.7756 13.6601C21.9909 14.2375 20.5281 15.8146 20.5281 15.8146C20.573 15.7724 19.4746 16.8351 18.4675 17.8168C18.185 18.0924 17.7102 17.8945 17.7068 17.4997V4.77952C17.7068 3.53264 16.6985 2.67258 15.4782 2.9289C14.5046 3.13352 13.9851 4.03927 13.9851 5.12227L13.9936 14.7243L12.5095 14.7277V1.7334C12.5095 0.543651 11.5545 -0.237348 10.4038 0.0654018C9.61423 0.272901 9.24461 1.01602 9.24461 1.95309V14.7456L7.76486 14.7487L7.75636 4.35471C7.75636 3.31615 7.26661 2.40008 6.22849 2.36933C5.14968 2.33734 4.63012 3.2424 4.63012 4.31414L4.61474 14.7658L3.16818 14.7687V7.91807C3.16818 6.83901 2.66631 6.02383 1.58131 6.02383C0.501874 6.02389 0 6.83908 0 7.91807L0.00125 23.1263C0.542499 30.9452 4.96262 31.9999 9.58323 31.9999C13.4113 31.9999 16.4738 30.101 18.1692 27.0655C18.3874 26.7135 18.9773 25.7858 19.6767 24.6869C20.6716 23.1242 21.5744 21.726 22.208 20.7353C23.0431 19.4289 23.8078 18.4084 24.7536 17.1796C25.0168 16.8378 25.2348 16.5627 25.3388 16.4489C25.6237 16.1379 25.8114 15.7509 25.8676 15.3332V15.2543C25.8676 13.7463 24.6882 12.8781 23.272 13.3957Z" fill="white" fill-opacity="0.7"/>
</svg>
