<svg width="41" height="379" viewBox="0 0 41 379" fill="none" xmlns="http://www.w3.org/2000/svg">
<g filter="url(#filter0_f_2603_8756)">
<line y1="-1.2" x2="353.69" y2="-1.2" transform="matrix(3.82619e-08 1 1 -4.9937e-08 21 17)" stroke="#F9C80E" stroke-width="2.4"/>
</g>
<g filter="url(#filter1_i_2603_8756)">
<line y1="-1.2" x2="341.901" y2="-1.2" transform="matrix(0 1 1 0 19.9998 33.0996)" stroke="url(#paint0_linear_2603_8756)" stroke-width="2.4"/>
</g>
<circle cx="21" cy="20" r="20" fill="#BB960B"/>
<path d="M27 23.8447C27 23.8447 22.5811 29.8447 21 29.8447C19.4188 29.8447 15 23.8447 15 23.8447" stroke="white" stroke-width="2" stroke-linecap="round" stroke-linejoin="round"/>
<path d="M27 16.8448C27 16.8448 22.5811 22.8447 21 22.8447C19.4188 22.8447 15 16.8447 15 16.8447" stroke="white" stroke-width="2" stroke-linecap="round" stroke-linejoin="round"/>
<defs>
<filter id="filter0_f_2603_8756" x="10.6" y="9" width="18.4" height="369.69" filterUnits="userSpaceOnUse" color-interpolation-filters="sRGB">
<feFlood flood-opacity="0" result="BackgroundImageFix"/>
<feBlend mode="normal" in="SourceGraphic" in2="BackgroundImageFix" result="shape"/>
<feGaussianBlur stdDeviation="4" result="effect1_foregroundBlur_2603_8756"/>
</filter>
<filter id="filter1_i_2603_8756" x="17.5997" y="33.0996" width="2.40002" height="345.9" filterUnits="userSpaceOnUse" color-interpolation-filters="sRGB">
<feFlood flood-opacity="0" result="BackgroundImageFix"/>
<feBlend mode="normal" in="SourceGraphic" in2="BackgroundImageFix" result="shape"/>
<feColorMatrix in="SourceAlpha" type="matrix" values="0 0 0 0 0 0 0 0 0 0 0 0 0 0 0 0 0 0 127 0" result="hardAlpha"/>
<feOffset dy="4"/>
<feGaussianBlur stdDeviation="5"/>
<feComposite in2="hardAlpha" operator="arithmetic" k2="-1" k3="1"/>
<feColorMatrix type="matrix" values="0 0 0 0 0 0 0 0 0 0 0 0 0 0 0 0 0 0 0.25 0"/>
<feBlend mode="normal" in2="shape" result="effect1_innerShadow_2603_8756"/>
</filter>
<linearGradient id="paint0_linear_2603_8756" x1="2.14169e-05" y1="-1.50775" x2="304.918" y2="-0.643036" gradientUnits="userSpaceOnUse">
<stop offset="0.151484" stop-color="#EFCA53"/>
<stop offset="1" stop-color="#6C55FF" stop-opacity="0"/>
<stop offset="1" stop-color="#6365FF" stop-opacity="0"/>
</linearGradient>
</defs>
</svg>
