<svg width="24" height="20" viewBox="0 0 24 20" fill="none" xmlns="http://www.w3.org/2000/svg">
<path fill-rule="evenodd" clip-rule="evenodd" d="M0 2.00033C0 1.6467 0.140476 1.30757 0.390524 1.05752C0.640573 0.807468 0.979711 0.666992 1.33333 0.666992H22.6667C23.0203 0.666992 23.3594 0.807468 23.6095 1.05752C23.8595 1.30757 24 1.6467 24 2.00033C24 2.35395 23.8595 2.69309 23.6095 2.94313C23.3594 3.19318 23.0203 3.33366 22.6667 3.33366H1.33333C0.979711 3.33366 0.640573 3.19318 0.390524 2.94313C0.140476 2.69309 0 2.35395 0 2.00033ZM0 10.0003C0 9.6467 0.140476 9.30757 0.390524 9.05752C0.640573 8.80747 0.979711 8.66699 1.33333 8.66699H14.6667C15.0203 8.66699 15.3594 8.80747 15.6095 9.05752C15.8595 9.30757 16 9.6467 16 10.0003C16 10.3539 15.8595 10.6931 15.6095 10.9431C15.3594 11.1932 15.0203 11.3337 14.6667 11.3337H1.33333C0.979711 11.3337 0.640573 11.1932 0.390524 10.9431C0.140476 10.6931 0 10.3539 0 10.0003ZM0 18.0003C0 17.6467 0.140476 17.3076 0.390524 17.0575C0.640573 16.8075 0.979711 16.667 1.33333 16.667H8C8.35362 16.667 8.69276 16.8075 8.94281 17.0575C9.19286 17.3076 9.33333 17.6467 9.33333 18.0003C9.33333 18.3539 9.19286 18.6931 8.94281 18.9431C8.69276 19.1932 8.35362 19.3337 8 19.3337H1.33333C0.979711 19.3337 0.640573 19.1932 0.390524 18.9431C0.140476 18.6931 0 18.3539 0 18.0003Z" fill="white" fill-opacity="0.7"/>
</svg>
