<svg width="17" height="16" viewBox="0 0 17 16" fill="none" xmlns="http://www.w3.org/2000/svg">
<path d="M3.78255 2.47609C3.78233 2.91812 3.60652 3.34196 3.29381 3.65436C2.98109 3.96677 2.55708 4.14215 2.11505 4.14193C1.67302 4.14171 1.24919 3.9659 0.936785 3.65318C0.624381 3.34047 0.448998 2.91645 0.449219 2.47443C0.44944 2.0324 0.625247 1.60856 0.937964 1.29616C1.25068 0.983756 1.67469 0.808373 2.11672 0.808594C2.55875 0.808815 2.98258 0.984622 3.29499 1.29734C3.60739 1.61006 3.78277 2.03407 3.78255 2.47609ZM3.83255 5.37609H0.499219V15.8094H3.83255V5.37609ZM9.09922 5.37609H5.78255V15.8094H9.06589V10.3344C9.06589 7.28443 13.0409 7.00109 13.0409 10.3344V15.8094H16.3326V9.20109C16.3326 4.05943 10.4492 4.25109 9.06589 6.77609L9.09922 5.37609Z" fill="white"/>
</svg>
