<svg width="32" height="32" viewBox="0 0 32 32" fill="none" xmlns="http://www.w3.org/2000/svg">
<path d="M8.02369 17.0354H6.58863C6.40456 17.0354 6.22453 17.0893 6.07076 17.1905C5.917 17.2917 5.79623 17.4357 5.72338 17.6047L1.75075 26.855L11.1853 22.0364C10.0559 20.4736 8.93844 18.75 8.02369 17.0354ZM26.2764 17.6047C26.2036 17.4357 26.0829 17.2917 25.9291 17.1905C25.7754 17.0894 25.5954 17.0354 25.4114 17.0354H23.9764C22.2488 20.2727 19.7319 23.6182 18.1309 25.4587C17.0049 26.7502 14.9936 26.7487 13.8694 25.4587C13.7544 25.3267 13.1541 24.6316 12.3271 23.5627L10.6263 24.4319L17.0603 30.8535L29.2517 24.5332L26.2764 17.6047ZM0.590064 29.5584L0.0769386 30.7534C-0.188749 31.3719 0.266251 32.0625 0.941876 32.0625H14.7575C14.8439 31.9983 14.8449 32.0022 15.3088 31.7617L8.86525 25.3316L0.590064 29.5584ZM31.9231 30.7534L29.9954 26.2647L18.8118 32.0625H31.0581C31.7322 32.0625 32.1892 31.3731 31.9231 30.7534ZM16.9412 8.52024C16.9412 8.00218 16.5188 7.58105 16 7.58105C15.4809 7.58105 15.0588 8.00218 15.0588 8.52024C15.0588 9.03806 15.4809 9.45949 16 9.45949C16.5188 9.45949 16.9412 9.03806 16.9412 8.52024Z" fill="white" fill-opacity="0.7"/>
<path d="M16.7106 24.1636C17.0275 23.7998 24.4706 15.19 24.4706 9.27153C24.4706 -2.9326 7.53027 -3.08153 7.53027 9.27153C7.53027 15.19 14.9734 23.7998 15.2903 24.1636C15.6655 24.594 16.3361 24.5936 16.7106 24.1636ZM13.177 8.52028C13.177 6.96653 14.4436 5.70266 16.0005 5.70266C17.5571 5.70266 18.8237 6.96659 18.8237 8.52028C18.8237 10.0738 17.5571 11.3377 16.0005 11.3377C14.4436 11.3377 13.177 10.0738 13.177 8.52028Z" fill="white" fill-opacity="0.7"/>
</svg>
