<svg width="32" height="32" viewBox="0 0 32 32" fill="none" xmlns="http://www.w3.org/2000/svg">
<path d="M30.8622 0C27.0053 4.45425 26.0496 2.54285 24.0699 4.52251C22.8241 5.77687 22.8241 7.7992 24.0699 9.04502C25.3243 10.2908 27.3551 10.2908 28.6009 9.04502C31.2718 6.37418 30.8622 0 30.8622 0ZM30.8451 26.3415L26.3312 30.8555L31.98 31.9904L30.8451 26.3415ZM5.47641 0.981299C4.23059 -0.264524 2.19972 -0.264524 0.953899 0.981299C-0.291925 2.22712 -0.291925 4.24945 0.953899 5.50381L2.08026 6.63017L6.60277 2.10766L5.47641 0.981299ZM10.3061 19.3615L1.52561 29.1574C0.936833 29.84 0.970965 30.8555 1.61094 31.4954C2.25092 32.1354 3.26635 32.1696 3.94899 31.5808L13.7535 22.8088L10.3061 19.3615ZM21.0919 16.5882L24.0784 13.5675L19.5559 9.04502L16.6291 12.134L8.86402 4.36892L4.34151 8.88289L24.0699 28.5942L28.5839 24.0802L21.0919 16.5882Z" fill="white" fill-opacity="0.7"/>
</svg>
