<svg width="489" height="360" viewBox="0 0 489 360" fill="none" xmlns="http://www.w3.org/2000/svg">
<g filter="url(#filter0_b_2603_8788)">
<rect x="93.2207" width="395.779" height="277.612" rx="12" fill="url(#paint0_linear_2603_8788)" fill-opacity="0.16"/>
<rect x="93.6254" y="0.404682" width="394.97" height="276.803" rx="11.5953" stroke="url(#paint1_linear_2603_8788)" stroke-width="0.809365"/>
</g>
<g filter="url(#filter1_b_2603_8788)">
<rect x="51.1338" y="42.0869" width="395.779" height="277.612" rx="12" fill="url(#paint2_linear_2603_8788)" fill-opacity="0.16"/>
<rect x="51.5385" y="42.4916" width="394.97" height="276.803" rx="11.5953" stroke="url(#paint3_linear_2603_8788)" stroke-width="0.809365"/>
<rect x="62.4658" y="151.351" width="225.813" height="18.6154" rx="9.30769" fill="#CAD1E9"/>
<rect x="77.8447" y="67.1768" width="210.435" height="18.6154" rx="9.30769" fill="#CAD1E9"/>
<rect opacity="0.4" x="77.8447" y="181.296" width="280.849" height="18.6154" rx="9.30769" fill="#CAD1E9"/>
<rect opacity="0.4" x="54.3723" y="211.243" width="304.321" height="18.6154" rx="9.30769" fill="#CAD1E9"/>
<path fill-rule="evenodd" clip-rule="evenodd" d="M101.441 297.946C101.888 297.946 102.251 298.309 102.251 298.756V299.97C102.251 300.417 101.888 300.779 101.441 300.779C100.994 300.779 100.632 300.417 100.632 299.97V298.756C100.632 298.309 100.994 297.946 101.441 297.946ZM96.7982 299.802C97.1142 299.486 97.6267 299.486 97.9428 299.802L98.7522 300.611C99.0682 300.928 99.0682 301.44 98.7522 301.756C98.4361 302.072 97.9236 302.072 97.6075 301.756L96.7982 300.947C96.4821 300.631 96.4821 300.118 96.7982 299.802ZM106.036 299.802C106.352 300.118 106.352 300.631 106.036 300.947L105.227 301.756C104.911 302.072 104.399 302.072 104.082 301.756C103.766 301.44 103.766 300.928 104.082 300.611L104.892 299.802C105.208 299.486 105.72 299.486 106.036 299.802ZM94.9424 304.445C94.9424 303.998 95.3048 303.636 95.7517 303.636H96.9658C97.4128 303.636 97.7752 303.998 97.7752 304.445C97.7752 304.892 97.4128 305.255 96.9658 305.255H95.7517C95.3048 305.255 94.9424 304.892 94.9424 304.445ZM98.7522 307.086C99.0682 307.402 99.0682 307.915 98.7522 308.231L97.9428 309.04C97.6267 309.356 97.1142 309.356 96.7982 309.04C96.4821 308.724 96.4821 308.212 96.7982 307.896L97.6075 307.086C97.9236 306.77 98.4361 306.77 98.7522 307.086Z" fill="#CAD1E9"/>
<path d="M112.313 306.594C112.421 306.735 112.548 306.953 112.546 307.225C112.542 307.885 112.092 308.336 111.655 308.622C111.206 308.915 110.63 309.132 110.069 309.299C109.501 309.468 108.905 309.599 108.396 309.705C108.042 309.777 107.413 309.906 107.232 309.956C106.935 310.04 106.875 310.094 106.855 310.115C106.833 310.139 106.78 310.211 106.711 310.528L106.708 310.54C106.382 312.024 106.125 313.191 105.851 313.986C105.714 314.383 105.555 314.742 105.346 315.013C105.126 315.298 104.812 315.531 104.391 315.549C104.114 315.561 103.891 315.435 103.75 315.33C103.6 315.219 103.464 315.073 103.342 314.921C103.096 314.614 102.842 314.195 102.594 313.72C102.093 312.762 101.564 311.483 101.118 310.17C100.672 308.857 100.298 307.484 100.118 306.338C100.028 305.768 99.9826 305.23 100.008 304.775C100.032 304.35 100.122 303.863 100.433 303.529C100.753 303.184 101.241 303.067 101.668 303.025C102.124 302.981 102.662 303.011 103.234 303.086C104.382 303.237 105.762 303.584 107.085 304.01C108.408 304.435 109.7 304.949 110.672 305.443C111.155 305.688 111.58 305.94 111.894 306.185C112.05 306.307 112.198 306.444 112.313 306.594Z" fill="#CAD1E9"/>
</g>
<rect x="25.2341" y="264.662" width="72.8428" height="34.8027" rx="12" fill="#ED5959"/>
<rect x="25.6388" y="265.067" width="72.0334" height="33.9933" rx="11.5953" stroke="white" stroke-opacity="0.17" stroke-width="0.809365"/>
<path d="M46.2391 287.063H43.1902V277.645H46.3357C47.2585 277.645 48.051 277.834 48.7132 278.211C49.3754 278.585 49.8828 279.123 50.2354 279.825C50.591 280.524 50.7688 281.363 50.7688 282.341C50.7688 283.322 50.5895 284.165 50.2308 284.87C49.8751 285.575 49.3601 286.118 48.6856 286.498C48.0111 286.875 47.1957 287.063 46.2391 287.063ZM44.6112 285.822H46.161C46.8783 285.822 47.4746 285.687 47.9498 285.417C48.425 285.144 48.7807 284.75 49.0167 284.235C49.2528 283.717 49.3708 283.086 49.3708 282.341C49.3708 281.602 49.2528 280.975 49.0167 280.46C48.7837 279.945 48.4358 279.554 47.9728 279.287C47.5099 279.02 46.9351 278.887 46.2483 278.887H44.6112V285.822ZM55.0651 287.206C54.3692 287.206 53.7698 287.057 53.267 286.76C52.7673 286.46 52.381 286.038 52.1082 285.495C51.8384 284.95 51.7035 284.31 51.7035 283.578C51.7035 282.854 51.8384 282.216 52.1082 281.665C52.381 281.113 52.7612 280.682 53.2486 280.372C53.7392 280.063 54.3125 279.908 54.9685 279.908C55.3671 279.908 55.7534 279.974 56.1274 280.106C56.5014 280.238 56.8371 280.444 57.1345 280.727C57.4319 281.009 57.6664 281.375 57.8381 281.826C58.0098 282.273 58.0956 282.817 58.0956 283.458V283.946H52.4807V282.915H56.7482C56.7482 282.554 56.6746 282.233 56.5275 281.954C56.3803 281.672 56.1734 281.45 55.9067 281.288C55.643 281.125 55.3334 281.044 54.9777 281.044C54.5915 281.044 54.2542 281.139 53.966 281.329C53.6809 281.516 53.4602 281.761 53.3038 282.065C53.1505 282.365 53.0739 282.692 53.0739 283.044V283.849C53.0739 284.321 53.1567 284.723 53.3222 285.054C53.4908 285.385 53.7254 285.638 54.0258 285.813C54.3263 285.984 54.6773 286.07 55.0789 286.07C55.3395 286.07 55.5771 286.033 55.7917 285.96C56.0063 285.883 56.1918 285.77 56.3481 285.619C56.5045 285.469 56.6241 285.284 56.7068 285.063L58.0083 285.298C57.904 285.681 57.717 286.017 57.4472 286.305C57.1805 286.59 56.8448 286.812 56.4401 286.972C56.0385 287.128 55.5802 287.206 55.0651 287.206ZM60.5916 277.645V287.063H59.2166V277.645H60.5916ZM65.081 287.206C64.3851 287.206 63.7857 287.057 63.2829 286.76C62.7832 286.46 62.3969 286.038 62.1241 285.495C61.8543 284.95 61.7194 284.31 61.7194 283.578C61.7194 282.854 61.8543 282.216 62.1241 281.665C62.3969 281.113 62.7771 280.682 63.2645 280.372C63.7551 280.063 64.3284 279.908 64.9844 279.908C65.383 279.908 65.7693 279.974 66.1433 280.106C66.5173 280.238 66.853 280.444 67.1504 280.727C67.4478 281.009 67.6823 281.375 67.854 281.826C68.0257 282.273 68.1115 282.817 68.1115 283.458V283.946H62.4965V282.915H66.7641C66.7641 282.554 66.6905 282.233 66.5434 281.954C66.3962 281.672 66.1893 281.45 65.9226 281.288C65.6589 281.125 65.3493 281.044 64.9936 281.044C64.6073 281.044 64.2701 281.139 63.9819 281.329C63.6968 281.516 63.4761 281.761 63.3197 282.065C63.1664 282.365 63.0898 282.692 63.0898 283.044V283.849C63.0898 284.321 63.1726 284.723 63.3381 285.054C63.5067 285.385 63.7413 285.638 64.0417 285.813C64.3421 285.984 64.6932 286.07 65.0948 286.07C65.3554 286.07 65.593 286.033 65.8076 285.96C66.0222 285.883 66.2077 285.77 66.364 285.619C66.5204 285.469 66.6399 285.284 66.7227 285.063L68.0241 285.298C67.9199 285.681 67.7329 286.017 67.4631 286.305C67.1964 286.59 66.8607 286.812 66.456 286.972C66.0544 287.128 65.596 287.206 65.081 287.206ZM72.5297 280V281.104H68.6714V280H72.5297ZM69.7061 278.308H71.0811V284.989C71.0811 285.256 71.121 285.457 71.2007 285.592C71.2804 285.724 71.3831 285.814 71.5088 285.863C71.6375 285.909 71.777 285.932 71.9273 285.932C72.0376 285.932 72.1342 285.925 72.217 285.909C72.2997 285.894 72.3641 285.882 72.4101 285.872L72.6584 287.008C72.5787 287.039 72.4653 287.07 72.3181 287.1C72.171 287.134 71.987 287.152 71.7663 287.155C71.4045 287.162 71.0673 287.097 70.7546 286.962C70.4419 286.827 70.189 286.619 69.9958 286.337C69.8027 286.055 69.7061 285.701 69.7061 285.275V278.308ZM76.6144 287.206C75.9185 287.206 75.3192 287.057 74.8164 286.76C74.3166 286.46 73.9304 286.038 73.6575 285.495C73.3877 284.95 73.2528 284.31 73.2528 283.578C73.2528 282.854 73.3877 282.216 73.6575 281.665C73.9304 281.113 74.3105 280.682 74.798 280.372C75.2885 280.063 75.8618 279.908 76.5179 279.908C76.9164 279.908 77.3027 279.974 77.6767 280.106C78.0508 280.238 78.3865 280.444 78.6838 280.727C78.9812 281.009 79.2158 281.375 79.3874 281.826C79.5591 282.273 79.645 282.817 79.645 283.458V283.946H74.03V282.915H78.2976C78.2976 282.554 78.224 282.233 78.0768 281.954C77.9297 281.672 77.7227 281.45 77.456 281.288C77.1923 281.125 76.8827 281.044 76.5271 281.044C76.1408 281.044 75.8035 281.139 75.5154 281.329C75.2302 281.516 75.0095 281.761 74.8532 282.065C74.6999 282.365 74.6232 282.692 74.6232 283.044V283.849C74.6232 284.321 74.706 284.723 74.8716 285.054C75.0402 285.385 75.2747 285.638 75.5751 285.813C75.8756 285.984 76.2266 286.07 76.6282 286.07C76.8888 286.07 77.1264 286.033 77.341 285.96C77.5556 285.883 77.7411 285.77 77.8975 285.619C78.0538 285.469 78.1734 285.284 78.2562 285.063L79.5576 285.298C79.4534 285.681 79.2663 286.017 78.9966 286.305C78.7298 286.59 78.3941 286.812 77.9894 286.972C77.5878 287.128 77.1295 287.206 76.6144 287.206Z" fill="white"/>
<g filter="url(#filter2_d_2603_8788)">
<rect x="371.642" y="257.378" width="97.9331" height="97.9331" rx="12" fill="#0B1023"/>
<path opacity="0.4" d="M412.26 299.608C415.054 299.48 417.891 299.413 421.013 299.413C424.134 299.413 426.971 299.48 429.765 299.608C433.791 299.794 437.059 302.911 437.59 306.856C437.88 309.008 438.127 311.27 438.127 313.594C438.127 315.918 437.88 318.179 437.59 320.332C437.059 324.277 433.791 327.394 429.765 327.579C426.971 327.708 424.134 327.775 421.013 327.775C417.891 327.775 415.054 327.708 412.26 327.579C408.235 327.394 404.966 324.277 404.435 320.332C404.145 318.179 403.898 315.918 403.898 313.594C403.898 311.27 404.145 309.008 404.435 306.856C404.966 302.911 408.235 299.794 412.26 299.608Z" fill="#236936"/>
<path fill-rule="evenodd" clip-rule="evenodd" d="M417.402 307.237C416.201 307.237 415.044 307.973 414.651 309.19L411.794 318.033C411.545 318.804 411.968 319.631 412.739 319.88C413.509 320.129 414.336 319.706 414.585 318.935L415.205 317.017H419.6L420.219 318.935C420.468 319.706 421.295 320.129 422.066 319.88C422.837 319.631 423.26 318.804 423.011 318.033L420.154 309.19C419.761 307.973 418.603 307.237 417.402 307.237ZM416.154 314.082L417.403 310.215L418.652 314.082H416.154Z" fill="#236936"/>
<path d="M428.348 308.704C428.348 307.894 427.691 307.237 426.881 307.237C426.07 307.237 425.414 307.894 425.414 308.704V318.484C425.414 319.294 426.07 319.951 426.881 319.951C427.691 319.951 428.348 319.294 428.348 318.484V308.704Z" fill="#236936"/>
<path d="M414.167 296.479C414.167 292.699 417.232 289.634 421.013 289.634C424.794 289.634 427.859 292.699 427.859 296.479V299.531C428.499 299.554 429.133 299.58 429.766 299.609C430.46 299.641 431.132 299.76 431.771 299.955V296.479C431.771 290.538 426.955 285.722 421.013 285.722C415.072 285.722 410.255 290.538 410.255 296.479V299.955C410.895 299.76 411.566 299.641 412.261 299.609C412.893 299.58 413.528 299.554 414.167 299.531V296.479Z" fill="#236936"/>
</g>
<g filter="url(#filter3_d_2603_8788)">
<rect x="5" y="141.639" width="97.9331" height="97.9331" rx="12" fill="#0B1023"/>
<path opacity="0.4" fill-rule="evenodd" clip-rule="evenodd" d="M39.3477 180.438C39.3477 177.979 41.3407 175.986 43.7992 175.986C46.2577 175.986 48.2507 177.979 48.2507 180.438C48.2507 182.896 46.2577 184.889 43.7992 184.889C41.3407 184.889 39.3477 182.896 39.3477 180.438Z" fill="#3569CF"/>
<path opacity="0.4" d="M76.7188 192.574C72.385 189.779 68.2563 188.608 64.3047 188.773C60.3713 188.937 56.8346 190.416 53.6531 192.543C48.2702 196.142 43.5358 201.885 39.2968 207.026C38.6257 207.84 37.967 208.639 37.3202 209.412L35.4531 211.044L38.1752 212.897C40.0987 213.694 42.3484 214.043 44.9337 214.213C47.509 214.382 50.6109 214.382 54.2997 214.382H54.5392C59.3824 214.382 63.2434 214.382 66.2707 213.975C69.3965 213.555 71.9646 212.664 73.9954 210.633C75.7749 208.854 76.6845 206.671 77.1642 204.04C77.6314 201.477 77.7188 198.316 77.7382 194.456L77.7444 193.235L76.7188 192.574Z" fill="#3569CF"/>
<path fill-rule="evenodd" clip-rule="evenodd" d="M54.2046 167.639H54.5362C59.3792 167.639 63.2405 167.639 66.2677 168.046C69.3936 168.466 71.9616 169.356 73.9924 171.387C76.0232 173.418 76.9137 175.986 77.3339 179.112C77.7408 182.139 77.7408 186 77.7408 190.843V191.175C77.7408 196.018 77.7408 199.879 77.3339 202.906C76.9137 206.032 76.0232 208.6 73.9924 210.631C71.9616 212.662 69.3936 213.552 66.2677 213.973C63.2402 214.379 59.3792 214.379 54.536 214.379H54.2048C49.3615 214.379 45.5004 214.379 42.4731 213.973C39.3473 213.552 36.7792 212.662 34.7485 210.631C32.7177 208.6 31.8272 206.032 31.4069 202.906C30.9999 199.879 31 196.018 31 191.175V190.843C31 186 30.9999 182.139 31.4069 179.112C31.8272 175.986 32.7177 173.418 34.7485 171.387C36.7792 169.356 39.3473 168.466 42.4731 168.046C45.5004 167.639 49.3615 167.639 54.2046 167.639ZM43.0663 172.457C40.4341 172.811 38.962 173.469 37.8962 174.535C36.8304 175.601 36.1726 177.073 35.8187 179.705C35.4562 182.401 35.4515 185.962 35.4515 191.009C35.4515 196.056 35.4562 199.617 35.8187 202.313C36.1726 204.945 36.8304 206.418 37.8962 207.483C38.962 208.549 40.4341 209.207 43.0663 209.561C45.7625 209.923 49.3236 209.928 54.3704 209.928C59.4171 209.928 62.9783 209.923 65.6746 209.561C68.3067 209.207 69.7788 208.549 70.8448 207.483C71.9104 206.418 72.5682 204.945 72.922 202.313C73.2846 199.617 73.2893 196.056 73.2893 191.009C73.2893 185.962 73.2846 182.401 72.922 179.705C72.5682 177.073 71.9104 175.601 70.8448 174.535C69.7788 173.469 68.3067 172.811 65.6746 172.457C62.9783 172.095 59.4171 172.09 54.3704 172.09C49.3236 172.09 45.7625 172.095 43.0663 172.457Z" fill="#3569CF"/>
</g>
<defs>
<filter id="filter0_b_2603_8788" x="83.7511" y="-9.46957" width="414.718" height="296.551" filterUnits="userSpaceOnUse" color-interpolation-filters="sRGB">
<feFlood flood-opacity="0" result="BackgroundImageFix"/>
<feGaussianBlur in="BackgroundImageFix" stdDeviation="4.73478"/>
<feComposite in2="SourceAlpha" operator="in" result="effect1_backgroundBlur_2603_8788"/>
<feBlend mode="normal" in="SourceGraphic" in2="effect1_backgroundBlur_2603_8788" result="shape"/>
</filter>
<filter id="filter1_b_2603_8788" x="-23.0849" y="-32.1318" width="544.217" height="426.05" filterUnits="userSpaceOnUse" color-interpolation-filters="sRGB">
<feFlood flood-opacity="0" result="BackgroundImageFix"/>
<feGaussianBlur in="BackgroundImageFix" stdDeviation="37.1094"/>
<feComposite in2="SourceAlpha" operator="in" result="effect1_backgroundBlur_2603_8788"/>
<feBlend mode="normal" in="SourceGraphic" in2="effect1_backgroundBlur_2603_8788" result="shape"/>
</filter>
<filter id="filter2_d_2603_8788" x="367.595" y="253.331" width="106.027" height="106.027" filterUnits="userSpaceOnUse" color-interpolation-filters="sRGB">
<feFlood flood-opacity="0" result="BackgroundImageFix"/>
<feColorMatrix in="SourceAlpha" type="matrix" values="0 0 0 0 0 0 0 0 0 0 0 0 0 0 0 0 0 0 127 0" result="hardAlpha"/>
<feMorphology radius="4.04682" operator="dilate" in="SourceAlpha" result="effect1_dropShadow_2603_8788"/>
<feOffset/>
<feComposite in2="hardAlpha" operator="out"/>
<feColorMatrix type="matrix" values="0 0 0 0 1 0 0 0 0 1 0 0 0 0 1 0 0 0 0.11 0"/>
<feBlend mode="normal" in2="BackgroundImageFix" result="effect1_dropShadow_2603_8788"/>
<feBlend mode="normal" in="SourceGraphic" in2="effect1_dropShadow_2603_8788" result="shape"/>
</filter>
<filter id="filter3_d_2603_8788" x="0.953177" y="137.592" width="106.027" height="106.027" filterUnits="userSpaceOnUse" color-interpolation-filters="sRGB">
<feFlood flood-opacity="0" result="BackgroundImageFix"/>
<feColorMatrix in="SourceAlpha" type="matrix" values="0 0 0 0 0 0 0 0 0 0 0 0 0 0 0 0 0 0 127 0" result="hardAlpha"/>
<feMorphology radius="4.04682" operator="dilate" in="SourceAlpha" result="effect1_dropShadow_2603_8788"/>
<feOffset/>
<feComposite in2="hardAlpha" operator="out"/>
<feColorMatrix type="matrix" values="0 0 0 0 1 0 0 0 0 1 0 0 0 0 1 0 0 0 0.11 0"/>
<feBlend mode="normal" in2="BackgroundImageFix" result="effect1_dropShadow_2603_8788"/>
<feBlend mode="normal" in="SourceGraphic" in2="effect1_dropShadow_2603_8788" result="shape"/>
</filter>
<linearGradient id="paint0_linear_2603_8788" x1="126" y1="-2.26138e-05" x2="541.899" y2="109.055" gradientUnits="userSpaceOnUse">
<stop stop-color="#0084FF"/>
<stop offset="0.438035" stop-color="#FFF778"/>
<stop offset="1" stop-color="#F6CE69"/>
</linearGradient>
<linearGradient id="paint1_linear_2603_8788" x1="87.9599" y1="4.04679" x2="361.777" y2="382.075" gradientUnits="userSpaceOnUse">
<stop stop-color="#2D2E48"/>
<stop offset="1" stop-color="white" stop-opacity="0.06"/>
</linearGradient>
<linearGradient id="paint2_linear_2603_8788" x1="372.452" y1="77.699" x2="207.573" y2="396.035" gradientUnits="userSpaceOnUse">
<stop stop-color="#1B1C36"/>
<stop offset="1" stop-color="#00000B"/>
</linearGradient>
<linearGradient id="paint3_linear_2603_8788" x1="51.1338" y1="319.699" x2="489.082" y2="209.166" gradientUnits="userSpaceOnUse">
<stop offset="0.362307" stop-color="#2C2D47"/>
<stop offset="1" stop-color="white" stop-opacity="0.07"/>
</linearGradient>
</defs>
</svg>
