<svg width="8" height="28" viewBox="0 0 8 28" fill="none" xmlns="http://www.w3.org/2000/svg">
<path d="M0.258789 28H7.74229V25.735H6.01929C5.88668 25.735 5.7595 25.6823 5.66574 25.5886C5.57197 25.4948 5.51929 25.3676 5.51929 25.235C5.51929 25.1024 5.57197 24.9752 5.66574 24.8814C5.7595 24.7877 5.88668 24.735 6.01929 24.735H7.74229V22.926H6.01929C5.88668 22.926 5.7595 22.8733 5.66574 22.7796C5.57197 22.6858 5.51929 22.5586 5.51929 22.426C5.51929 22.2934 5.57197 22.1662 5.66574 22.0724C5.7595 21.9787 5.88668 21.926 6.01929 21.926H7.74229V20.117H6.01929C5.88668 20.117 5.7595 20.0643 5.66574 19.9706C5.57197 19.8768 5.51929 19.7496 5.51929 19.617C5.51929 19.4844 5.57197 19.3572 5.66574 19.2634C5.7595 19.1697 5.88668 19.117 6.01929 19.117H7.74229V17.3085H6.01929C5.88668 17.3085 5.7595 17.2558 5.66574 17.1621C5.57197 17.0683 5.51929 16.9411 5.51929 16.8085C5.51929 16.6759 5.57197 16.5487 5.66574 16.4549C5.7595 16.3612 5.88668 16.3085 6.01929 16.3085H7.74229V14.4995H6.01929C5.88668 14.4995 5.7595 14.4468 5.66574 14.3531C5.57197 14.2593 5.51929 14.1321 5.51929 13.9995C5.51929 13.8669 5.57197 13.7397 5.66574 13.6459C5.7595 13.5522 5.88668 13.4995 6.01929 13.4995H7.74229V11.6905H6.01929C5.88668 11.6905 5.7595 11.6378 5.66574 11.5441C5.57197 11.4503 5.51929 11.3231 5.51929 11.1905C5.51929 11.0579 5.57197 10.9307 5.66574 10.8369C5.7595 10.7432 5.88668 10.6905 6.01929 10.6905H7.74229V8.882H6.01929C5.88668 8.882 5.7595 8.82932 5.66574 8.73555C5.57197 8.64179 5.51929 8.51461 5.51929 8.382C5.51929 8.24939 5.57197 8.12221 5.66574 8.02845C5.7595 7.93468 5.88668 7.882 6.01929 7.882H7.74229V6.073H6.01929C5.88668 6.073 5.7595 6.02032 5.66574 5.92655C5.57197 5.83279 5.51929 5.70561 5.51929 5.573C5.51929 5.44039 5.57197 5.31321 5.66574 5.21945C5.7595 5.12568 5.88668 5.073 6.01929 5.073H7.74229V3.264H6.01929C5.88668 3.264 5.7595 3.21132 5.66574 3.11755C5.57197 3.02379 5.51929 2.89661 5.51929 2.764C5.51929 2.63139 5.57197 2.50421 5.66574 2.41045C5.7595 2.31668 5.88668 2.264 6.01929 2.264H7.74229V0H0.258789V28Z" fill="white" fill-opacity="0.7"/>
</svg>
