<svg width="20" height="21" viewBox="0 0 20 21" fill="none" xmlns="http://www.w3.org/2000/svg">
<path d="M18.2563 7.9003C17.8916 7.84732 17.5435 7.71276 17.238 7.50663C16.9326 7.30049 16.6775 7.0281 16.4919 6.70973C16.3063 6.39136 16.1949 6.03522 16.166 5.66783C16.1371 5.30044 16.1915 4.93127 16.325 4.5878C16.4099 4.36325 16.4224 4.11776 16.3608 3.88575C16.2991 3.65374 16.1664 3.44684 15.9813 3.29405C15.1638 2.60759 14.2333 2.06832 13.2313 1.7003C13.0031 1.61554 12.754 1.60495 12.5194 1.67004C12.2849 1.73512 12.0769 1.87257 11.925 2.0628C11.6964 2.35508 11.4043 2.59148 11.0708 2.75406C10.7372 2.91663 10.3711 3.00113 10 3.00113C9.62897 3.00113 9.26279 2.91663 8.92926 2.75406C8.59572 2.59148 8.30359 2.35508 8.07501 2.0628C7.92315 1.87257 7.71513 1.73512 7.48059 1.67004C7.24604 1.60495 6.99694 1.61554 6.76876 1.7003C5.84356 2.04007 4.97851 2.52534 4.20626 3.1378C4.0116 3.2919 3.87139 3.50428 3.80616 3.74383C3.74093 3.98338 3.75411 4.23753 3.84376 4.46905C3.98799 4.8216 4.04757 5.20305 4.01775 5.5828C3.98792 5.96254 3.86951 6.33001 3.67201 6.65573C3.47452 6.98144 3.20343 7.25634 2.88051 7.45836C2.55758 7.66039 2.1918 7.78392 1.81251 7.81905C1.56627 7.84538 1.33498 7.95007 1.15271 8.11772C0.970433 8.28537 0.846801 8.50711 0.800014 8.7503C0.683637 9.32636 0.625014 9.9126 0.625014 10.5003C0.624158 10.9923 0.663876 11.4836 0.743764 11.969C0.783523 12.22 0.904855 12.4509 1.089 12.626C1.27315 12.8011 1.50985 12.9107 1.76251 12.9378C2.15014 12.9742 2.5234 13.1029 2.85108 13.3131C3.17875 13.5234 3.4513 13.809 3.64591 14.1462C3.84052 14.4834 3.95152 14.8623 3.96963 15.2512C3.98775 15.6401 3.91244 16.0277 3.75001 16.3815C3.64372 16.6117 3.61735 16.8708 3.6751 17.1176C3.73285 17.3645 3.8714 17.5849 4.06876 17.744C4.88133 18.418 5.80287 18.9486 6.79376 19.3128C6.92048 19.3567 7.05343 19.3799 7.18751 19.3815C7.37137 19.3811 7.55245 19.3367 7.71557 19.2519C7.87869 19.167 8.0191 19.0443 8.12501 18.894C8.34777 18.5695 8.64638 18.3042 8.99491 18.1212C9.34344 17.9383 9.73137 17.8431 10.125 17.844C10.5064 17.8445 10.8825 17.9341 11.2232 18.1055C11.5639 18.2769 11.8598 18.5255 12.0875 18.8315C12.239 19.0351 12.4535 19.1829 12.6977 19.2519C12.9418 19.3208 13.202 19.3071 13.4375 19.2128C14.3436 18.8481 15.1871 18.3441 15.9375 17.719C16.126 17.5632 16.2603 17.3516 16.3209 17.1146C16.3815 16.8776 16.3655 16.6276 16.275 16.4003C16.128 16.0523 16.0639 15.6749 16.0878 15.2978C16.1117 14.9208 16.2228 14.5545 16.4125 14.2278C16.6023 13.9011 16.8653 13.623 17.1809 13.4154C17.4966 13.2078 17.8561 13.0764 18.2313 13.0315C18.4745 12.9979 18.7007 12.8877 18.8771 12.7169C19.0536 12.5461 19.171 12.3236 19.2125 12.0815C19.3129 11.5602 19.3673 11.0311 19.375 10.5003C19.3751 9.94039 19.3228 9.3817 19.2188 8.83155C19.1766 8.59486 19.0609 8.37749 18.8881 8.21031C18.7153 8.04314 18.4942 7.93467 18.2563 7.9003ZM13.125 10.5003C13.125 11.1184 12.9417 11.7226 12.5984 12.2365C12.255 12.7504 11.7669 13.1509 11.1959 13.3874C10.6249 13.6239 9.99655 13.6858 9.39036 13.5653C8.78417 13.4447 8.22734 13.147 7.79031 12.71C7.35327 12.273 7.05564 11.7161 6.93506 11.11C6.81448 10.5038 6.87637 9.87543 7.11289 9.30441C7.34941 8.73339 7.74995 8.24534 8.26386 7.90196C8.77776 7.55858 9.38195 7.3753 10 7.3753C10.8288 7.3753 11.6237 7.70454 12.2097 8.29059C12.7958 8.87664 13.125 9.6715 13.125 10.5003Z" fill="#D2D2D5"/>
</svg>
