<svg width="24" height="24" viewBox="0 0 24 24" fill="none" xmlns="http://www.w3.org/2000/svg">
<path fill-rule="evenodd" clip-rule="evenodd" d="M13.3333 21.3333H16C16.3536 21.3333 16.6928 21.4738 16.9428 21.7239C17.1929 21.9739 17.3333 22.313 17.3333 22.6667C17.3333 23.0203 17.1929 23.3594 16.9428 23.6095C16.6928 23.8595 16.3536 24 16 24H8C7.64638 24 7.30724 23.8595 7.05719 23.6095C6.80714 23.3594 6.66667 23.0203 6.66667 22.6667C6.66667 22.313 6.80714 21.9739 7.05719 21.7239C7.30724 21.4738 7.64638 21.3333 8 21.3333H10.6667V2.66667H2.66667V5.33333C2.66667 5.68696 2.52619 6.02609 2.27614 6.27614C2.02609 6.52619 1.68696 6.66667 1.33333 6.66667C0.979711 6.66667 0.640573 6.52619 0.390524 6.27614C0.140476 6.02609 0 5.68696 0 5.33333V1.33333C0 0.979711 0.140476 0.640573 0.390524 0.390524C0.640573 0.140476 0.979711 0 1.33333 0H22.6667C23.0203 0 23.3594 0.140476 23.6095 0.390524C23.8595 0.640573 24 0.979711 24 1.33333V5.33333C24 5.68696 23.8595 6.02609 23.6095 6.27614C23.3594 6.52619 23.0203 6.66667 22.6667 6.66667C22.313 6.66667 21.9739 6.52619 21.7239 6.27614C21.4738 6.02609 21.3333 5.68696 21.3333 5.33333V2.66667H13.3333V21.3333Z" fill="white" fill-opacity="0.7"/>
</svg>
