<svg width="28" height="28" viewBox="0 0 28 28" fill="none" xmlns="http://www.w3.org/2000/svg">
<path d="M14 0C6.28 0 0 6.28 0 14C0 21.72 6.28 28 14 28C21.72 28 28 21.72 28 14C28 6.28 21.72 0 14 0ZM14 24C8.49 24 4 19.51 4 14C4 8.49 8.49 4 14 4C19.51 4 24 8.49 24 14C24 19.51 19.51 24 14 24Z" fill="white" fill-opacity="0.7"/>
<path d="M14 6C9.59 6 6 9.59 6 14C6 18.41 9.59 22 14 22C18.41 22 22 18.41 22 14C22 9.59 18.41 6 14 6ZM18.24 15.27L17.09 15.9C16.59 16.17 16.18 16.58 15.9 17.09L15.27 18.24C15.01 18.7 14.53 18.99 14 18.99C13.47 18.99 12.99 18.7 12.73 18.24L12.1 17.09C11.82 16.58 11.41 16.17 10.91 15.9L9.76 15.27C9.29 15.02 9 14.53 9 14C9 13.47 9.29 12.98 9.76 12.73L10.91 12.1C11.41 11.83 11.82 11.42 12.1 10.91L12.73 9.76C12.99 9.3 13.47 9.01 14 9.01C14.53 9.01 15.01 9.3 15.27 9.76L15.9 10.91C16.18 11.41 16.59 11.83 17.09 12.1L18.24 12.73C18.71 12.98 19 13.47 19 14C19 14.53 18.71 15.02 18.24 15.27Z" fill="white" fill-opacity="0.7"/>
</svg>
