<svg width="203" height="60" viewBox="0 0 203 60" fill="none" xmlns="http://www.w3.org/2000/svg">
<rect x="0.75" y="0.75" width="201" height="58.5" rx="9.75" fill="black"/>
<rect x="0.75" y="0.75" width="201" height="58.5" rx="9.75" stroke="#A6A6A6" stroke-width="1.5"/>
<path d="M122.29 28.8025V32.239H120.136V34.4927H122.29V42.1502C122.29 44.7649 123.473 45.8108 126.449 45.8108C126.972 45.8108 127.47 45.7486 127.905 45.6738V43.4451C127.532 43.4824 127.295 43.5073 126.884 43.5073C125.552 43.5073 124.967 42.8848 124.967 41.4654V34.4927H127.905V32.239H124.967V28.8025H122.29Z" fill="white"/>
<path d="M135.486 45.9976C139.446 45.9976 141.874 43.3455 141.874 38.9502C141.874 34.5799 139.433 31.9153 135.486 31.9153C131.527 31.9153 129.086 34.5799 129.086 38.9502C129.086 43.3455 131.514 45.9976 135.486 45.9976ZM135.486 43.6194C133.158 43.6194 131.851 41.9136 131.851 38.9502C131.851 36.0117 133.158 34.2935 135.486 34.2935C137.802 34.2935 139.122 36.0117 139.122 38.9502C139.122 41.9011 137.802 43.6194 135.486 43.6194Z" fill="white"/>
<path d="M143.951 45.7361H146.628V37.73C146.628 35.825 148.06 34.5425 150.089 34.5425C150.563 34.5425 151.359 34.6297 151.584 34.7044V32.0647C151.297 31.99 150.787 31.9527 150.388 31.9527C148.62 31.9527 147.114 32.9238 146.728 34.2561H146.528V32.1768H143.951V45.7361Z" fill="white"/>
<path d="M158.231 34.1939C160.21 34.1939 161.505 35.5759 161.567 37.7051H154.719C154.869 35.5884 156.251 34.1939 158.231 34.1939ZM161.555 42.0755C161.057 43.1338 159.949 43.719 158.33 43.719C156.189 43.719 154.806 42.2124 154.719 39.8342V39.6848H164.294V38.751C164.294 34.4927 162.016 31.9153 158.243 31.9153C154.42 31.9153 151.993 34.667 151.993 39C151.993 43.333 154.371 45.9976 158.255 45.9976C161.356 45.9976 163.522 44.5034 164.132 42.0755H161.555Z" fill="white"/>
<path d="M104.735 40.7289C104.941 44.0584 107.716 46.1878 111.845 46.1878C116.259 46.1878 119.021 43.9552 119.021 40.3933C119.021 37.5929 117.446 36.0442 113.626 35.1538L111.574 34.6505C109.148 34.0826 108.167 33.3212 108.167 31.992C108.167 30.3143 109.69 29.2174 111.974 29.2174C114.143 29.2174 115.64 30.2885 115.911 32.0049H118.724C118.556 28.8689 115.794 26.6621 112.013 26.6621C107.948 26.6621 105.238 28.8689 105.238 32.1856C105.238 34.9215 106.774 36.5475 110.142 37.3348L112.542 37.9155C115.007 38.4962 116.091 39.348 116.091 40.7676C116.091 42.4194 114.388 43.6196 112.065 43.6196C109.574 43.6196 107.845 42.4969 107.6 40.7289H104.735Z" fill="white"/>
<path d="M77.0036 31.9527C75.1608 31.9527 73.5671 32.874 72.7453 34.418H72.5461V32.1768H69.9687V50.2434H72.6457V43.6817H72.8574C73.5671 45.1135 75.0986 45.9602 77.0285 45.9602C80.4526 45.9602 82.6315 43.2583 82.6315 38.9502C82.6315 34.6421 80.4526 31.9527 77.0036 31.9527ZM76.2441 43.5571C74.0029 43.5571 72.5959 41.7891 72.5959 38.9627C72.5959 36.1238 74.0029 34.3557 76.2565 34.3557C78.5227 34.3557 79.8798 36.0864 79.8798 38.9502C79.8798 41.8264 78.5227 43.5571 76.2441 43.5571Z" fill="white"/>
<path d="M91.9988 31.9527C90.156 31.9527 88.5623 32.874 87.7405 34.418H87.5413V32.1768H84.9639V50.2434H87.6409V43.6817H87.8526C88.5623 45.1135 90.0938 45.9602 92.0237 45.9602C95.4478 45.9602 97.6267 43.2583 97.6267 38.9502C97.6267 34.6421 95.4478 31.9527 91.9988 31.9527ZM91.2393 43.5571C88.9981 43.5571 87.5911 41.7891 87.5911 38.9627C87.5911 36.1238 88.9981 34.3557 91.2517 34.3557C93.5179 34.3557 94.875 36.0864 94.875 38.9502C94.875 41.8264 93.5179 43.5571 91.2393 43.5571Z" fill="white"/>
<path d="M65.1657 45.7361H68.2372L61.5135 27.1138H58.4033L51.6797 45.7361H54.6479L56.3643 40.7934H63.4622L65.1657 45.7361ZM59.81 30.495H60.0294L62.7266 38.3672H57.0999L59.81 30.495Z" fill="white"/>
<path d="M53.4805 13.0651V22.0486H56.724C59.401 22.0486 60.9512 20.3988 60.9512 17.5288C60.9512 14.7024 59.3885 13.0651 56.724 13.0651H53.4805ZM54.875 14.3351H56.5684C58.4298 14.3351 59.5317 15.5179 59.5317 17.5475C59.5317 19.6082 58.4485 20.7786 56.5684 20.7786H54.875V14.3351Z" fill="white"/>
<path d="M65.6988 22.1793C67.6785 22.1793 68.8925 20.8533 68.8925 18.6556C68.8925 16.4705 67.6723 15.1382 65.6988 15.1382C63.7191 15.1382 62.4989 16.4705 62.4989 18.6556C62.4989 20.8533 63.7128 22.1793 65.6988 22.1793ZM65.6988 20.9902C64.5346 20.9902 63.8809 20.1373 63.8809 18.6556C63.8809 17.1864 64.5346 16.3273 65.6988 16.3273C66.8568 16.3273 67.5167 17.1864 67.5167 18.6556C67.5167 20.1311 66.8568 20.9902 65.6988 20.9902Z" fill="white"/>
<path d="M79.2307 15.2689H77.8922L76.6845 20.4424H76.5786L75.1841 15.2689H73.9016L72.5071 20.4424H72.4075L71.1935 15.2689H69.8363L71.704 22.0486H73.0799L74.4744 17.0557H74.5802L75.981 22.0486H77.3693L79.2307 15.2689Z" fill="white"/>
<path d="M80.7722 22.0486H82.1107V18.0829C82.1107 17.0245 82.7395 16.3646 83.7293 16.3646C84.7192 16.3646 85.1924 16.9062 85.1924 17.9957V22.0486H86.5309V17.6595C86.5309 16.0471 85.6966 15.1382 84.1838 15.1382C83.1628 15.1382 82.4905 15.5927 82.1605 16.3459H82.0609V15.2689H80.7722V22.0486Z" fill="white"/>
<path d="M88.6388 22.0486H89.9773V12.623H88.6388V22.0486Z" fill="white"/>
<path d="M95.0114 22.1793C96.9911 22.1793 98.2051 20.8533 98.2051 18.6556C98.2051 16.4705 96.9849 15.1382 95.0114 15.1382C93.0316 15.1382 91.8114 16.4705 91.8114 18.6556C91.8114 20.8533 93.0254 22.1793 95.0114 22.1793ZM95.0114 20.9902C93.8472 20.9902 93.1935 20.1373 93.1935 18.6556C93.1935 17.1864 93.8472 16.3273 95.0114 16.3273C96.1693 16.3273 96.8292 17.1864 96.8292 18.6556C96.8292 20.1311 96.1693 20.9902 95.0114 20.9902Z" fill="white"/>
<path d="M102.193 21.0338C101.465 21.0338 100.936 20.679 100.936 20.0688C100.936 19.4712 101.359 19.1537 102.293 19.0914L103.949 18.9856V19.5521C103.949 20.3926 103.202 21.0338 102.193 21.0338ZM101.851 22.1606C102.741 22.1606 103.482 21.7747 103.887 21.0961H103.992V22.0486H105.281V17.4167C105.281 15.9849 104.322 15.1382 102.623 15.1382C101.085 15.1382 99.9893 15.8853 99.8524 17.0494H101.147C101.297 16.5701 101.813 16.2961 102.56 16.2961C103.476 16.2961 103.949 16.7008 103.949 17.4167V18.002L102.112 18.1078C100.5 18.2074 99.5909 18.9109 99.5909 20.1311C99.5909 21.37 100.543 22.1606 101.851 22.1606Z" fill="white"/>
<path d="M109.823 22.1606C110.757 22.1606 111.548 21.7186 111.952 20.9778H112.058V22.0486H113.341V12.623H112.002V16.3459H111.903C111.535 15.5989 110.751 15.1569 109.823 15.1569C108.111 15.1569 107.009 16.514 107.009 18.6556C107.009 20.8035 108.099 22.1606 109.823 22.1606ZM110.203 16.3584C111.324 16.3584 112.027 17.2487 112.027 18.6619C112.027 20.0813 111.33 20.9591 110.203 20.9591C109.07 20.9591 108.391 20.0938 108.391 18.6556C108.391 17.23 109.076 16.3584 110.203 16.3584Z" fill="white"/>
<path d="M122.02 22.1793C124 22.1793 125.214 20.8533 125.214 18.6556C125.214 16.4705 123.994 15.1382 122.02 15.1382C120.041 15.1382 118.82 16.4705 118.82 18.6556C118.82 20.8533 120.034 22.1793 122.02 22.1793ZM122.02 20.9902C120.856 20.9902 120.203 20.1373 120.203 18.6556C120.203 17.1864 120.856 16.3273 122.02 16.3273C123.178 16.3273 123.838 17.1864 123.838 18.6556C123.838 20.1311 123.178 20.9902 122.02 20.9902Z" fill="white"/>
<path d="M126.986 22.0486H128.324V18.0829C128.324 17.0245 128.953 16.3646 129.943 16.3646C130.933 16.3646 131.406 16.9062 131.406 17.9957V22.0486H132.745V17.6595C132.745 16.0471 131.91 15.1382 130.398 15.1382C129.377 15.1382 128.704 15.5927 128.374 16.3459H128.275V15.2689H126.986V22.0486Z" fill="white"/>
<path d="M138.909 13.5818V15.3H137.832V16.4269H138.909V20.2556C138.909 21.563 139.501 22.0859 140.989 22.0859C141.25 22.0859 141.499 22.0548 141.717 22.0175V20.9031C141.53 20.9218 141.412 20.9342 141.206 20.9342C140.54 20.9342 140.248 20.6229 140.248 19.9132V16.4269H141.717V15.3H140.248V13.5818H138.909Z" fill="white"/>
<path d="M143.514 22.0486H144.852V18.0891C144.852 17.0619 145.462 16.3708 146.558 16.3708C147.504 16.3708 148.009 16.9187 148.009 18.002V22.0486H149.347V17.672C149.347 16.0596 148.457 15.1444 147.012 15.1444C145.991 15.1444 145.275 15.5989 144.946 16.3584H144.84V12.623H143.514V22.0486Z" fill="white"/>
<path d="M154.176 16.2775C155.165 16.2775 155.813 16.9685 155.844 18.0331H152.42C152.495 16.9747 153.186 16.2775 154.176 16.2775ZM155.838 20.2183C155.589 20.7474 155.035 21.04 154.225 21.04C153.155 21.04 152.464 20.2867 152.42 19.0977V19.0229H157.207V18.556C157.207 16.4269 156.068 15.1382 154.182 15.1382C152.271 15.1382 151.057 16.514 151.057 18.6805C151.057 20.847 152.246 22.1793 154.188 22.1793C155.738 22.1793 156.821 21.4323 157.127 20.2183H155.838Z" fill="white"/>
<path d="M37.155 30.4506C37.1874 27.9291 38.5416 25.5432 40.6898 24.2225C39.3346 22.287 37.0647 21.0599 34.7031 20.986C32.1842 20.7216 29.7423 22.4933 28.4587 22.4933C27.1503 22.4933 25.174 21.0123 23.046 21.056C20.2721 21.1457 17.6861 22.7227 16.3366 25.1478C13.4356 30.1705 15.5995 37.5521 18.3784 41.612C19.7687 43.6 21.3936 45.8207 23.5198 45.7419C25.6004 45.6556 26.3775 44.4152 28.8889 44.4152C31.3771 44.4152 32.1061 45.7419 34.2754 45.6918C36.508 45.6556 37.9146 43.695 39.2562 41.6881C40.2551 40.2716 41.0238 38.706 41.5338 37.0494C38.9101 35.9397 37.158 33.2993 37.155 30.4506Z" fill="white"/>
<path d="M33.0575 18.316C34.2747 16.8547 34.8745 14.9764 34.7292 13.0801C32.8695 13.2754 31.1516 14.1642 29.9179 15.5695C28.7114 16.9425 28.0836 18.7877 28.2023 20.6116C30.0627 20.6307 31.8917 19.766 33.0575 18.316Z" fill="white"/>
</svg>
