<svg width="20" height="20" viewBox="0 0 20 20" fill="none" xmlns="http://www.w3.org/2000/svg">
<path d="M1 3.75H5.25V5C5.25 5.414 5.586 5.75 6 5.75C6.414 5.75 6.75 5.414 6.75 5V1C6.75 0.586 6.414 0.25 6 0.25C5.586 0.25 5.25 0.586 5.25 1V2.25H1C0.586 2.25 0.25 2.586 0.25 3C0.25 3.414 0.586 3.75 1 3.75ZM10 3.75H19C19.414 3.75 19.75 3.414 19.75 3C19.75 2.586 19.414 2.25 19 2.25H10C9.586 2.25 9.25 2.586 9.25 3C9.25 3.414 9.586 3.75 10 3.75ZM1 10.75H10C10.414 10.75 10.75 10.414 10.75 10C10.75 9.586 10.414 9.25 10 9.25H1C0.586 9.25 0.25 9.586 0.25 10C0.25 10.414 0.586 10.75 1 10.75ZM19 9.25H14.75V8C14.75 7.586 14.414 7.25 14 7.25C13.586 7.25 13.25 7.586 13.25 8V12C13.25 12.414 13.586 12.75 14 12.75C14.414 12.75 14.75 12.414 14.75 12V10.75H19C19.414 10.75 19.75 10.414 19.75 10C19.75 9.586 19.414 9.25 19 9.25ZM6 14.25C5.586 14.25 5.25 14.586 5.25 15V16.25H1C0.586 16.25 0.25 16.586 0.25 17C0.25 17.414 0.586 17.75 1 17.75H5.25V19C5.25 19.414 5.586 19.75 6 19.75C6.414 19.75 6.75 19.414 6.75 19V15C6.75 14.586 6.414 14.25 6 14.25ZM19 16.25H10C9.586 16.25 9.25 16.586 9.25 17C9.25 17.414 9.586 17.75 10 17.75H19C19.414 17.75 19.75 17.414 19.75 17C19.75 16.586 19.414 16.25 19 16.25Z" fill="#070707"/>
</svg>
