<svg width="32" height="28" viewBox="0 0 32 28" fill="none" xmlns="http://www.w3.org/2000/svg">
<path d="M23.4386 9.37732L18.3018 26.5002L32 9.37732H23.4386ZM8.56144 9.37732H0L13.6982 26.5002L8.56144 9.37732ZM31.6852 7.48976L24.8655 0.67007C24.7784 0.583017 24.6751 0.513964 24.5613 0.466855C24.4476 0.419745 24.3257 0.395501 24.2026 0.395508H20.7301L23.3904 7.48976H31.6852ZM8.60956 7.48976L11.2699 0.395508H7.79738C7.54875 0.395508 7.31025 0.494258 7.13444 0.67007L0.314813 7.48976H8.60956ZM21.4679 9.37732H10.5321L16 27.6036L21.4679 9.37732ZM10.6255 7.48976H21.3745L18.7141 0.395508H13.2859L10.6255 7.48976Z" fill="#F9C80E"/>
</svg>
