<svg width="203" height="60" viewBox="0 0 203 60" fill="none" xmlns="http://www.w3.org/2000/svg">
<rect x="1.25" y="0.75" width="201" height="58.5" rx="6.75" fill="black"/>
<rect x="1.25" y="0.75" width="201" height="58.5" rx="6.75" stroke="#A6A6A6" stroke-width="1.5"/>
<path d="M102.707 32.6263C99.1794 32.6263 96.3039 35.3098 96.3039 39.0058C96.3039 42.6793 99.1794 45.3853 102.707 45.3853C106.237 45.3853 109.112 42.6793 109.112 39.0058C109.111 35.3098 106.235 32.6263 102.707 32.6263ZM102.707 42.8743C100.774 42.8743 99.1074 41.2798 99.1074 39.0073C99.1074 36.7108 100.775 35.1403 102.707 35.1403C104.641 35.1403 106.307 36.7108 106.307 39.0073C106.307 41.2783 104.641 42.8743 102.707 42.8743ZM88.7364 32.6263C85.2084 32.6263 82.3329 35.3098 82.3329 39.0058C82.3329 42.6793 85.2084 45.3853 88.7364 45.3853C92.2659 45.3853 95.1414 42.6793 95.1414 39.0058C95.1414 35.3098 92.2659 32.6263 88.7364 32.6263ZM88.7364 42.8743C86.8029 42.8743 85.1364 41.2798 85.1364 39.0073C85.1364 36.7108 86.8044 35.1403 88.7364 35.1403C90.6699 35.1403 92.3364 36.7108 92.3364 39.0073C92.3379 41.2783 90.6699 42.8743 88.7364 42.8743ZM72.1194 34.5853V37.2913H78.5964C78.4029 38.8138 77.8959 39.9253 77.1219 40.6978C76.1799 41.6398 74.7054 42.6793 72.1194 42.6793C68.1324 42.6793 65.0154 39.4648 65.0154 35.4778C65.0154 31.4908 68.1324 28.2763 72.1194 28.2763C74.2704 28.2763 75.8409 29.1223 77.0004 30.2098L78.9099 28.3003C77.2899 26.7538 75.1404 25.5703 72.1194 25.5703C66.6579 25.5703 62.0664 30.0163 62.0664 35.4778C62.0664 40.9393 66.6579 45.3853 72.1194 45.3853C75.0669 45.3853 77.2914 44.4178 79.0299 42.6058C80.8179 40.8178 81.3744 38.3038 81.3744 36.2743C81.3744 35.6473 81.3264 35.0668 81.2289 34.5838H72.1194V34.5853ZM140.081 36.6868C139.55 35.2618 137.93 32.6263 134.62 32.6263C131.333 32.6263 128.602 35.2123 128.602 39.0058C128.602 42.5818 131.309 45.3853 134.933 45.3853C137.857 45.3853 139.549 43.5973 140.251 42.5578L138.076 41.1073C137.351 42.1708 136.36 42.8713 134.933 42.8713C133.508 42.8713 132.493 42.2188 131.84 40.9378L140.371 37.4098L140.081 36.6868ZM131.381 38.8138C131.309 36.3478 133.291 35.0923 134.717 35.0923C135.829 35.0923 136.771 35.6488 137.086 36.4453L131.381 38.8138ZM124.447 44.9998H127.249V26.2483H124.447V44.9998ZM119.854 34.0528H119.758C119.129 33.3028 117.92 32.6263 116.399 32.6263C113.209 32.6263 110.285 35.4298 110.285 39.0313C110.285 42.6073 113.209 45.3868 116.399 45.3868C117.922 45.3868 119.129 44.7103 119.758 43.9378H119.854V44.8558C119.854 47.2963 118.549 48.6013 116.447 48.6013C114.731 48.6013 113.668 47.3698 113.233 46.3303L110.792 47.3458C111.493 49.0363 113.353 51.1153 116.447 51.1153C119.734 51.1153 122.513 49.1818 122.513 44.4688V33.0148H119.855V34.0528H119.854ZM116.641 42.8743C114.707 42.8743 113.089 41.2543 113.089 39.0313C113.089 36.7828 114.707 35.1403 116.641 35.1403C118.549 35.1403 120.047 36.7828 120.047 39.0313C120.047 41.2543 118.549 42.8743 116.641 42.8743ZM153.212 26.2483H146.506V44.9998H149.303V37.8958H153.211C156.313 37.8958 159.364 35.6503 159.364 32.0728C159.364 28.4953 156.314 26.2483 153.212 26.2483ZM153.284 35.2858H149.303V28.8583H153.284C155.377 28.8583 156.565 30.5908 156.565 32.0728C156.565 33.5248 155.377 35.2858 153.284 35.2858ZM170.582 32.5933C168.556 32.5933 166.457 33.4858 165.589 35.4643L168.073 36.5008C168.604 35.4643 169.594 35.1253 170.63 35.1253C172.078 35.1253 173.549 35.9938 173.573 37.5373V37.7308C173.066 37.4413 171.98 37.0078 170.654 37.0078C167.977 37.0078 165.25 38.4793 165.25 41.2288C165.25 43.7383 167.446 45.3538 169.906 45.3538C171.787 45.3538 172.825 44.5093 173.476 43.5193H173.572V44.9668H176.275V37.7773C176.276 34.4503 173.789 32.5933 170.582 32.5933ZM170.243 42.8698C169.328 42.8698 168.049 42.4108 168.049 41.2768C168.049 39.8293 169.642 39.2743 171.017 39.2743C172.246 39.2743 172.826 39.5398 173.573 39.9013C173.356 41.6398 171.86 42.8698 170.243 42.8698ZM186.118 33.0028L182.909 41.1328H182.813L179.483 33.0028H176.468L181.462 44.3653L178.615 50.6863H181.534L189.23 33.0028H186.118ZM160.909 44.9998H163.706V26.2483H160.909V44.9998Z" fill="white"/>
<path d="M71.6263 15.3638C71.6263 16.6208 71.2543 17.6213 70.5088 18.3683C69.6628 19.2563 68.5588 19.7003 67.2028 19.7003C65.9038 19.7003 64.7983 19.2503 63.8908 18.3503C62.9818 17.4488 62.5273 16.3328 62.5273 15.0008C62.5273 13.6673 62.9818 12.5513 63.8908 11.6513C64.7983 10.7498 65.9038 10.2998 67.2028 10.2998C67.8478 10.2998 68.4643 10.4258 69.0493 10.6763C69.6358 10.9283 70.1053 11.2628 70.4563 11.6813L69.6658 12.4733C69.0703 11.7608 68.2498 11.4053 67.2013 11.4053C66.2533 11.4053 65.4343 11.7383 64.7428 12.4043C64.0513 13.0703 63.7063 13.9358 63.7063 14.9993C63.7063 16.0628 64.0513 16.9283 64.7428 17.5943C65.4343 18.2603 66.2533 18.5933 67.2013 18.5933C68.2063 18.5933 69.0448 18.2588 69.7153 17.5883C70.1503 17.1518 70.4023 16.5443 70.4698 15.7658H67.2013V14.6843H71.5618C71.6068 14.9198 71.6263 15.1463 71.6263 15.3638Z" fill="white"/>
<path d="M78.5415 11.6049H74.4435V14.4579H78.1395V15.5394H74.4435V18.3924H78.5415V19.4994H73.287V10.4994H78.5415V11.6049Z" fill="white"/>
<path d="M83.4178 19.4994H82.2613V11.6049H79.7473V10.4994H85.9318V11.6049H83.4178V19.4994Z" fill="white"/>
<path d="M90.4063 19.4994V10.4994H91.5627V19.4994H90.4063Z" fill="white"/>
<path d="M96.6915 19.4994H95.535V11.6049H93.021V10.4994H99.2055V11.6049H96.6915V19.4994Z" fill="white"/>
<path d="M110.913 18.3369C110.028 19.2459 108.928 19.7004 107.613 19.7004C106.297 19.7004 105.198 19.2459 104.314 18.3369C103.429 17.4279 102.988 16.3149 102.988 14.9994C102.988 13.6839 103.429 12.5709 104.314 11.6619C105.198 10.7529 106.297 10.2969 107.613 10.2969C108.921 10.2969 110.019 10.7544 110.907 11.6679C111.795 12.5814 112.239 13.6914 112.239 14.9994C112.239 16.3149 111.796 17.4279 110.913 18.3369ZM105.168 17.5824C105.834 18.2574 106.648 18.5934 107.613 18.5934C108.577 18.5934 109.393 18.2559 110.058 17.5824C110.724 16.9074 111.058 16.0464 111.058 14.9994C111.058 13.9524 110.724 13.0914 110.058 12.4164C109.393 11.7414 108.577 11.4054 107.613 11.4054C106.648 11.4054 105.834 11.7429 105.168 12.4164C104.503 13.0914 104.169 13.9524 104.169 14.9994C104.169 16.0464 104.503 16.9074 105.168 17.5824Z" fill="white"/>
<path d="M113.862 19.4994V10.4994H115.269L119.643 17.4999H119.692L119.643 15.7659V10.4994H120.799V19.4994H119.592L115.015 12.1584H114.966L115.015 13.8924V19.4994H113.862Z" fill="white"/>
<path d="M71.6263 15.3638C71.6263 16.6208 71.2543 17.6213 70.5088 18.3683C69.6628 19.2563 68.5588 19.7003 67.2028 19.7003C65.9038 19.7003 64.7983 19.2503 63.8908 18.3503C62.9818 17.4488 62.5273 16.3328 62.5273 15.0008C62.5273 13.6673 62.9818 12.5513 63.8908 11.6513C64.7983 10.7498 65.9038 10.2998 67.2028 10.2998C67.8478 10.2998 68.4643 10.4258 69.0493 10.6763C69.6358 10.9283 70.1053 11.2628 70.4563 11.6813L69.6658 12.4733C69.0703 11.7608 68.2498 11.4053 67.2013 11.4053C66.2533 11.4053 65.4343 11.7383 64.7428 12.4043C64.0513 13.0703 63.7063 13.9358 63.7063 14.9993C63.7063 16.0628 64.0513 16.9283 64.7428 17.5943C65.4343 18.2603 66.2533 18.5933 67.2013 18.5933C68.2063 18.5933 69.0448 18.2588 69.7153 17.5883C70.1503 17.1518 70.4023 16.5443 70.4698 15.7658H67.2013V14.6843H71.5618C71.6068 14.9198 71.6263 15.1463 71.6263 15.3638Z" stroke="white" stroke-width="0.3" stroke-miterlimit="10"/>
<path d="M78.5415 11.6049H74.4435V14.4579H78.1395V15.5394H74.4435V18.3924H78.5415V19.4994H73.287V10.4994H78.5415V11.6049Z" stroke="white" stroke-width="0.3" stroke-miterlimit="10"/>
<path d="M83.4178 19.4994H82.2613V11.6049H79.7473V10.4994H85.9318V11.6049H83.4178V19.4994Z" stroke="white" stroke-width="0.3" stroke-miterlimit="10"/>
<path d="M90.4063 19.4994V10.4994H91.5627V19.4994H90.4063Z" stroke="white" stroke-width="0.3" stroke-miterlimit="10"/>
<path d="M96.6915 19.4994H95.535V11.6049H93.021V10.4994H99.2055V11.6049H96.6915V19.4994Z" stroke="white" stroke-width="0.3" stroke-miterlimit="10"/>
<path d="M110.913 18.3369C110.028 19.2459 108.928 19.7004 107.613 19.7004C106.297 19.7004 105.198 19.2459 104.314 18.3369C103.429 17.4279 102.988 16.3149 102.988 14.9994C102.988 13.6839 103.429 12.5709 104.314 11.6619C105.198 10.7529 106.297 10.2969 107.613 10.2969C108.921 10.2969 110.019 10.7544 110.907 11.6679C111.795 12.5814 112.239 13.6914 112.239 14.9994C112.239 16.3149 111.796 17.4279 110.913 18.3369ZM105.168 17.5824C105.834 18.2574 106.648 18.5934 107.613 18.5934C108.577 18.5934 109.393 18.2559 110.058 17.5824C110.724 16.9074 111.058 16.0464 111.058 14.9994C111.058 13.9524 110.724 13.0914 110.058 12.4164C109.393 11.7414 108.577 11.4054 107.613 11.4054C106.648 11.4054 105.834 11.7429 105.168 12.4164C104.503 13.0914 104.169 13.9524 104.169 14.9994C104.169 16.0464 104.503 16.9074 105.168 17.5824Z" stroke="white" stroke-width="0.3" stroke-miterlimit="10"/>
<path d="M113.862 19.4994V10.4994H115.269L119.643 17.4999H119.692L119.643 15.7659V10.4994H120.799V19.4994H119.592L115.015 12.1584H114.966L115.015 13.8924V19.4994H113.862Z" stroke="white" stroke-width="0.3" stroke-miterlimit="10"/>
<g filter="url(#filter0_ii_2603_8676)">
<path d="M16.1554 11.3068C15.7189 11.7688 15.4609 12.4858 15.4609 13.4143V46.5883C15.4609 47.5183 15.7189 48.2338 16.1554 48.6958L16.2664 48.8038L34.8499 30.2203V30.0013V29.7823L16.2664 11.1973L16.1554 11.3068Z" fill="url(#paint0_linear_2603_8676)"/>
<path d="M41.0451 36.4154L34.8516 30.2189V29.9999V29.7809L41.0466 23.5859L41.1861 23.6654L48.5256 27.8354C50.6211 29.0264 50.6211 30.9749 48.5256 32.1674L41.1861 36.3374L41.0451 36.4154Z" fill="url(#paint1_linear_2603_8676)"/>
<g filter="url(#filter1_i_2603_8676)">
<path d="M41.1853 36.338L34.8493 30.002L16.1563 48.6965C16.8463 49.4285 17.9877 49.5185 19.2733 48.7895L41.1853 36.338Z" fill="url(#paint2_linear_2603_8676)"/>
</g>
<path d="M41.1853 23.6651L19.2733 11.2151C17.9877 10.4846 16.8463 10.5761 16.1563 11.3081L34.8507 30.0026L41.1853 23.6651Z" fill="url(#paint3_linear_2603_8676)"/>
</g>
<defs>
<filter id="filter0_ii_2603_8676" x="15.4609" y="10.7109" width="34.6362" height="38.582" filterUnits="userSpaceOnUse" color-interpolation-filters="sRGB">
<feFlood flood-opacity="0" result="BackgroundImageFix"/>
<feBlend mode="normal" in="SourceGraphic" in2="BackgroundImageFix" result="shape"/>
<feColorMatrix in="SourceAlpha" type="matrix" values="0 0 0 0 0 0 0 0 0 0 0 0 0 0 0 0 0 0 127 0" result="hardAlpha"/>
<feOffset dy="-0.225"/>
<feComposite in2="hardAlpha" operator="arithmetic" k2="-1" k3="1"/>
<feColorMatrix type="matrix" values="0 0 0 0 0 0 0 0 0 0 0 0 0 0 0 0 0 0 0.12 0"/>
<feBlend mode="normal" in2="shape" result="effect1_innerShadow_2603_8676"/>
<feColorMatrix in="SourceAlpha" type="matrix" values="0 0 0 0 0 0 0 0 0 0 0 0 0 0 0 0 0 0 127 0" result="hardAlpha"/>
<feOffset dy="0.225"/>
<feComposite in2="hardAlpha" operator="arithmetic" k2="-1" k3="1"/>
<feColorMatrix type="matrix" values="0 0 0 0 1 0 0 0 0 1 0 0 0 0 1 0 0 0 0.25 0"/>
<feBlend mode="normal" in2="effect1_innerShadow_2603_8676" result="effect2_innerShadow_2603_8676"/>
</filter>
<filter id="filter1_i_2603_8676" x="16.1562" y="30.002" width="25.0291" height="19.291" filterUnits="userSpaceOnUse" color-interpolation-filters="sRGB">
<feFlood flood-opacity="0" result="BackgroundImageFix"/>
<feBlend mode="normal" in="SourceGraphic" in2="BackgroundImageFix" result="shape"/>
<feColorMatrix in="SourceAlpha" type="matrix" values="0 0 0 0 0 0 0 0 0 0 0 0 0 0 0 0 0 0 127 0" result="hardAlpha"/>
<feOffset dy="-0.225"/>
<feComposite in2="hardAlpha" operator="arithmetic" k2="-1" k3="1"/>
<feColorMatrix type="matrix" values="0 0 0 0 0 0 0 0 0 0 0 0 0 0 0 0 0 0 0.08 0"/>
<feBlend mode="normal" in2="shape" result="effect1_innerShadow_2603_8676"/>
</filter>
<linearGradient id="paint0_linear_2603_8676" x1="33.2026" y1="13.0633" x2="8.02964" y2="38.2363" gradientUnits="userSpaceOnUse">
<stop stop-color="#00A0FF"/>
<stop offset="0.0066" stop-color="#00A1FF"/>
<stop offset="0.2601" stop-color="#00BEFF"/>
<stop offset="0.5122" stop-color="#00D2FF"/>
<stop offset="0.7604" stop-color="#00DFFF"/>
<stop offset="1" stop-color="#00E3FF"/>
</linearGradient>
<linearGradient id="paint1_linear_2603_8676" x1="51.2533" y1="29.9999" x2="14.9595" y2="29.9999" gradientUnits="userSpaceOnUse">
<stop stop-color="#FFE000"/>
<stop offset="0.4087" stop-color="#FFBD00"/>
<stop offset="0.7754" stop-color="#FFA500"/>
<stop offset="1" stop-color="#FF9C00"/>
</linearGradient>
<linearGradient id="paint2_linear_2603_8676" x1="37.7444" y1="33.4428" x2="3.60666" y2="67.5806" gradientUnits="userSpaceOnUse">
<stop stop-color="#FF3A44"/>
<stop offset="1" stop-color="#C31162"/>
</linearGradient>
<linearGradient id="paint3_linear_2603_8676" x1="11.4483" y1="0.264751" x2="26.6918" y2="15.5082" gradientUnits="userSpaceOnUse">
<stop stop-color="#32A071"/>
<stop offset="0.0685" stop-color="#2DA771"/>
<stop offset="0.4762" stop-color="#15CF74"/>
<stop offset="0.8009" stop-color="#06E775"/>
<stop offset="1" stop-color="#00F076"/>
</linearGradient>
</defs>
</svg>
