<svg width="60" height="60" viewBox="0 0 60 60" fill="none" xmlns="http://www.w3.org/2000/svg">
<rect x="0.214286" y="0.214286" width="59.5714" height="59.5714" rx="4.07143" stroke="#B95BEA" stroke-opacity="0.4" stroke-width="0.428571"/>
<g opacity="0.7">
<path d="M47.3188 19.6989L43.6778 13.2976C43.6222 13.1997 43.5953 13.088 43.6002 12.9755C43.6051 12.8629 43.6417 12.754 43.7057 12.6613L47.3002 7.45503C47.3546 7.37622 47.427 7.31161 47.5116 7.2666C47.5961 7.22158 47.6901 7.19749 47.7859 7.19633C47.8816 7.19518 47.9763 7.21699 48.0618 7.25994C48.1474 7.3029 48.2215 7.36574 48.2777 7.44321L52.0802 12.678C52.1397 12.7599 52.1716 12.8587 52.1712 12.96C52.1709 13.0612 52.1383 13.1597 52.0782 13.2413L47.3188 19.6989Z" fill="url(#paint0_linear_2603_10001)"/>
<path d="M51.6904 13.1607L48.8942 14.103C48.749 14.1519 48.6203 14.2404 48.5227 14.3585C48.425 14.4765 48.3622 14.6194 48.3413 14.7712L47.7432 19.1233L51.913 13.4658C51.9379 13.4319 51.9515 13.391 51.9516 13.3489C51.9517 13.3068 51.9383 13.2657 51.9135 13.2317C51.8887 13.1977 51.8537 13.1725 51.8136 13.1597C51.7735 13.1469 51.7303 13.1473 51.6904 13.1607Z" fill="#588EDD"/>
<path d="M46.9197 9.67598L45.1018 12.3089C45.0801 12.3402 45.0662 12.3762 45.0615 12.4139C45.0567 12.4517 45.061 12.49 45.0742 12.5257C45.0874 12.5614 45.109 12.5934 45.1372 12.6189C45.1654 12.6445 45.1993 12.6628 45.2361 12.6725L47.3207 13.2216C47.3573 13.2313 47.3957 13.232 47.4326 13.2237C47.4696 13.2154 47.504 13.1984 47.533 13.174C47.562 13.1497 47.5847 13.1188 47.5993 13.0838C47.6138 13.0489 47.6198 13.0109 47.6167 12.9732L47.3499 9.79111C47.3458 9.74256 47.3269 9.69644 47.2956 9.65906C47.2644 9.62168 47.2223 9.59486 47.1753 9.58226C47.1282 9.56967 47.0784 9.57191 47.0326 9.58868C46.9869 9.60545 46.9474 9.63594 46.9197 9.67598Z" fill="white"/>
<path d="M20.8817 15.5732H16.9375V27.3757C20.9004 29.3104 24.9817 30.2028 29.2133 29.7692L34.7775 25.7673L29.9534 16.271L20.8817 15.5732Z" fill="url(#paint1_linear_2603_10001)"/>
<path d="M51.3237 14.2656L47.6172 18.8573L50.441 21.3656L51.965 17.5095C52.1097 17.149 52.183 16.7639 52.181 16.3754C52.1741 15.7202 52.0744 14.8161 51.3237 14.2656Z" fill="#C84343"/>
<path d="M45.6676 20.3047L49.254 23.8519V54.2379H47.0243V26.115C47.0242 25.5184 46.8175 24.9403 46.4394 24.4789C45.7907 23.686 44.9272 22.1742 45.6676 20.3047Z" fill="url(#paint2_linear_2603_10001)"/>
<path d="M11.3622 54.2383H13.9224L24.5248 53.231L34.7775 54.2383H39.5634L41.6345 48.1721C41.6345 48.1721 37.2477 35.434 32.2282 29.7695H13.6403C13.6403 29.7695 6.22752 43.8075 11.3622 54.2383Z" fill="url(#paint3_linear_2603_10001)"/>
<path d="M22.5987 13.1402C22.5987 13.1402 22.0185 16.3973 27.6215 18.8983C33.2246 21.3992 32.7376 26.5744 32.7376 29.7695C32.7376 29.7695 37.9242 30.8102 38.3 26.7586C38.3 26.7586 38.3 25.3629 37.3911 24.352C37.0822 24.0066 36.8481 23.601 36.7035 23.1608C36.5588 22.7206 36.5068 22.2552 36.5506 21.7939C36.6541 20.6388 36.1919 19.0354 33.7339 17.4705C33.1742 17.1177 32.7042 16.6395 32.3612 16.0737C32.0182 15.5079 31.8116 14.87 31.7577 14.2105C31.5331 11.289 30.3546 6.52246 25.0554 6.52246C25.0554 6.52246 22.2307 6.56791 20.9803 8.51367C20.9803 8.51367 18.4796 7.44853 15.8402 9.76393C14.2574 11.1527 14.0573 13.8928 14.1508 15.8622C14.1852 16.4905 14.0787 17.1186 13.8389 17.7004C13.5992 18.2822 13.2323 18.803 12.7652 19.2246C12.0906 19.8048 11.5585 20.5325 11.2101 21.3513C10.8618 22.1701 10.7064 23.0581 10.7561 23.9466C10.9414 28.3457 15.2857 29.2592 15.2857 29.2592L18.5277 28.0552C18.5277 28.0552 14.8563 19.2202 22.5987 13.1402Z" fill="url(#paint4_linear_2603_10001)"/>
<path d="M29.3438 31.9284C29.3438 31.9284 40.9213 40.5224 39.5641 54.2383H43.7777C43.7777 54.2383 45.4917 39.7184 33.5652 28.7695L29.3438 31.9284Z" fill="url(#paint5_linear_2603_10001)"/>
<path d="M15.8242 25.2314C21.1071 25.9697 26.4561 26.1127 31.7708 25.6577L32.3941 28.9594C32.3941 28.9594 19.7062 30.7074 15.8242 25.2314Z" fill="url(#paint6_linear_2603_10001)"/>
<path d="M21.417 25.5732V29.3178H25.6568V27.0173L21.417 25.5732Z" fill="url(#paint7_linear_2603_10001)"/>
<path d="M33.5652 28.7695L29.3438 31.9284C29.9353 32.3871 30.5014 32.8776 31.0395 33.3979L31.5395 33.3968C31.5395 33.3968 34.5219 33.6939 35.8238 31.0613C35.1096 30.2603 34.3558 29.4954 33.5652 28.7695Z" fill="#933E65"/>
<path d="M9.16125 36.3623C9.16125 36.3623 6.56271 45.9266 7.67027 54.2383H11.3618C11.3618 54.2383 10.0994 48.1368 11.1285 42.6069L9.16125 36.3623Z" fill="url(#paint8_linear_2603_10001)"/>
<path d="M28.7243 37.3287C30.542 39.0789 32.5119 40.664 34.6105 42.0652C35.2854 42.5075 36.0744 42.7438 36.8812 42.7452H46.6867V39.1841L38.0333 38.8736C37.3921 38.8508 36.785 38.5791 36.3409 38.1161C34.9511 36.666 31.8672 33.3568 30.5471 31.207C28.1146 31.4943 28.1748 34.1766 28.7243 37.3287Z" fill="url(#paint9_linear_2603_10001)"/>
<path d="M30.5469 31.2061C28.6496 31.4307 28.2689 33.112 28.4541 35.3368C29.1252 34.8865 29.7704 34.3989 30.3868 33.8761C30.7383 33.574 31.1862 33.4075 31.6496 33.4066H32.1459C31.569 32.706 31.035 31.9712 30.5469 31.2061Z" fill="#E78582"/>
<path d="M9.14973 35.2676C8.71608 37.1559 8.45194 39.0792 8.36045 41.0146C8.33891 41.431 8.40435 41.8474 8.55261 42.2371C8.70086 42.6269 8.92867 42.9815 9.22153 43.2783C10.3492 44.4237 12.323 46.3207 13.9223 47.2928L13.5792 48.9347C13.4909 49.3571 13.5503 49.7971 13.7474 50.181C13.9445 50.5649 14.2675 50.8695 14.6622 51.0439L15.2792 51.3166L17.712 46.6846C17.712 46.6846 13.8751 43.0817 12.6118 41.1165L13.9219 36.4842L9.14973 35.2676Z" fill="url(#paint10_linear_2603_10001)"/>
<path d="M18.4117 44.8347C18.4117 44.8347 15.0637 48.8662 13.9229 54.2387H34.778C34.778 54.2387 33.3553 47.6527 28.2335 43.9033L18.4117 44.8347Z" fill="url(#paint11_linear_2603_10001)"/>
<path d="M13.0548 39.5504L13.9219 36.4842L9.14991 35.2676C8.87494 36.4429 8.67257 37.634 8.54395 38.8341C10.0232 39.2066 11.5328 39.4463 13.0548 39.5504Z" fill="#E78582"/>
<path d="M18.4111 44.8347C18.4111 44.8347 19.1813 47.1537 22.9589 49.3025C23.3033 49.5009 23.7017 49.5851 24.0969 49.5429C24.4921 49.5008 24.8638 49.3345 25.1586 49.068C26.1954 48.121 27.7003 46.3799 28.2326 43.9033L18.4111 44.8347Z" fill="#B6CFE0"/>
<path d="M15.7979 36.7436C16.2853 37.5252 16.8798 38.2347 17.5641 38.8514C17.8346 39.105 18.0496 39.412 18.1953 39.753C18.3411 40.0939 18.4145 40.4614 18.4109 40.8322V44.8346C18.4109 44.8346 19.9764 46.3587 22.7684 47.6381C23.105 47.7919 23.4767 47.8525 23.8446 47.8135C24.2126 47.7746 24.5634 47.6375 24.8602 47.4166C26.1767 46.4466 27.3172 45.2583 28.2324 43.9032V40.2264C28.2288 39.6402 28.4148 39.0687 28.7627 38.5969C29.5092 37.6025 30.6427 35.3612 29.3432 31.9287H25.8813L15.7979 36.7436Z" fill="url(#paint12_linear_2603_10001)"/>
<path d="M29.3427 31.9287H25.8813L15.7979 36.7436C16.2853 37.5252 16.8798 38.2347 17.5641 38.8514C17.7315 39.0059 17.8769 39.1825 17.9963 39.3765C22.3448 38.7505 26.4519 36.9906 29.9046 34.274C29.8242 33.4704 29.6352 32.6815 29.3427 31.9287Z" fill="#B6CFE0"/>
<path d="M15.8238 25.2316C15.8238 25.2316 20.0325 28.7028 27.877 28.5972L28.4981 32.339C28.4981 32.339 20.7194 38.8998 10.0536 36.9756C9.59205 36.8924 9.17201 36.6561 8.86126 36.3048C8.55051 35.9536 8.36716 35.5079 8.34082 35.0396C8.28158 33.8844 8.33959 32.726 8.51398 31.5825C8.54371 31.3904 8.61419 31.207 8.72068 31.0444C8.82718 30.8819 8.96723 30.744 9.13142 30.6401C9.29561 30.5362 9.48014 30.4686 9.67261 30.4418C9.86509 30.4151 10.0611 30.4299 10.2473 30.4852L10.567 30.5793C10.6052 29.7886 10.7069 29.0022 10.8712 28.2278C10.9591 27.8162 11.1999 27.4532 11.5449 27.212C11.89 26.9709 12.3136 26.8696 12.7304 26.9286L13.8741 27.0897C13.9018 26.6592 14 26.2362 14.1648 25.8376C14.2241 25.6808 14.3165 25.5387 14.4357 25.4209C14.5549 25.3031 14.6981 25.2123 14.8555 25.1548C15.013 25.0973 15.1809 25.0744 15.348 25.0876C15.5151 25.1009 15.6774 25.15 15.8238 25.2316Z" fill="url(#paint13_linear_2603_10001)"/>
<path d="M27.1064 28.8787C27.1064 28.8787 29.4182 28.0685 31.6085 25.7882C31.7047 25.687 31.8252 25.6121 31.9585 25.5705C32.0918 25.5289 32.2336 25.522 32.3703 25.5505C32.507 25.5789 32.6342 25.6419 32.7398 25.7333C32.8454 25.8247 32.9259 25.9415 32.9737 26.0727C33.4437 27.3787 33.6479 28.7654 33.5742 30.1514C33.544 30.615 33.3474 31.0521 33.0207 31.3824C32.6939 31.7127 32.259 31.914 31.7957 31.9493L27.8721 32.266L27.1064 28.8787Z" fill="url(#paint14_linear_2603_10001)"/>
<path d="M49.2541 23.8521L43.6943 18.5554C43.363 18.2471 43.1224 17.854 42.9983 17.4188C42.8743 16.9836 42.8717 16.5227 42.9907 16.0861C43.1549 15.5184 43.5189 14.9425 44.3492 14.4775L49.962 20.4487C50.1885 20.6871 50.3485 20.9806 50.4259 21.3002C50.5034 21.6197 50.4956 21.9539 50.4035 22.2695C50.1973 22.9053 49.7949 23.4594 49.2541 23.8521Z" fill="url(#paint15_linear_2603_10001)"/>
<path d="M18.8755 28.5367C17.2805 27.7054 15.5067 26.6093 14.439 25.416C14.3174 25.5347 14.2234 25.6787 14.1638 25.8378C13.999 26.2364 13.9008 26.6593 13.873 27.0897C13.873 27.0897 15.6735 28.3774 18.5558 29.2974C18.6545 29.3293 18.7616 29.323 18.8559 29.2798C18.9502 29.2366 19.0248 29.1595 19.065 29.0639C19.1052 28.9682 19.108 28.861 19.0729 28.7634C19.0378 28.6658 18.9673 28.5849 18.8755 28.5367Z" fill="#933E65"/>
<path d="M46.4394 24.4786C46.475 24.5222 46.5077 24.5678 46.5403 24.6134H46.5415C47.2686 25.3245 47.8971 26.1298 48.4103 27.0077C48.5864 27.349 48.8893 27.6076 49.254 27.7279V23.8519L45.6676 20.3047C44.9272 22.1742 45.7907 23.686 46.4394 24.4786Z" fill="#C84343"/>
<path d="M28.338 31.3813L28.3229 31.2872C26.37 31.6754 17.3343 33.1465 10.7774 28.707C10.6664 29.3257 10.5959 29.9509 10.5664 30.5787C10.5664 30.5787 19.9184 35.283 28.338 31.3813Z" fill="#933E65"/>
<path d="M28.3506 27.6808C28.795 27.6814 29.2282 27.8203 29.5901 28.0782C29.9521 28.3361 30.2248 28.7001 30.3706 29.1199C30.5595 29.6822 30.6716 30.2674 30.7039 30.8597C30.733 31.3484 30.5951 31.8325 30.3129 32.2325C30.0306 32.6325 29.6208 32.9248 29.1507 33.0613L29.0198 33.0992C28.7475 33.1783 28.4624 33.2028 28.1806 33.1715C27.8989 33.1401 27.6261 33.0534 27.3779 32.9164C27.1298 32.7794 26.9111 32.5947 26.7345 32.3729C26.5578 32.1512 26.4267 31.8968 26.3487 31.6242C26.1619 30.9555 26.1104 30.2562 26.1972 29.5673C26.2617 29.0432 26.5169 28.5612 26.9141 28.2133C27.3113 27.8654 27.8226 27.6758 28.3506 27.6808Z" fill="#FFC564"/>
<path d="M21.417 25.5727C22.1731 26.2089 23.7062 27.2142 25.6568 27.0167V22.7334L21.417 23.4009V25.5727Z" fill="#E78582"/>
<path d="M22.5988 13.1406C21.1257 14.2682 19.911 15.698 19.0362 17.3339C19.0081 18.2317 19.0403 19.1303 19.1327 20.0238C19.2453 21.0416 19.6387 22.008 20.2689 22.815C20.9393 23.6881 21.7904 24.4059 22.7641 24.9194C22.9924 25.0363 23.247 25.0927 23.5033 25.083C23.7597 25.0734 24.0093 24.9981 24.2283 24.8644C24.9417 24.4298 25.5779 23.8796 26.111 23.2363C26.6862 22.5258 27.0701 21.6798 27.2261 20.779C23.5214 18.1879 22.357 15.6496 22.5988 13.1406Z" fill="url(#paint16_linear_2603_10001)"/>
<path d="M22.1173 20.1232C22.0806 20.1232 22.044 20.1186 22.0084 20.1097C21.8012 20.0579 21.5903 20.0225 21.3775 20.0037C21.319 19.9986 21.2621 19.9821 21.2099 19.955C21.1578 19.928 21.1115 19.8909 21.0737 19.846C21.0359 19.801 21.0073 19.749 20.9896 19.6931C20.9719 19.6371 20.9654 19.5781 20.9704 19.5196C20.9755 19.4611 20.992 19.4041 21.0191 19.352C21.0461 19.2999 21.0832 19.2536 21.1281 19.2158C21.1731 19.178 21.225 19.1494 21.281 19.1317C21.337 19.1139 21.396 19.1074 21.4545 19.1125C21.7145 19.1355 21.9722 19.1789 22.2254 19.2423C22.3314 19.2687 22.4239 19.333 22.4858 19.423C22.5476 19.513 22.5744 19.6224 22.5611 19.7308C22.5478 19.8392 22.4953 19.9389 22.4136 20.0113C22.3318 20.0836 22.2264 20.1236 22.1173 20.1237V20.1232ZM24.4586 20.1232C24.3494 20.1231 24.2441 20.0831 24.1624 20.0107C24.0806 19.9384 24.0282 19.8386 24.0149 19.7303C24.0017 19.6219 24.0284 19.5125 24.0903 19.4225C24.1521 19.3325 24.2447 19.2683 24.3506 19.2418C24.6038 19.1784 24.8615 19.135 25.1215 19.112C25.18 19.107 25.239 19.1135 25.295 19.1312C25.351 19.149 25.4029 19.1776 25.4479 19.2154C25.4928 19.2532 25.5299 19.2995 25.5569 19.3516C25.584 19.4037 25.6005 19.4607 25.6055 19.5192C25.6106 19.5777 25.604 19.6367 25.5863 19.6927C25.5686 19.7487 25.54 19.8006 25.5022 19.8456C25.4643 19.8905 25.4181 19.9276 25.3659 19.9546C25.3138 19.9817 25.2568 19.9982 25.1983 20.0032C24.9856 20.022 24.7747 20.0575 24.5675 20.1093C24.5319 20.1184 24.4953 20.123 24.4586 20.1232ZM44.1419 42.7455H46.6857V39.1843L43.8562 39.0828L44.1419 42.7455Z" fill="#E78582"/>
<path d="M48.6986 37.8223H47.4396C46.4617 37.8223 45.6689 38.615 45.6689 39.5929V42.4258C45.6689 43.4037 46.4617 44.1964 47.4396 44.1964H48.6986C49.6765 44.1964 50.4693 43.4037 50.4693 42.4258V39.5929C50.4693 38.615 49.6765 37.8223 48.6986 37.8223Z" fill="url(#paint17_linear_2603_10001)"/>
<path d="M27.2242 20.779C27.2482 20.6426 27.2679 20.5063 27.2815 20.3674C27.3337 19.8402 27.3696 19.3154 27.3892 18.7931C22.0343 16.3074 22.598 13.1406 22.598 13.1406C22.598 13.1406 21.2555 18.0623 27.2242 20.779Z" fill="#E78582"/>
<path d="M50.9904 42.4257V39.5928C50.9901 39.1775 50.877 38.7701 50.6632 38.4141C50.4495 38.058 50.1431 37.7667 49.7767 37.5712V24.0976C50.3046 23.6584 50.6956 23.0771 50.9036 22.4226C51.0012 22.0992 51.0271 21.7583 50.9794 21.4238L52.4502 17.7017C52.62 17.2785 52.7058 16.8262 52.7027 16.3702C52.6987 15.998 52.6856 14.9741 52.018 14.2039L52.7061 13.2705C52.7718 13.1813 52.8074 13.0735 52.8078 12.9627C52.8082 12.8519 52.7733 12.7438 52.7082 12.6541L48.204 6.4522C48.1555 6.38417 48.0911 6.329 48.0164 6.29148C47.9417 6.25397 47.859 6.23525 47.7755 6.23693C47.6921 6.23796 47.6101 6.25896 47.5364 6.29818C47.4628 6.3374 47.3996 6.3937 47.3522 6.46235L43.0635 12.6735C43.0077 12.7543 42.9759 12.8492 42.9716 12.9473C42.9673 13.0454 42.9908 13.1427 43.0392 13.2281L43.6541 14.3093C43.0917 14.7049 42.6811 15.2806 42.4902 15.9412C42.3429 16.4694 42.3439 17.0279 42.493 17.5556C42.6421 18.0832 42.9335 18.5597 43.3354 18.9327L45.0335 20.5505C44.473 22.497 45.4122 24.0461 46.0364 24.8089C46.3376 25.1775 46.5025 25.6387 46.5033 26.1148V37.5015C46.0051 37.7261 45.603 38.1204 45.3687 38.614L41.3151 38.4685C39.9134 35.4501 38.0448 32.6716 35.7779 30.235C37.5712 29.8084 38.6517 28.6191 38.8199 26.8062C38.8214 26.7903 38.8222 26.7741 38.8222 26.758C38.8222 26.6929 38.8102 25.149 37.7804 24.0027C37.5185 23.7111 37.3203 23.3682 37.1982 22.9959C37.0761 22.6235 37.033 22.2298 37.0714 21.8398C37.1821 20.6036 36.7417 18.7656 34.0152 17.0297C33.5247 16.7194 33.1127 16.2997 32.8115 15.8036C32.5103 15.3074 32.3281 14.7483 32.2791 14.1699C32.0444 11.1186 30.7945 6 25.0479 6C24.928 6.00197 22.2414 6.06802 20.7791 7.90092C19.9016 7.67217 17.7403 7.40342 15.4972 9.37039C13.7701 10.8853 13.5278 13.7497 13.6296 15.8859C13.6615 16.4365 13.5693 16.9873 13.3597 17.4974C13.1501 18.0076 12.8285 18.4642 12.4187 18.8333C11.6863 19.4654 11.1085 20.257 10.73 21.1473C10.3514 22.0376 10.182 23.0029 10.2349 23.9689C10.2642 25.0045 10.5607 26.015 11.0957 26.9022C10.7207 27.2138 10.4616 27.6425 10.3601 28.1193C10.2349 28.7145 10.1442 29.3164 10.0884 29.9221C9.60247 29.8624 9.11238 29.9944 8.72211 30.2901C8.33183 30.5857 8.07205 31.0218 7.99786 31.5057C7.81796 32.6843 7.75827 33.8782 7.81971 35.0688C7.84765 35.5898 8.03166 36.0903 8.34781 36.5053C7.9818 38.1159 6.16042 46.7158 7.14496 54.2392H8.19025C8.19108 54.2162 8.19032 54.1932 8.18798 54.1703C7.67973 50.3557 7.91727 46.2409 8.31402 42.9412C8.46259 43.1975 8.64282 43.4341 8.85046 43.6454C9.22918 44.0302 9.72911 44.5252 10.2908 45.0499C9.95241 49.453 10.6915 53.5278 10.8303 54.2392H11.8844C11.8844 54.2036 11.8808 54.168 11.8735 54.1331C11.3756 51.4329 11.1769 48.6861 11.2811 45.9423C11.932 46.5185 12.6191 47.0523 13.3384 47.5404L13.0692 48.8281C12.969 49.3193 13.024 49.8296 13.2265 50.2883C13.4291 50.7469 13.7691 51.1313 14.1996 51.3883C13.8754 52.2829 13.6125 53.1987 13.4126 54.1291C13.4051 54.1647 13.4014 54.2011 13.4014 54.2375H14.4579C15.3644 50.093 17.6342 46.7426 18.4852 45.5945C19.7259 46.6067 21.0931 47.4531 22.5523 48.1123C22.9738 48.3052 23.4395 48.3813 23.9006 48.3325C24.3616 48.2838 24.8011 48.1121 25.1731 47.8353C26.3859 46.9385 27.4571 45.8645 28.3506 44.6492C32.5644 48.0082 34.0355 53.4024 34.2424 54.2386H35.3003C35.3003 54.2016 35.2965 54.1647 35.2888 54.1285C35.2298 53.8558 33.8042 47.4842 28.7559 43.642V40.2261C28.7524 39.7531 28.9015 39.2915 29.1809 38.9099C29.2415 38.8293 29.3049 38.7402 29.3692 38.6436C30.9231 40.0514 32.58 41.3412 34.326 42.5021C35.0854 43.0004 35.9737 43.2663 36.882 43.2671H37.3453C38.8237 46.7055 39.4085 50.4619 39.0453 54.1869C39.0436 54.2043 39.0453 54.2212 39.0453 54.2383H40.0879C40.4462 50.5046 39.8926 46.7397 38.4746 43.2671H42.0112C43.7966 49.3172 43.265 54.1291 43.2594 54.1774C43.2579 54.1975 43.2576 54.2178 43.2584 54.238H44.3027C44.3645 53.6485 44.7634 49.1012 43.0985 43.2668H45.3087C45.5296 43.8226 45.9581 44.2707 46.5036 44.5162V54.238H47.5473V44.7182H48.6987C48.7105 44.7182 48.7218 44.7167 48.7337 44.7164V54.2383H49.7774V44.4475C50.1437 44.2518 50.4499 43.9604 50.6635 43.6044C50.8772 43.2483 50.9901 42.8409 50.9904 42.4257ZM40.1409 38.4263L38.0521 38.3506C37.5463 38.3335 37.0673 38.1189 36.7178 37.7528C35.5593 36.5442 33.5136 34.3479 32.0519 32.4409C32.5584 32.3552 33.0254 32.1131 33.3875 31.7486C33.7495 31.3841 33.9884 30.9155 34.0706 30.4083C34.0993 30.4083 34.1293 30.4105 34.1576 30.4105C34.2735 30.4105 34.3866 30.4073 34.4986 30.4027C36.7974 32.7577 38.7025 35.467 40.1409 38.4269V38.4263ZM31.2256 30.8298C31.1903 30.1907 31.0689 29.5592 30.8649 28.9525C30.713 28.5069 30.4438 28.1104 30.0858 27.8047C30.7661 27.3101 31.4016 26.7565 31.9847 26.1504C32.0204 26.1125 32.0653 26.0845 32.115 26.0692C32.1647 26.0539 32.2175 26.0517 32.2683 26.063C32.3173 26.0725 32.3628 26.0948 32.4004 26.1275C32.4379 26.1602 32.4662 26.2023 32.4824 26.2494C32.9279 27.4895 33.1219 28.806 33.0531 30.1219C33.0295 30.4595 32.8853 30.7774 32.6467 31.0175C32.4081 31.2576 32.0911 31.4038 31.7536 31.4294L31.1847 31.4748C31.224 31.2622 31.2377 31.0457 31.2256 30.8298ZM18.3108 25.0154C18.0568 23.2943 18.1521 21.5397 18.5912 19.8563C18.5986 19.9321 18.6064 20.0078 18.6145 20.0827C18.7378 21.1965 19.1686 22.2542 19.8586 23.1372C20.1719 23.5369 20.5188 23.9091 20.8954 24.2497V25.2325C20.0326 25.1756 19.171 25.1032 18.3108 25.0154ZM20.8951 26.2785V27.1125C19.972 26.8297 19.0721 26.476 18.2035 26.0545C18.9571 26.1317 19.8637 26.211 20.8951 26.2785ZM25.7731 29.0616C25.7294 29.2067 25.6983 29.3553 25.6801 29.5058C25.665 29.6398 25.6544 29.773 25.6472 29.9057C19.6012 29.816 15.4549 27.4732 14.4276 26.8283C14.477 26.5529 14.5526 26.2829 14.6533 26.0219C14.6851 25.9383 14.7339 25.8623 14.7966 25.7986C14.8593 25.7349 14.9346 25.6849 15.0176 25.6519C15.1007 25.6188 15.1897 25.6033 15.279 25.6065C15.3683 25.6096 15.456 25.6313 15.5365 25.6701C15.9856 26.0255 19.4876 28.6322 25.7719 29.0616H25.7731ZM21.9392 27.4049V25.0457C22.1316 25.1669 22.327 25.2823 22.5276 25.3844C22.8359 25.5405 23.1789 25.6154 23.5243 25.6021C23.8696 25.5889 24.2059 25.4879 24.5014 25.3087C24.719 25.1744 24.9305 25.0304 25.1352 24.8771V27.9592C24.0577 27.8533 22.9894 27.668 21.9392 27.4049ZM25.7066 22.9065C25.2104 23.504 24.6186 24.0152 23.9554 24.4194C23.8128 24.507 23.65 24.5562 23.4827 24.5622C23.3155 24.5683 23.1495 24.531 23.001 24.454C22.0962 23.9731 21.3047 23.3043 20.6795 22.4924C20.1091 21.7615 19.7532 20.8863 19.6517 19.9647C19.565 19.1365 19.533 18.3035 19.5558 17.4711C19.5558 17.4643 19.5542 17.4581 19.5541 17.4513C20.2268 16.2279 21.1041 15.1288 22.1479 14.2016C22.41 15.4296 23.4006 17.4217 26.8514 19.1128C26.8302 19.5218 26.8022 19.9254 26.7636 20.3155C26.674 21.2644 26.3062 22.1658 25.7063 22.9065H25.7066ZM27.8019 20.4185C27.8286 20.149 27.8505 19.8732 27.8693 19.5944C30.1549 20.7479 31.4748 22.4938 31.9747 25.031C31.8514 25.0526 31.7318 25.0916 31.6193 25.1467C29.8731 25.3016 28.0455 25.3841 26.1787 25.3938V23.9471C26.2926 23.8259 26.4059 23.7006 26.5154 23.5658C27.2449 22.6663 27.6925 21.5714 27.8019 20.4185ZM26.1787 26.4382C27.5578 26.4321 28.9365 26.3844 30.3127 26.2952C29.9107 26.6404 29.4885 26.9614 29.0482 27.2564C28.8219 27.194 28.5883 27.1614 28.3535 27.1594C27.9745 27.1576 27.5994 27.2359 27.2527 27.3891C26.906 27.5424 26.5957 27.7671 26.342 28.0487C26.2871 28.046 26.2332 28.0426 26.1788 28.0396L26.1787 26.4382ZM13.1122 19.6147C13.6387 19.1423 14.0523 18.5576 14.3224 17.9038C14.5925 17.25 14.7122 16.5438 14.6726 15.8376C14.5817 13.9306 14.7714 11.397 16.1858 10.1566C18.5287 8.10119 20.6891 8.95772 20.7772 8.99408C20.8906 9.04237 21.0174 9.04898 21.1352 9.01274C21.253 8.9765 21.3542 8.89975 21.4208 8.79608C22.5014 7.11452 25.0414 7.04499 25.0566 7.04469C29.7074 7.04469 30.9858 10.9635 31.2385 14.2508C31.3003 14.9906 31.5325 15.7061 31.917 16.3411C32.3016 16.9761 32.8279 17.5134 33.4548 17.911C35.2626 19.0624 36.1536 20.3887 36.032 21.7477C35.9832 22.2804 36.0443 22.8175 36.2114 23.3256C36.3786 23.8338 36.6484 24.3022 37.004 24.7018C37.7078 25.485 37.7723 26.5803 37.7779 26.74C37.5621 28.8989 35.7361 29.3809 34.1087 29.369C34.081 28.1849 33.8637 27.0129 33.465 25.8977C33.3884 25.6829 33.258 25.4913 33.0862 25.3414C32.5807 22.0389 30.8633 19.7744 27.8345 18.4226C22.726 16.1428 23.0954 13.3449 23.1126 13.2327C23.1311 13.1286 23.1176 13.0213 23.0738 12.9251C23.03 12.8289 22.9581 12.7482 22.8674 12.6938C22.7768 12.6394 22.6718 12.6138 22.5662 12.6204C22.4607 12.627 22.3597 12.6655 22.2766 12.7308C17.2349 16.6889 16.8794 21.8091 17.2442 24.8969C16.8216 24.847 16.3998 24.7906 15.9789 24.7277C15.7684 24.6271 15.5393 24.5713 15.3061 24.5639C15.0729 24.5565 14.8407 24.5976 14.6242 24.6846C14.4077 24.7716 14.2117 24.9027 14.0485 25.0694C13.8853 25.2362 13.7585 25.435 13.6762 25.6533C13.5711 25.9285 13.4875 26.2114 13.4264 26.4995L12.8029 26.4115C12.5496 26.3764 12.292 26.3864 12.0422 26.4411C11.5655 25.6864 11.3015 24.8169 11.2781 23.9245C11.234 23.1137 11.3764 22.3036 11.6944 21.5565C12.0123 20.8094 12.4974 20.1451 13.1122 19.6147ZM14.5837 50.3916C14.3846 50.2343 14.2331 50.0248 14.1461 49.7865C14.059 49.5482 14.0399 49.2904 14.0907 49.0418L14.4337 47.3996C14.4558 47.294 14.4446 47.1841 14.4016 47.0851C14.3587 46.9861 14.2861 46.9029 14.1939 46.8469C12.6208 45.8906 10.6367 43.9712 9.59398 42.9122C9.35222 42.6668 9.16409 42.3739 9.04152 42.0519C8.91895 41.73 8.86462 41.3862 8.88197 41.0421C8.94916 39.7784 9.08424 38.5192 9.2866 37.27C9.50016 37.3732 9.72674 37.447 9.96013 37.4894C10.9646 37.6705 11.98 37.7845 12.9997 37.8304L12.1106 40.9738C12.0904 41.045 12.0857 41.1196 12.0966 41.1927C12.1074 41.2658 12.1338 41.3358 12.1737 41.398C13.1255 42.8787 15.4364 45.2056 16.6627 46.399C15.8554 47.6672 15.1597 49.003 14.5837 50.3916ZM17.8898 44.6501C17.6688 44.9322 17.4559 45.2207 17.2514 45.5151C16.1775 44.464 14.1222 42.3903 13.1804 41.0268L14.0778 37.8538C14.6912 37.8524 15.2913 37.8272 15.8783 37.7781C16.279 38.3032 16.7259 38.7913 17.2137 39.2365C17.4309 39.4409 17.6032 39.6882 17.7196 39.9627C17.836 40.2373 17.894 40.5331 17.8898 40.8313V44.6501ZM28.3455 38.2829C27.9306 38.8455 27.7081 39.527 27.711 40.2261V43.7445C26.8435 44.9954 25.7753 46.0945 24.5495 46.9973C24.3278 47.1625 24.0657 47.2652 23.7907 47.2945C23.5157 47.3238 23.2379 47.2787 22.9863 47.1639C21.5221 46.5045 20.1577 45.6427 18.9333 44.6037V40.8316C18.9374 40.388 18.849 39.9485 18.6738 39.541C18.4986 39.1335 18.2404 38.767 17.9157 38.4648C17.6329 38.2069 17.3654 37.9327 17.1145 37.6436C20.2052 37.2044 23.1875 36.1955 25.9101 34.6681C25.9707 34.6352 26.0243 34.5907 26.0676 34.537C26.1109 34.4832 26.1431 34.4215 26.1624 34.3552C26.1817 34.289 26.1877 34.2196 26.18 34.151C26.1723 34.0825 26.151 34.0161 26.1175 33.9558C26.084 33.8955 26.0388 33.8424 25.9847 33.7997C25.9305 33.7569 25.8684 33.7254 25.802 33.7068C25.7355 33.6882 25.6661 33.6829 25.5976 33.6914C25.5291 33.6998 25.463 33.7217 25.403 33.7558C22.0208 35.6357 16.6285 37.6309 10.1453 36.4613C9.82927 36.4049 9.53835 36.2525 9.31205 36.0249C9.3016 36.0126 9.29024 36.0016 9.27872 35.9902C9.0282 35.723 8.88007 35.3759 8.86045 35.0102C8.8029 33.8903 8.85924 32.7675 9.02861 31.6591C9.04557 31.5416 9.08789 31.4293 9.15264 31.3299C9.21739 31.2305 9.30301 31.1464 9.40355 31.0834C9.50562 31.0182 9.62047 30.9757 9.74036 30.9586C9.86026 30.9416 9.98241 30.9504 10.0986 30.9846L10.3745 31.0658C10.8976 31.3233 15.5524 33.5409 21.064 33.5409C21.1326 33.5409 21.2004 33.5274 21.2637 33.5012C21.3271 33.4749 21.3846 33.4365 21.433 33.388C21.4815 33.3396 21.5199 33.282 21.5462 33.2187C21.5724 33.1554 21.5859 33.0875 21.5859 33.019C21.5859 32.9505 21.5724 32.8826 21.5462 32.8193C21.5199 32.756 21.4815 32.6984 21.433 32.65C21.3846 32.6015 21.3271 32.5631 21.2637 32.5368C21.2004 32.5106 21.1326 32.4971 21.064 32.4971C16.3852 32.4971 12.2398 30.7712 11.1074 30.2562C11.1563 29.6105 11.2474 28.9687 11.3801 28.3349C11.4411 28.0529 11.6065 27.8043 11.8431 27.6391C12.0797 27.4739 12.37 27.4043 12.6558 27.4441L13.6782 27.5885C14.4279 28.0931 18.8566 30.8637 25.6798 30.9492C25.7144 31.2251 25.7698 31.4981 25.8457 31.7657C26.0057 32.3239 26.3428 32.815 26.8061 33.165C27.2695 33.515 27.834 33.7049 28.4147 33.7062C28.6681 33.7062 28.9202 33.6705 29.1637 33.6001L29.2747 33.568C29.7433 35.9529 28.9078 37.5334 28.3455 38.2833V38.2829ZM29.006 32.5591L28.8749 32.5969C28.6687 32.657 28.4527 32.6757 28.2392 32.6521C28.0258 32.6284 27.8191 32.5629 27.631 32.4591C27.443 32.3554 27.2772 32.2156 27.1434 32.0477C27.0095 31.8797 26.9101 31.687 26.8508 31.4806C26.6835 30.878 26.6376 30.2482 26.716 29.6277C26.7644 29.2327 26.9563 28.8692 27.2551 28.6063C27.554 28.3435 27.939 28.1996 28.337 28.202H28.3471C28.6832 28.2018 29.011 28.3062 29.285 28.5008C29.5591 28.6953 29.7657 28.9704 29.8763 29.2878C30.0502 29.8056 30.1534 30.3445 30.1832 30.8899C30.207 31.2608 30.1032 31.6286 29.889 31.9323C29.6749 32.2361 29.3633 32.4574 29.006 32.5595V32.5591ZM45.1465 42.2236H36.8813C36.1756 42.2226 35.4856 42.0158 34.8958 41.6284C33.1274 40.4511 31.4523 39.1394 29.8854 37.7048C30.3648 36.6259 30.6984 35.0731 30.2367 33.0729C30.4213 32.9246 30.5852 32.7523 30.7242 32.5606L30.8292 32.5521C32.3311 34.6124 34.6836 37.1423 35.9647 38.4774C36.5017 39.0401 37.2379 39.3699 38.0153 39.396L45.1471 39.6521L45.1465 42.2236ZM51.4801 17.3184L50.3714 20.124C50.362 20.1136 50.3534 20.1027 50.3439 20.0924L48.7015 18.3455L51.3577 15.0548C51.6097 15.4529 51.6546 15.9551 51.6591 16.3814C51.6609 16.7024 51.6001 17.0207 51.4801 17.3184ZM47.7924 7.66171L51.6394 12.958L47.9806 17.5778L44.7732 14.1663L44.1086 12.9976L47.7924 7.66171ZM44.0555 18.1775C43.7945 17.9343 43.6044 17.625 43.5054 17.2823C43.4063 16.9397 43.402 16.5766 43.493 16.2317C43.6193 15.7937 43.892 15.4122 44.2656 15.1509L49.5807 20.8054C49.7446 20.9768 49.8608 21.1882 49.9176 21.4185C49.9744 21.6488 49.9698 21.89 49.9044 22.118C49.7807 22.5077 49.5624 22.8608 49.2692 23.1458L44.0555 18.1775ZM45.927 21.4025L48.7329 24.0758V37.3021C48.7211 37.3021 48.7097 37.3003 48.6979 37.3003H47.5466V26.1154C47.5456 25.3984 47.2974 24.7036 46.8437 24.1484C46.3257 23.5144 45.7991 22.5621 45.927 21.4025ZM48.6979 43.6745H47.4389C47.1078 43.6741 46.7904 43.5424 46.5564 43.3083C46.3223 43.0742 46.1906 42.7568 46.1903 42.4257V39.5928C46.1906 39.2618 46.3223 38.9444 46.5564 38.7103C46.7905 38.4763 47.1078 38.3446 47.4389 38.3442H48.6979C49.029 38.3446 49.3464 38.4762 49.5805 38.7103C49.8146 38.9444 49.9463 39.2618 49.9467 39.5928V42.4257C49.9463 42.7568 49.8146 43.0742 49.5805 43.3083C49.3464 43.5424 49.029 43.6741 48.6979 43.6745Z" fill="url(#paint18_linear_2603_10001)"/>
</g>
<defs>
<linearGradient id="paint0_linear_2603_10001" x1="47.3648" y1="8.0007" x2="48.375" y2="17.6598" gradientUnits="userSpaceOnUse">
<stop stop-color="#EBFEFF"/>
<stop offset="0.073" stop-color="#E3F9FF"/>
<stop offset="0.703" stop-color="#A2CEFD"/>
<stop offset="1" stop-color="#89BDFC"/>
</linearGradient>
<linearGradient id="paint1_linear_2603_10001" x1="25.1961" y1="5.76249" x2="26.6221" y2="50.6283" gradientUnits="userSpaceOnUse">
<stop stop-color="#444456"/>
<stop offset="1" stop-color="#363644"/>
</linearGradient>
<linearGradient id="paint2_linear_2603_10001" x1="47.7009" y1="43.6629" x2="47.9222" y2="55.7274" gradientUnits="userSpaceOnUse">
<stop stop-color="#FF7B72"/>
<stop offset="0.291" stop-color="#F37169"/>
<stop offset="1" stop-color="#DA5B55"/>
</linearGradient>
<linearGradient id="paint3_linear_2603_10001" x1="25.1967" y1="5.7625" x2="26.6227" y2="50.6283" gradientUnits="userSpaceOnUse">
<stop stop-color="#444456"/>
<stop offset="1" stop-color="#363644"/>
</linearGradient>
<linearGradient id="paint4_linear_2603_10001" x1="24.5251" y1="11.6345" x2="24.5251" y2="28.92" gradientUnits="userSpaceOnUse">
<stop stop-color="#FFAC8A"/>
<stop offset="0.553" stop-color="#FF9565"/>
<stop offset="1" stop-color="#FF854C"/>
</linearGradient>
<linearGradient id="paint5_linear_2603_10001" x1="36.6034" y1="50.0735" x2="36.6034" y2="29.5806" gradientUnits="userSpaceOnUse">
<stop stop-color="#F771A8"/>
<stop offset="1" stop-color="#C14778"/>
</linearGradient>
<linearGradient id="paint6_linear_2603_10001" x1="25.1975" y1="5.76234" x2="26.6235" y2="50.6281" gradientUnits="userSpaceOnUse">
<stop stop-color="#444456"/>
<stop offset="1" stop-color="#363644"/>
</linearGradient>
<linearGradient id="paint7_linear_2603_10001" x1="23.537" y1="25.2503" x2="23.537" y2="30.3943" gradientUnits="userSpaceOnUse">
<stop stop-color="#FFE1DB"/>
<stop offset="1" stop-color="#FEB5A9"/>
</linearGradient>
<linearGradient id="paint8_linear_2603_10001" x1="36.6029" y1="50.0735" x2="36.6029" y2="29.5806" gradientUnits="userSpaceOnUse">
<stop stop-color="#F771A8"/>
<stop offset="1" stop-color="#C14778"/>
</linearGradient>
<linearGradient id="paint9_linear_2603_10001" x1="23.5369" y1="25.2498" x2="23.5369" y2="30.3938" gradientUnits="userSpaceOnUse">
<stop stop-color="#FFE1DB"/>
<stop offset="1" stop-color="#FEB5A9"/>
</linearGradient>
<linearGradient id="paint10_linear_2603_10001" x1="23.5364" y1="25.2497" x2="23.5364" y2="30.3938" gradientUnits="userSpaceOnUse">
<stop stop-color="#FFE1DB"/>
<stop offset="1" stop-color="#FEB5A9"/>
</linearGradient>
<linearGradient id="paint11_linear_2603_10001" x1="24.3505" y1="52.7795" x2="24.3505" y2="38.4028" gradientUnits="userSpaceOnUse">
<stop stop-color="#F9FFFF"/>
<stop offset="1" stop-color="#CCE2EC"/>
</linearGradient>
<linearGradient id="paint12_linear_2603_10001" x1="24.3497" y1="52.7794" x2="24.3497" y2="38.4027" gradientUnits="userSpaceOnUse">
<stop stop-color="#F9FFFF"/>
<stop offset="1" stop-color="#CCE2EC"/>
</linearGradient>
<linearGradient id="paint13_linear_2603_10001" x1="36.6036" y1="50.0735" x2="36.6036" y2="29.5806" gradientUnits="userSpaceOnUse">
<stop stop-color="#F771A8"/>
<stop offset="1" stop-color="#C14778"/>
</linearGradient>
<linearGradient id="paint14_linear_2603_10001" x1="36.6033" y1="50.073" x2="36.6033" y2="29.5801" gradientUnits="userSpaceOnUse">
<stop stop-color="#F771A8"/>
<stop offset="1" stop-color="#C14778"/>
</linearGradient>
<linearGradient id="paint15_linear_2603_10001" x1="47.701" y1="43.6632" x2="47.9223" y2="55.7277" gradientUnits="userSpaceOnUse">
<stop stop-color="#FF7B72"/>
<stop offset="0.291" stop-color="#F37169"/>
<stop offset="1" stop-color="#DA5B55"/>
</linearGradient>
<linearGradient id="paint16_linear_2603_10001" x1="23.5368" y1="25.2501" x2="23.5368" y2="30.3942" gradientUnits="userSpaceOnUse">
<stop stop-color="#FFE1DB"/>
<stop offset="1" stop-color="#FEB5A9"/>
</linearGradient>
<linearGradient id="paint17_linear_2603_10001" x1="48.0431" y1="37.925" x2="48.1051" y2="45.3085" gradientUnits="userSpaceOnUse">
<stop stop-color="#FFE1DB"/>
<stop offset="1" stop-color="#FEB5A9"/>
</linearGradient>
<linearGradient id="paint18_linear_2603_10001" x1="25.1966" y1="5.76246" x2="26.6225" y2="50.6282" gradientUnits="userSpaceOnUse">
<stop stop-color="#444456"/>
<stop offset="1" stop-color="#363644"/>
</linearGradient>
</defs>
</svg>
