<svg width="140" height="140" viewBox="0 0 140 140" fill="none" xmlns="http://www.w3.org/2000/svg">
<rect x="0.5" y="0.5" width="139" height="139" rx="9.5" stroke="#B95BEA" stroke-opacity="0.4"/>
<g opacity="0.7">
<path d="M110.412 45.9637L101.917 31.0274C101.787 30.7989 101.724 30.5384 101.736 30.2757C101.747 30.0131 101.833 29.7591 101.982 29.5428L110.369 17.3947C110.496 17.2109 110.665 17.0601 110.862 16.9551C111.059 16.85 111.279 16.7938 111.502 16.7911C111.726 16.7884 111.947 16.8393 112.146 16.9395C112.346 17.0398 112.519 17.1864 112.65 17.3672L121.522 29.5817C121.661 29.7729 121.736 30.0033 121.735 30.2396C121.734 30.4758 121.658 30.7057 121.518 30.8959L110.412 45.9637Z" fill="url(#paint0_linear_2603_12437)"/>
<path d="M120.615 30.7087L114.09 32.9073C113.751 33.0215 113.451 33.228 113.223 33.5034C112.995 33.7788 112.849 34.1124 112.8 34.4665L111.404 44.6213L121.134 31.4206C121.192 31.3415 121.224 31.2459 121.224 31.1477C121.224 31.0494 121.193 30.9537 121.135 30.8743C121.077 30.795 120.996 30.7361 120.902 30.7063C120.808 30.6765 120.708 30.6774 120.615 30.7087Z" fill="#588EDD"/>
<path d="M109.481 22.5773L105.239 28.7208C105.188 28.7937 105.156 28.8778 105.145 28.9658C105.134 29.0539 105.144 29.1434 105.175 29.2266C105.206 29.3099 105.256 29.3845 105.322 29.4441C105.388 29.5038 105.467 29.5466 105.553 29.5691L110.417 30.8505C110.502 30.873 110.592 30.8746 110.678 30.8553C110.764 30.836 110.844 30.7962 110.912 30.7394C110.98 30.6826 111.033 30.6104 111.067 30.5289C111.101 30.4473 111.115 30.3588 111.107 30.2708L110.485 22.8459C110.475 22.7326 110.431 22.625 110.358 22.5378C110.285 22.4506 110.187 22.388 110.077 22.3586C109.967 22.3292 109.851 22.3345 109.744 22.3736C109.638 22.4127 109.546 22.4839 109.481 22.5773Z" fill="white"/>
<path d="M48.7267 36.3369H39.5234V63.8759C48.7701 68.3902 58.2933 70.4725 68.167 69.4609L81.15 60.123L69.8938 37.965L48.7267 36.3369Z" fill="url(#paint1_linear_2603_12437)"/>
<path d="M119.756 33.2871L111.107 44.0011L117.696 49.8537L121.252 40.8562C121.59 40.015 121.761 39.1164 121.756 38.21C121.74 36.6812 121.508 34.5717 119.756 33.2871Z" fill="#C84343"/>
<path d="M106.561 47.3789L114.929 55.6557V126.556H109.727V60.9363C109.726 59.5443 109.244 58.1954 108.362 57.1187C106.848 55.2686 104.833 51.7412 106.561 47.3789Z" fill="url(#paint2_linear_2603_12437)"/>
<path d="M26.5118 126.556H32.4856L57.2246 124.205L81.1475 126.556H92.3146L97.1471 112.401C97.1471 112.401 86.9113 82.6789 75.1991 69.4619H31.8274C31.8274 69.4619 14.5309 102.217 26.5118 126.556Z" fill="url(#paint3_linear_2603_12437)"/>
<path d="M52.7339 30.6602C52.7339 30.6602 51.38 38.26 64.4539 44.0956C77.5277 49.9312 76.3913 62.0065 76.3913 69.4618C76.3913 69.4618 88.4934 71.8902 89.3704 62.4363C89.3704 62.4363 89.3704 59.1797 87.2495 56.8209C86.5287 56.015 85.9825 55.0687 85.645 54.0415C85.3075 53.0143 85.1861 51.9284 85.2884 50.8521C85.5298 48.1568 84.4513 44.4155 78.7161 40.7641C77.41 39.941 76.3133 38.8251 75.513 37.5049C74.7127 36.1847 74.2306 34.6963 74.1049 33.1575C73.5807 26.3407 70.831 15.2188 58.4663 15.2188C58.4663 15.2188 51.8753 15.3248 48.9576 19.8649C48.9576 19.8649 43.1227 17.3796 36.964 22.7822C33.2709 26.0225 32.8039 32.4163 33.022 37.0115C33.1025 38.4776 32.8539 39.9431 32.2945 41.3006C31.7351 42.6581 30.879 43.8733 29.7891 44.857C28.215 46.211 26.9734 47.9089 26.1606 49.8195C25.3477 51.73 24.9852 53.802 25.1012 55.875C25.5335 66.1397 35.6703 68.2712 35.6703 68.2712L43.2348 65.4618C43.2348 65.4618 34.6682 44.8468 52.7339 30.6602Z" fill="url(#paint4_linear_2603_12437)"/>
<path d="M68.4688 74.4997C68.4688 74.4997 95.4831 94.5523 92.3163 126.556H102.148C102.148 126.556 106.147 92.6764 78.3188 67.1289L68.4688 74.4997Z" fill="url(#paint5_linear_2603_12437)"/>
<path d="M36.9238 58.874C49.2505 60.5966 61.7315 60.9303 74.1326 59.8687L75.5868 67.5725C75.5868 67.5725 45.9818 71.6513 36.9238 58.874Z" fill="url(#paint6_linear_2603_12437)"/>
<path d="M49.9746 59.6699V68.4073H59.8675V63.0393L49.9746 59.6699Z" fill="url(#paint7_linear_2603_12437)"/>
<path d="M78.3188 67.1289L68.4688 74.4997C69.849 75.5699 71.1699 76.7145 72.4256 77.9284L73.5921 77.926C73.5921 77.926 80.5511 78.6191 83.5889 72.4764C81.9223 70.6073 80.1634 68.8226 78.3188 67.1289Z" fill="#933E65"/>
<path d="M21.3779 84.8457C21.3779 84.8457 15.3146 107.162 17.8989 126.556H26.5125C26.5125 126.556 23.567 112.32 25.9682 99.4165L21.3779 84.8457Z" fill="url(#paint8_linear_2603_12437)"/>
<path d="M67.0253 87.1002C71.2667 91.1841 75.863 94.8827 80.7598 98.1521C82.3345 99.1841 84.1755 99.7354 86.0581 99.7389H108.938V91.4296L88.7464 90.705C87.2502 90.652 85.8336 90.018 84.7973 88.9376C81.5544 85.5541 74.3586 77.8326 71.2784 72.8164C65.6026 73.4866 65.7433 79.7453 67.0253 87.1002Z" fill="url(#paint9_linear_2603_12437)"/>
<path d="M71.2781 72.8145C66.8511 73.3387 65.9628 77.2616 66.3947 82.4528C67.9607 81.4022 69.4663 80.2643 70.9044 79.0445C71.7246 78.3397 72.7697 77.9512 73.8511 77.9491H75.0091C73.663 76.3144 72.4171 74.5997 71.2781 72.8145Z" fill="#E78582"/>
<path d="M21.351 82.291C20.3392 86.6972 19.7228 91.1849 19.5094 95.7007C19.4591 96.6723 19.6118 97.6438 19.9577 98.5533C20.3036 99.4627 20.8352 100.29 21.5185 100.983C24.1498 103.655 28.7553 108.082 32.487 110.35L31.6864 114.181C31.4804 115.167 31.6189 116.193 32.0789 117.089C32.5388 117.985 33.2923 118.696 34.2134 119.102L35.6532 119.739L41.3297 108.931C41.3297 108.931 32.3768 100.524 29.4291 95.9385L32.486 85.1298L21.351 82.291Z" fill="url(#paint10_linear_2603_12437)"/>
<path d="M42.9623 104.614C42.9623 104.614 35.1503 114.02 32.4883 126.556H81.1502C81.1502 126.556 77.8306 111.189 65.8798 102.44L42.9623 104.614Z" fill="url(#paint11_linear_2603_12437)"/>
<path d="M30.4647 92.2843L32.488 85.1298L21.3534 82.291C20.7118 85.0334 20.2396 87.8126 19.9395 90.613C23.3912 91.4821 26.9135 92.0414 30.4647 92.2843Z" fill="#E78582"/>
<path d="M42.9629 104.614C42.9629 104.614 44.76 110.025 53.5744 115.038C54.3779 115.501 55.3075 115.698 56.2296 115.6C57.1518 115.501 58.019 115.113 58.7069 114.491C61.1261 112.282 64.6376 108.219 65.8797 102.44L42.9629 104.614Z" fill="#B6CFE0"/>
<path d="M36.8652 85.7347C38.0027 87.5584 39.3899 89.214 40.9865 90.653C41.6177 91.2447 42.1192 91.961 42.4594 92.7566C42.7995 93.5521 42.9708 94.4096 42.9624 95.2748V104.614C42.9624 104.614 46.6153 108.17 53.1299 111.155C53.9152 111.514 54.7825 111.656 55.6411 111.565C56.4997 111.474 57.3181 111.154 58.0108 110.638C61.0824 108.375 63.7438 105.602 65.8793 102.441V93.8612C65.8708 92.4936 66.3048 91.1599 67.1165 90.0592C68.8584 87.7389 71.5032 82.5092 68.471 74.5H60.3933L36.8652 85.7347Z" fill="url(#paint12_linear_2603_12437)"/>
<path d="M68.4699 74.5H60.3933L36.8652 85.7347C38.0027 87.5584 39.3899 89.214 40.9865 90.653C41.3771 91.0133 41.7164 91.4256 41.9949 91.8782C52.1415 90.4174 61.7247 86.3112 69.781 79.9722C69.5934 78.0973 69.1524 76.2564 68.4699 74.5Z" fill="#B6CFE0"/>
<path d="M36.9227 58.8738C36.9227 58.8738 46.7431 66.9731 65.0471 66.7267L66.4963 75.4577C66.4963 75.4577 48.3458 90.7662 23.459 86.2763C22.3821 86.0822 21.402 85.5308 20.6769 84.7113C19.9518 83.8917 19.524 82.8517 19.4626 81.7592C19.3243 79.0635 19.4597 76.3608 19.8666 73.6924C19.936 73.2443 20.1004 72.8163 20.3489 72.437C20.5974 72.0578 20.9242 71.7361 21.3073 71.4936C21.6904 71.251 22.121 71.0933 22.5701 71.031C23.0192 70.9686 23.4764 71.0031 23.9111 71.1321L24.657 71.3517C24.746 69.5067 24.9834 67.6718 25.3668 65.8649C25.5719 64.9044 26.1337 64.0574 26.9388 63.4948C27.744 62.9322 28.7325 62.6958 29.705 62.8335L32.3734 63.2092C32.4381 62.2048 32.6673 61.2179 33.0518 60.2877C33.1902 59.9219 33.4058 59.5903 33.684 59.3154C33.9621 59.0405 34.2962 58.8287 34.6635 58.6945C35.0309 58.5603 35.4228 58.5069 35.8127 58.5378C36.2025 58.5688 36.5812 58.6834 36.9227 58.8738Z" fill="url(#paint13_linear_2603_12437)"/>
<path d="M63.25 67.3842C63.25 67.3842 68.6441 65.4938 73.7547 60.1732C73.9793 59.9371 74.2604 59.7622 74.5715 59.6651C74.8826 59.568 75.2133 59.5519 75.5323 59.6184C75.8513 59.6849 76.1481 59.8317 76.3945 60.045C76.6409 60.2582 76.8288 60.5309 76.9403 60.8371C78.037 63.8842 78.5134 67.1199 78.3415 70.3538C78.2709 71.4356 77.8123 72.4555 77.0499 73.2262C76.2875 73.9969 75.2726 74.4666 74.1916 74.5489L65.0365 75.2881L63.25 67.3842Z" fill="url(#paint14_linear_2603_12437)"/>
<path d="M114.93 55.6553L101.957 43.2962C101.184 42.5768 100.622 41.6598 100.333 40.6442C100.044 39.6287 100.037 38.5533 100.315 37.5345C100.698 36.21 101.548 34.8661 103.485 33.7812L116.582 47.714C117.11 48.2701 117.483 48.9552 117.664 49.7007C117.845 50.4462 117.827 51.2262 117.612 51.9625C117.131 53.446 116.192 54.7388 114.93 55.6553Z" fill="url(#paint15_linear_2603_12437)"/>
<path d="M44.0453 66.5854C40.3239 64.6455 36.185 62.0881 33.6937 59.3037C33.4099 59.5806 33.1906 59.9166 33.0514 60.2878C32.6669 61.2178 32.4377 62.2047 32.373 63.209C32.373 63.209 36.5742 66.2135 43.2995 68.3602C43.5298 68.4348 43.7796 68.4201 43.9996 68.3192C44.2197 68.2183 44.3938 68.0385 44.4875 67.8154C44.5813 67.5922 44.5879 67.342 44.506 67.1143C44.4241 66.8865 44.2597 66.6978 44.0453 66.5854Z" fill="#933E65"/>
<path d="M108.362 57.118C108.445 57.2198 108.521 57.3262 108.597 57.4326H108.6C110.297 59.0918 111.763 60.9708 112.961 63.0194C113.371 63.8157 114.078 64.4191 114.929 64.6998V55.6557L106.561 47.3789C104.833 51.7412 106.848 55.2686 108.362 57.118Z" fill="#C84343"/>
<path d="M66.1254 73.2234L66.09 73.0039C61.5333 73.9095 40.4499 77.3421 25.1506 66.9834C24.8916 68.4269 24.7271 69.8857 24.6582 71.3507C24.6582 71.3507 46.4796 82.3273 66.1254 73.2234Z" fill="#933E65"/>
<path d="M66.1515 64.5881C67.1884 64.5897 68.1992 64.9138 69.0437 65.5155C69.8882 66.1172 70.5246 66.9666 70.8648 67.9462C71.3055 69.2581 71.5671 70.6236 71.6425 72.0056C71.7103 73.1459 71.3885 74.2754 70.73 75.2088C70.0715 76.1423 69.1153 76.8242 68.0182 77.1427L67.7128 77.2311C67.0776 77.4156 66.4122 77.473 65.7548 77.3998C65.0974 77.3266 64.4609 77.1244 63.8818 76.8046C63.3028 76.4849 62.7926 76.0539 62.3804 75.5365C61.9683 75.0191 61.6624 74.4255 61.4802 73.7896C61.0445 72.2291 60.9243 70.5974 61.1268 68.99C61.2774 67.7672 61.8728 66.6426 62.7996 65.8307C63.7263 65.0189 64.9195 64.5765 66.1515 64.5881Z" fill="#FFC564"/>
<path d="M49.9746 59.6699C51.7388 61.1545 55.3161 63.5002 59.8675 63.0392V53.0449L49.9746 54.6024V59.6699Z" fill="#E78582"/>
<path d="M52.7322 30.6602C49.295 33.2912 46.4606 36.6274 44.4194 40.4445C44.3538 42.5393 44.4291 44.6362 44.6445 46.7209C44.9073 49.0957 45.8252 51.3506 47.2957 53.2338C48.8599 55.2709 50.846 56.9459 53.1178 58.144C53.6507 58.4168 54.2446 58.5482 54.8428 58.5258C55.441 58.5033 56.0234 58.3277 56.5342 58.0157C58.1989 57.0015 59.6835 55.7177 60.9273 54.2168C62.2695 52.5588 63.1653 50.5849 63.5292 48.483C54.8849 42.4371 52.168 36.5145 52.7322 30.6602Z" fill="url(#paint16_linear_2603_12437)"/>
<path d="M51.6096 46.9532C51.5239 46.9531 51.4385 46.9425 51.3554 46.9217C50.872 46.8009 50.3799 46.7181 49.8835 46.6743C49.747 46.6625 49.6141 46.6239 49.4925 46.5608C49.3708 46.4976 49.2628 46.4111 49.1746 46.3063C49.0864 46.2014 49.0197 46.0801 48.9783 45.9495C48.937 45.8188 48.9218 45.6813 48.9336 45.5447C48.9453 45.4082 48.9839 45.2753 49.0471 45.1537C49.1102 45.032 49.1967 44.924 49.3016 44.8358C49.4065 44.7476 49.5277 44.6809 49.6584 44.6395C49.789 44.5982 49.9266 44.583 50.0631 44.5948C50.6697 44.6486 51.2712 44.7498 51.862 44.8977C52.1091 44.9594 52.3251 45.1094 52.4694 45.3193C52.6136 45.5293 52.6761 45.7847 52.6451 46.0376C52.6141 46.2904 52.4917 46.5232 52.3009 46.692C52.1102 46.8608 51.8643 46.9541 51.6096 46.9542V46.9532ZM57.0726 46.9532C56.8179 46.953 56.5721 46.8596 56.3814 46.6908C56.1908 46.5219 56.0684 46.2891 56.0374 46.0363C56.0065 45.7835 56.069 45.5281 56.2132 45.3182C56.3575 45.1083 56.5735 44.9583 56.8206 44.8966C57.4114 44.7487 58.0128 44.6474 58.6195 44.5937C58.756 44.5819 58.8935 44.5972 59.0242 44.6386C59.1548 44.6799 59.2761 44.7466 59.3809 44.8349C59.4858 44.9231 59.5723 45.0311 59.6354 45.1528C59.6985 45.2744 59.7371 45.4073 59.7488 45.5439C59.7606 45.6804 59.7454 45.8179 59.704 45.9486C59.6626 46.0792 59.5959 46.2005 59.5076 46.3053C59.4194 46.4102 59.3114 46.4967 59.1897 46.5598C59.0681 46.6229 58.9352 46.6615 58.7987 46.6732C58.3023 46.7171 57.8102 46.7998 57.3268 46.9207C57.2437 46.9419 57.1584 46.9528 57.0726 46.9532ZM103 99.7384H108.936V91.4292L102.334 91.1923L103 99.7384Z" fill="#E78582"/>
<path d="M113.632 88.252H110.694C108.412 88.252 106.562 90.1017 106.562 92.3834V98.9935C106.562 101.275 108.412 103.125 110.694 103.125H113.632C115.914 103.125 117.763 101.275 117.763 98.9935V92.3834C117.763 90.1017 115.914 88.252 113.632 88.252Z" fill="url(#paint17_linear_2603_12437)"/>
<path d="M63.5258 48.483C63.5817 48.1649 63.6276 47.8467 63.6595 47.5226C63.7813 46.2925 63.8651 45.068 63.9108 43.8492C51.416 38.0493 52.7313 30.6602 52.7313 30.6602C52.7313 30.6602 49.5987 42.144 63.5258 48.483Z" fill="#E78582"/>
<path d="M118.979 98.9933V92.3832C118.979 91.4142 118.715 90.4636 118.216 89.6329C117.717 88.8021 117.002 88.1223 116.147 87.6661V56.2278C117.379 55.2028 118.291 53.8466 118.777 52.3194C119.005 51.5647 119.065 50.7694 118.954 49.9889L122.385 41.3039C122.782 40.3164 122.982 39.2612 122.975 38.1972C122.965 37.3287 122.935 34.9395 121.377 33.1424L122.982 30.9646C123.136 30.7564 123.219 30.5048 123.22 30.2462C123.221 29.9877 123.139 29.7355 122.987 29.5263L112.478 15.0551C112.364 14.8964 112.214 14.7677 112.04 14.6801C111.866 14.5926 111.673 14.5489 111.478 14.5528C111.283 14.5552 111.092 14.6042 110.92 14.6958C110.748 14.7873 110.601 14.9186 110.49 15.0788L100.483 29.5715C100.353 29.7601 100.279 29.9816 100.269 30.2104C100.259 30.4393 100.313 30.6664 100.427 30.8656L101.861 33.3884C100.549 34.3114 99.5909 35.6547 99.1455 37.1961C98.8018 38.4285 98.804 39.7317 99.1519 40.963C99.4997 42.1942 100.18 43.3059 101.118 44.1763L105.08 47.9511C103.772 52.493 105.963 56.1077 107.42 57.8874C108.123 58.7475 108.508 59.8237 108.509 60.9344V87.5035C107.347 88.0276 106.409 88.9476 105.862 90.0994L96.4036 89.7597C93.1329 82.7169 88.7727 76.2336 83.4835 70.5484C87.6676 69.553 90.189 66.7778 90.5814 62.5477C90.5849 62.5106 90.5867 62.4728 90.5867 62.4353C90.5867 62.2833 90.5588 58.681 88.1558 56.0062C87.5449 55.3259 87.0823 54.5259 86.7975 53.657C86.5126 52.7882 86.4119 51.8695 86.5015 50.9596C86.7599 48.0752 85.7323 43.7864 79.3704 39.7359C78.2259 39.0119 77.2645 38.0327 76.5617 36.875C75.8589 35.7174 75.4337 34.4127 75.3195 33.0632C74.772 25.9434 71.8554 14 58.4468 14C58.1669 14.0046 51.8982 14.1587 48.4861 18.4355C46.4387 17.9017 41.3956 17.2746 36.1616 21.8642C32.132 25.399 31.5664 32.0826 31.8039 37.0671C31.8784 38.3519 31.6632 39.637 31.1742 40.8274C30.6851 42.0178 29.9348 43.083 28.9786 43.9444C27.2696 45.4192 25.9215 47.2663 25.0382 49.3437C24.1548 51.4211 23.7597 53.6734 23.8831 55.9274C23.9514 58.3439 24.6433 60.7016 25.8916 62.7718C25.0167 63.4988 24.412 64.4991 24.1751 65.6117C23.8831 67.0005 23.6715 68.4049 23.5413 69.8181C22.4074 69.679 21.2639 69.987 20.3532 70.6769C19.4426 71.3667 18.8364 72.3841 18.6633 73.5134C18.2435 76.2635 18.1043 79.049 18.2476 81.8273C18.3128 83.0428 18.7422 84.2106 19.4798 85.179C18.6258 88.9372 14.3759 109.004 16.6732 126.558H19.1122C19.1141 126.504 19.1124 126.451 19.1069 126.397C17.921 117.497 18.4752 107.895 19.401 100.196C19.7477 100.794 20.1682 101.346 20.6527 101.839C21.5364 102.737 22.7029 103.892 24.0136 105.116C23.2239 115.39 24.9485 124.898 25.2723 126.558H27.7318C27.7319 126.475 27.7234 126.392 27.7064 126.311C26.5446 120.01 26.0811 113.601 26.3243 107.199C27.8428 108.543 29.4462 109.789 31.1246 110.928L30.4964 113.932C30.2627 115.078 30.391 116.269 30.8636 117.339C31.3361 118.409 32.1295 119.306 33.1341 119.906C32.3776 121.994 31.764 124.13 31.2978 126.301C31.2802 126.384 31.2715 126.469 31.2716 126.554H33.7368C35.852 116.884 41.1482 109.066 43.1337 106.387C46.0286 108.749 49.2188 110.724 52.6236 112.262C53.6073 112.712 54.6939 112.89 55.7696 112.776C56.8454 112.662 57.8709 112.262 58.7388 111.616C61.5688 109.523 64.0682 107.017 66.1531 104.181C75.9851 112.019 79.4178 124.605 79.9006 126.557H82.369C82.3691 126.47 82.3601 126.384 82.3421 126.3C82.2046 125.663 78.878 110.796 67.0986 101.831V93.8608C67.0906 92.7571 67.4384 91.6803 68.0905 90.7898C68.2319 90.6017 68.3796 90.3939 68.5299 90.1683C72.1555 93.4533 76.0216 96.4627 80.0957 99.1715C81.8676 100.334 83.9403 100.955 86.0597 100.957H87.1406C90.5903 108.979 91.9548 117.744 91.1074 126.436C91.1035 126.477 91.1074 126.516 91.1074 126.556H93.54C94.376 117.844 93.0843 109.059 89.7758 100.957H98.0278C102.194 115.074 100.953 126.301 100.94 126.414C100.937 126.461 100.936 126.508 100.938 126.555H103.375C103.519 125.18 104.449 114.569 100.565 100.956H105.722C106.237 102.253 107.237 103.298 108.51 103.871V126.555H110.945V104.343H113.632C113.659 104.343 113.686 104.339 113.714 104.338V126.556H116.149V103.711C117.004 103.254 117.718 102.574 118.217 101.744C118.715 100.913 118.979 99.9622 118.979 98.9933ZM93.6637 89.6615L88.7899 89.4847C87.6096 89.4448 86.492 88.9441 85.6765 88.0899C82.9734 85.2698 78.2 80.1451 74.7893 75.6954C75.9712 75.4954 77.0609 74.9306 77.9057 74.0801C78.7504 73.2296 79.3078 72.136 79.4998 70.9528C79.5666 70.9528 79.6366 70.9577 79.7027 70.9577C79.9731 70.9577 80.2371 70.9503 80.4984 70.9397C85.8623 76.4345 90.3075 82.7563 93.6637 89.6629V89.6615ZM72.8614 71.9362C72.7789 70.4449 72.4958 68.9715 72.0198 67.5558C71.6652 66.5161 71.0372 65.5909 70.2018 64.8775C71.7893 63.7235 73.272 62.4318 74.6327 61.0175C74.7159 60.9292 74.8206 60.8639 74.9366 60.8282C75.0526 60.7924 75.1759 60.7874 75.2944 60.8136C75.4086 60.8358 75.5148 60.8878 75.6025 60.9642C75.6902 61.0405 75.7562 61.1387 75.7939 61.2487C76.8335 64.1422 77.2862 67.2139 77.1254 70.2844C77.0705 71.0722 76.7339 71.814 76.1772 72.3741C75.6205 72.9343 74.8808 73.2755 74.0933 73.3352L72.766 73.4413C72.8576 72.9452 72.8897 72.4399 72.8614 71.9362ZM42.7268 58.3692C42.1341 54.3534 42.3566 50.2593 43.3811 46.3315C43.3985 46.5082 43.4165 46.6849 43.4356 46.8596C43.7232 49.4586 44.7283 51.9264 46.3384 53.9868C47.0695 54.9193 47.8788 55.7878 48.7576 56.5827V58.8758C46.7445 58.743 44.7339 58.5741 42.7268 58.3692ZM48.7569 61.3166V63.2625C46.6029 62.6027 44.5032 61.7773 42.4766 60.7938C44.2348 60.974 46.3504 61.1589 48.7569 61.3166ZM60.1389 67.8103C60.037 68.1489 59.9644 68.4957 59.9219 68.8467C59.8866 69.1596 59.8618 69.4703 59.8452 69.7799C45.7378 69.5707 36.063 64.1041 33.6661 62.5993C33.7814 61.9568 33.9578 61.3268 34.1928 60.7178C34.2669 60.5228 34.3807 60.3454 34.527 60.1967C34.6733 60.0481 34.849 59.9315 35.0427 59.8543C35.2365 59.7772 35.4442 59.7411 35.6526 59.7484C35.8611 59.7558 36.0657 59.8064 36.2536 59.897C37.3013 60.7262 45.4727 66.8086 60.1361 67.8103H60.1389ZM51.1931 63.9447V58.4399C51.642 58.7227 52.098 58.9921 52.566 59.2303C53.2855 59.5944 54.0858 59.7693 54.8916 59.7383C55.6974 59.7074 56.482 59.4718 57.1715 59.0536C57.6794 58.7404 58.1729 58.4043 58.6504 58.0465V65.2381C56.1362 64.991 53.6437 64.5586 51.1931 63.9447ZM59.9838 53.4484C58.8258 54.8426 57.4451 56.0354 55.8975 56.9786C55.5648 57.1829 55.1849 57.2977 54.7947 57.3118C54.4045 57.326 54.0172 57.2389 53.6706 57.0592C51.5594 55.9372 49.7125 54.3767 48.2539 52.4824C46.9229 50.7768 46.0925 48.7346 45.8555 46.5842C45.6534 44.6518 45.5786 42.7081 45.6317 40.7659C45.6317 40.75 45.6282 40.7355 45.6279 40.7196C47.1976 37.8651 49.2446 35.3005 51.6802 33.1371C52.2917 36.0024 54.6031 40.6507 62.655 44.5966C62.6055 45.551 62.5401 46.4926 62.45 47.4029C62.2409 49.617 61.3827 51.7201 59.9831 53.4484H59.9838ZM64.8728 47.6432C64.935 47.0144 64.9862 46.3707 65.03 45.7203C70.363 48.4117 73.4429 52.4855 74.6094 58.4056C74.3216 58.4561 74.0424 58.547 73.7801 58.6757C69.7055 59.037 65.4411 59.2296 61.0852 59.2522V55.8765C61.351 55.5937 61.6154 55.3014 61.871 54.9868C63.5732 52.8881 64.6174 50.3333 64.8728 47.6432ZM61.0852 61.6891C64.3032 61.6748 67.52 61.5635 70.7313 61.3554C69.7933 62.161 68.808 62.91 67.7808 63.5983C67.2526 63.4526 66.7077 63.3766 66.1598 63.372C65.2754 63.3677 64.4001 63.5503 63.5913 63.9079C62.7824 64.2655 62.0583 64.79 61.4663 65.447C61.3383 65.4406 61.2125 65.4328 61.0856 65.4258L61.0852 61.6891ZM30.5968 45.7676C31.8253 44.6653 32.7903 43.301 33.4205 41.7755C34.0507 40.2499 34.33 38.6023 34.2377 36.9543C34.0256 32.5047 34.4681 26.5931 37.7686 23.6988C43.2351 18.9028 48.2761 20.9014 48.4819 20.9862C48.7464 21.0989 49.0423 21.1143 49.3171 21.0297C49.5919 20.9452 49.828 20.7661 49.9834 20.5242C52.5048 16.6006 58.4316 16.4383 58.467 16.4376C69.3188 16.4376 72.3019 25.5814 72.8915 33.252C73.0356 34.9781 73.5775 36.6475 74.4747 38.1292C75.3719 39.6109 76.6001 40.8647 78.0629 41.7924C82.281 44.4789 84.3601 47.5736 84.0763 50.7447C83.9624 51.9876 84.1049 53.2408 84.495 54.4264C84.8851 55.6121 85.5145 56.705 86.3442 57.6375C87.9865 59.465 88.1371 62.0207 88.1501 62.3933C87.6464 67.4307 83.3859 68.5555 79.5885 68.5276C79.524 65.7648 79.0169 63.0302 78.0866 60.4279C77.908 59.9267 77.6037 59.4798 77.2029 59.1299C76.0233 51.424 72.0159 46.1402 64.9487 42.9861C53.029 37.6666 53.8908 31.1382 53.9311 30.8762C53.9743 30.6334 53.9427 30.3831 53.8406 30.1586C53.7384 29.9341 53.5704 29.7459 53.3589 29.6189C53.1474 29.492 52.9024 29.4322 52.6562 29.4476C52.41 29.463 52.1743 29.5528 51.9803 29.7051C40.2164 38.9409 39.3868 50.8878 40.238 58.0928C39.2519 57.9764 38.2677 57.8448 37.2857 57.698C36.7945 57.4632 36.2599 57.3331 35.7158 57.3157C35.1717 57.2984 34.6299 57.3943 34.1247 57.5974C33.6196 57.8004 33.1622 58.1062 32.7814 58.4953C32.4007 58.8844 32.1049 59.3483 31.9128 59.8577C31.6674 60.4997 31.4725 61.1599 31.3299 61.8323L29.875 61.6269C29.284 61.5449 28.6831 61.5682 28.1002 61.6958C26.9878 59.9348 26.3717 57.906 26.3172 55.8238C26.2143 53.932 26.5466 52.0418 27.2885 50.2985C28.0304 48.5551 29.1622 47.0052 30.5968 45.7676ZM34.0302 117.58C33.5657 117.213 33.2122 116.725 33.0091 116.169C32.806 115.612 32.7613 115.011 32.8799 114.431L33.6802 110.599C33.7317 110.353 33.7056 110.096 33.6054 109.865C33.5052 109.634 33.3358 109.44 33.1207 109.309C29.4501 107.078 24.8206 102.6 22.3876 100.128C21.8235 99.5558 21.3845 98.8723 21.0985 98.1212C20.8125 97.3701 20.6857 96.5677 20.7262 95.765C20.883 92.8163 21.1982 89.8782 21.6704 86.9633C22.1687 87.2042 22.6973 87.3764 23.2419 87.4752C25.5857 87.8979 27.955 88.1638 30.3342 88.2709L28.2596 95.6056C28.2127 95.7716 28.2015 95.9457 28.2269 96.1163C28.2523 96.2869 28.3137 96.4502 28.407 96.5953C30.6279 100.05 36.0199 105.48 38.8813 108.264C36.9975 111.223 35.3743 114.34 34.0302 117.58ZM41.7445 104.183C41.2288 104.842 40.732 105.515 40.255 106.202C37.7491 103.749 32.9535 98.9106 30.7559 95.7293L32.8499 88.3256C34.281 88.3223 35.6814 88.2634 37.051 88.1489C37.9859 89.374 39.0287 90.5129 40.1669 91.5519C40.6737 92.0287 41.0757 92.6057 41.3474 93.2464C41.619 93.887 41.7542 94.5772 41.7445 95.273V104.183ZM66.141 89.3267C65.1729 90.6396 64.6538 92.2296 64.6607 93.8608V102.07C62.6365 104.989 60.144 107.554 57.2839 109.66C56.7665 110.046 56.155 110.285 55.5133 110.354C54.8716 110.422 54.2234 110.317 53.6363 110.049C50.2198 108.511 47.0363 106.5 44.1793 104.075V95.2737C44.1889 94.2387 43.9827 93.2132 43.5739 92.2623C43.1651 91.3115 42.5626 90.4563 41.805 89.7512C41.1451 89.1494 40.5208 88.5095 39.9354 87.835C47.147 86.8102 54.1058 84.4561 60.4585 80.8923C60.6 80.8156 60.7249 80.7115 60.826 80.5862C60.927 80.4609 61.0023 80.3168 61.0473 80.1622C61.0923 80.0077 61.1062 79.8457 61.0882 79.6857C61.0702 79.5257 61.0207 79.3709 60.9425 79.2302C60.8643 79.0895 60.7589 78.9657 60.6326 78.8659C60.5062 78.7662 60.3613 78.6925 60.2063 78.6491C60.0512 78.6057 59.8891 78.5935 59.7294 78.6132C59.5696 78.6328 59.4153 78.684 59.2754 78.7636C51.3836 83.15 38.8014 87.8053 23.6739 85.0765C22.9366 84.9448 22.2578 84.5892 21.7297 84.0581C21.7054 84.0294 21.6788 84.0036 21.652 83.9771C21.0674 83.3537 20.7218 82.5439 20.676 81.6905C20.5417 79.0775 20.6732 76.4576 21.0684 73.8711C21.108 73.5971 21.2067 73.3351 21.3578 73.1031C21.5089 72.8711 21.7087 72.6749 21.9432 72.5279C22.1814 72.3758 22.4494 72.2766 22.7291 72.2368C23.0089 72.197 23.2939 72.2177 23.565 72.2974L24.2087 72.4869C25.4293 73.0878 36.2907 78.2621 49.151 78.2621C49.3109 78.2621 49.4693 78.2306 49.617 78.1694C49.7648 78.1082 49.899 78.0185 50.0121 77.9054C50.1251 77.7923 50.2148 77.6581 50.276 77.5103C50.3372 77.3626 50.3687 77.2042 50.3687 77.0443C50.3687 76.8844 50.3372 76.726 50.276 76.5783C50.2148 76.4306 50.1251 76.2963 50.0121 76.1832C49.899 76.0702 49.7648 75.9805 49.617 75.9193C49.4693 75.8581 49.3109 75.8266 49.151 75.8266C38.2338 75.8266 28.5611 71.7994 25.9188 70.5979C26.033 69.0912 26.2455 67.5936 26.5551 66.1147C26.6976 65.4567 27.0835 64.8768 27.6356 64.4913C28.1876 64.1059 28.8649 63.9433 29.5318 64.0362L31.9174 64.3731C33.6668 65.5505 44.0004 72.0154 59.9212 72.2147C60.0018 72.8587 60.1312 73.4956 60.3083 74.12C60.6816 75.4224 61.4681 76.5683 62.5493 77.3849C63.6304 78.2016 64.9477 78.6448 66.3026 78.6477C66.8938 78.6477 67.4822 78.5644 68.0502 78.4003L68.3093 78.3253C69.4026 83.8902 67.4532 87.578 66.141 89.3278V89.3267ZM67.6822 75.9711L67.3765 76.0595C66.8953 76.1996 66.3913 76.2433 65.8932 76.1882C65.3951 76.133 64.9128 75.98 64.474 75.738C64.0352 75.496 63.6485 75.1697 63.3361 74.7779C63.0237 74.3861 62.7918 73.9364 62.6536 73.4547C62.263 72.0487 62.1561 70.579 62.339 69.1313C62.4519 68.2095 62.8996 67.3614 63.5969 66.7481C64.2942 66.1347 65.1926 65.799 66.1212 65.8047H66.1449C66.9291 65.8041 67.694 66.0478 68.3334 66.5018C68.9728 66.9557 69.455 67.5976 69.713 68.3381C70.1187 69.5463 70.3596 70.8038 70.4291 72.0765C70.4846 72.9418 70.2424 73.8001 69.7427 74.5088C69.243 75.2175 68.5159 75.7339 67.6822 75.9722V75.9711ZM105.343 98.5218H86.0579C84.4114 98.5195 82.8014 98.0368 81.4252 97.133C77.2989 94.3859 73.3904 91.3252 69.7342 87.9778C70.8529 85.4603 71.6313 81.8372 70.5539 77.1702C70.9846 76.8241 71.3671 76.422 71.6914 75.9747L71.9363 75.9549C75.4408 80.7622 80.93 86.6654 83.9193 89.7806C85.1723 91.0936 86.8901 91.8631 88.7041 91.9241L105.345 92.5215L105.343 98.5218ZM120.122 40.4096L117.535 46.9561C117.513 46.9317 117.493 46.9062 117.471 46.8822L113.639 42.8062L119.836 35.1279C120.424 36.0568 120.529 37.2286 120.54 38.2233C120.544 38.9723 120.402 39.7149 120.122 40.4096ZM111.517 17.8773L120.494 30.2354L111.956 41.0147L104.472 33.0547L102.922 30.3276L111.517 17.8773ZM102.798 42.4142C102.189 41.8468 101.745 41.125 101.514 40.3255C101.283 39.526 101.273 38.6788 101.485 37.8741C101.78 36.8519 102.416 35.9617 103.288 35.352L115.69 48.546C116.072 48.9459 116.343 49.4392 116.476 49.9765C116.609 50.5139 116.598 51.0766 116.445 51.6086C116.156 52.518 115.647 53.3419 114.963 54.0069L102.798 42.4142ZM107.165 49.9391L113.712 56.1769V87.0383C113.684 87.0383 113.658 87.034 113.63 87.034H110.944V60.9359C110.941 59.2628 110.362 57.6418 109.303 56.3463C108.095 54.8669 106.866 52.645 107.165 49.9391ZM113.63 101.907H110.692C109.92 101.906 109.179 101.599 108.633 101.053C108.087 100.506 107.78 99.7658 107.779 98.9933V92.3832C107.78 91.6108 108.087 90.8703 108.633 90.3241C109.179 89.7779 109.92 89.4707 110.692 89.4699H113.63C114.403 89.4706 115.143 89.7778 115.689 90.324C116.236 90.8702 116.543 91.6108 116.544 92.3832V98.9933C116.543 99.7658 116.236 100.506 115.689 101.053C115.143 101.599 114.403 101.906 113.63 101.907Z" fill="url(#paint18_linear_2603_12437)"/>
</g>
<defs>
<linearGradient id="paint0_linear_2603_12437" x1="110.52" y1="18.668" x2="112.877" y2="41.2059" gradientUnits="userSpaceOnUse">
<stop stop-color="#EBFEFF"/>
<stop offset="0.073" stop-color="#E3F9FF"/>
<stop offset="0.703" stop-color="#A2CEFD"/>
<stop offset="1" stop-color="#89BDFC"/>
</linearGradient>
<linearGradient id="paint1_linear_2603_12437" x1="58.7934" y1="13.4452" x2="62.1207" y2="118.132" gradientUnits="userSpaceOnUse">
<stop stop-color="#444456"/>
<stop offset="1" stop-color="#363644"/>
</linearGradient>
<linearGradient id="paint2_linear_2603_12437" x1="111.305" y1="101.881" x2="111.822" y2="130.032" gradientUnits="userSpaceOnUse">
<stop stop-color="#FF7B72"/>
<stop offset="0.291" stop-color="#F37169"/>
<stop offset="1" stop-color="#DA5B55"/>
</linearGradient>
<linearGradient id="paint3_linear_2603_12437" x1="58.7923" y1="13.4455" x2="62.1196" y2="118.132" gradientUnits="userSpaceOnUse">
<stop stop-color="#444456"/>
<stop offset="1" stop-color="#363644"/>
</linearGradient>
<linearGradient id="paint4_linear_2603_12437" x1="57.2287" y1="27.147" x2="57.2287" y2="67.4798" gradientUnits="userSpaceOnUse">
<stop stop-color="#FFAC8A"/>
<stop offset="0.553" stop-color="#FF9565"/>
<stop offset="1" stop-color="#FF854C"/>
</linearGradient>
<linearGradient id="paint5_linear_2603_12437" x1="85.4079" y1="116.838" x2="85.4079" y2="69.0214" gradientUnits="userSpaceOnUse">
<stop stop-color="#F771A8"/>
<stop offset="1" stop-color="#C14778"/>
</linearGradient>
<linearGradient id="paint6_linear_2603_12437" x1="58.7947" y1="13.4461" x2="62.122" y2="118.133" gradientUnits="userSpaceOnUse">
<stop stop-color="#444456"/>
<stop offset="1" stop-color="#363644"/>
</linearGradient>
<linearGradient id="paint7_linear_2603_12437" x1="54.9212" y1="58.9163" x2="54.9212" y2="70.9191" gradientUnits="userSpaceOnUse">
<stop stop-color="#FFE1DB"/>
<stop offset="1" stop-color="#FEB5A9"/>
</linearGradient>
<linearGradient id="paint8_linear_2603_12437" x1="85.4084" y1="116.839" x2="85.4084" y2="69.0218" gradientUnits="userSpaceOnUse">
<stop stop-color="#F771A8"/>
<stop offset="1" stop-color="#C14778"/>
</linearGradient>
<linearGradient id="paint9_linear_2603_12437" x1="54.9215" y1="58.9161" x2="54.9215" y2="70.9189" gradientUnits="userSpaceOnUse">
<stop stop-color="#FFE1DB"/>
<stop offset="1" stop-color="#FEB5A9"/>
</linearGradient>
<linearGradient id="paint10_linear_2603_12437" x1="54.92" y1="58.9161" x2="54.92" y2="70.9188" gradientUnits="userSpaceOnUse">
<stop stop-color="#FFE1DB"/>
<stop offset="1" stop-color="#FEB5A9"/>
</linearGradient>
<linearGradient id="paint11_linear_2603_12437" x1="56.8194" y1="123.152" x2="56.8194" y2="89.6059" gradientUnits="userSpaceOnUse">
<stop stop-color="#F9FFFF"/>
<stop offset="1" stop-color="#CCE2EC"/>
</linearGradient>
<linearGradient id="paint12_linear_2603_12437" x1="56.8196" y1="123.152" x2="56.8196" y2="89.606" gradientUnits="userSpaceOnUse">
<stop stop-color="#F9FFFF"/>
<stop offset="1" stop-color="#CCE2EC"/>
</linearGradient>
<linearGradient id="paint13_linear_2603_12437" x1="85.4089" y1="116.838" x2="85.4089" y2="69.0215" gradientUnits="userSpaceOnUse">
<stop stop-color="#F771A8"/>
<stop offset="1" stop-color="#C14778"/>
</linearGradient>
<linearGradient id="paint14_linear_2603_12437" x1="85.4093" y1="116.838" x2="85.4093" y2="69.0208" gradientUnits="userSpaceOnUse">
<stop stop-color="#F771A8"/>
<stop offset="1" stop-color="#C14778"/>
</linearGradient>
<linearGradient id="paint15_linear_2603_12437" x1="111.306" y1="101.881" x2="111.822" y2="130.032" gradientUnits="userSpaceOnUse">
<stop stop-color="#FF7B72"/>
<stop offset="0.291" stop-color="#F37169"/>
<stop offset="1" stop-color="#DA5B55"/>
</linearGradient>
<linearGradient id="paint16_linear_2603_12437" x1="54.9209" y1="58.9156" x2="54.9209" y2="70.9184" gradientUnits="userSpaceOnUse">
<stop stop-color="#FFE1DB"/>
<stop offset="1" stop-color="#FEB5A9"/>
</linearGradient>
<linearGradient id="paint17_linear_2603_12437" x1="112.102" y1="88.4916" x2="112.247" y2="105.72" gradientUnits="userSpaceOnUse">
<stop stop-color="#FFE1DB"/>
<stop offset="1" stop-color="#FEB5A9"/>
</linearGradient>
<linearGradient id="paint18_linear_2603_12437" x1="58.7936" y1="13.4457" x2="62.1209" y2="118.133" gradientUnits="userSpaceOnUse">
<stop stop-color="#444456"/>
<stop offset="1" stop-color="#363644"/>
</linearGradient>
</defs>
</svg>
