<svg width="509" height="358" viewBox="0 0 509 358" fill="none" xmlns="http://www.w3.org/2000/svg">
<path fill-rule="evenodd" clip-rule="evenodd" d="M330.485 18.9043C305.478 18.9043 285.145 27.3524 267.413 36.5394C262.054 39.3153 257.076 42.0614 252.319 44.6855C240.68 51.1061 230.364 56.7969 219.036 60.4113C212.382 62.5342 206.488 64.4145 202.31 66.0521C198.376 67.5933 193.702 69.7054 190.385 73.3913C187.406 76.7023 185.876 80.4194 184.861 83.975C183.94 87.2026 183.152 91.5721 182.397 95.7642C163.982 197.891 204.249 294.642 302.58 332.289C312.244 335.99 319.363 338.717 330.534 338.717C341.707 338.717 348.825 335.99 358.489 332.289C456.817 294.641 497.044 197.886 478.624 95.7634C477.868 91.5709 477.08 87.2003 476.159 83.9726C475.143 80.4167 473.613 76.6992 470.633 73.3881C467.316 69.7023 462.642 67.5908 458.708 66.05C454.529 64.413 448.636 62.5337 441.982 60.4121C430.649 56.7975 420.324 51.1055 408.676 44.684C403.917 42.0605 398.936 39.3143 393.578 36.5392C375.835 27.3526 355.495 18.9043 330.485 18.9043ZM293.313 129.537V145.33C292.195 145.668 291.085 146.075 289.982 146.565C280.757 150.658 273.662 158.398 270.014 167.833C268.438 171.909 267.833 176.093 267.552 180.505C267.281 184.752 267.281 189.924 267.281 196.124V196.826C267.281 203.024 267.281 208.198 267.552 212.444C267.833 216.856 268.438 221.042 270.014 225.116C273.662 234.553 280.757 242.291 289.982 246.385C294.033 248.183 298.18 248.861 302.428 249.172C306.468 249.467 311.364 249.467 317.096 249.467H343.904C349.638 249.467 354.532 249.467 358.572 249.172C362.821 248.861 366.968 248.183 371.018 246.385C380.244 242.291 387.339 234.553 390.986 225.116C392.562 221.042 393.167 216.856 393.448 212.444C393.719 208.198 393.719 203.024 393.719 196.826V196.124C393.719 189.924 393.719 184.752 393.448 180.505C393.167 176.093 392.562 171.909 390.986 167.833C387.339 158.398 380.244 150.658 371.018 146.565C369.916 146.075 368.805 145.668 367.688 145.33V129.537C367.688 109.134 350.653 93.2793 330.5 93.2793C310.348 93.2793 293.313 109.134 293.313 129.537ZM330.5 115.592C321.9 115.592 315.625 122.214 315.625 129.537V143.483L317.096 143.482H343.904L345.375 143.483V129.537C345.375 122.214 339.101 115.592 330.5 115.592Z" fill="#709AC1"/>
<g filter="url(#filter0_b_16_2)">
<rect x="102" y="274.311" width="242" height="74" rx="20" fill="url(#paint0_linear_16_2)" fill-opacity="0.16"/>
<rect x="102.5" y="274.811" width="241" height="73" rx="19.5" stroke="url(#paint1_linear_16_2)"/>
<g filter="url(#filter1_d_16_2)">
<g clip-path="url(#clip0_16_2)">
<rect x="114" y="285.311" width="52" height="52" rx="16" fill="white" fill-opacity="0.07" shape-rendering="crispEdges"/>
<path d="M147.043 314.845C147.18 314.926 147.35 315.022 147.542 315.131C148.385 315.606 149.658 316.324 150.531 317.178C151.076 317.712 151.595 318.416 151.689 319.278C151.789 320.195 151.389 321.056 150.587 321.82C149.202 323.139 147.541 324.196 145.392 324.196H134.97C132.821 324.196 131.16 323.139 129.776 321.82C128.973 321.056 128.573 320.195 128.673 319.278C128.768 318.416 129.286 317.712 129.832 317.178C130.704 316.324 131.977 315.606 132.82 315.131C133.012 315.022 133.182 314.926 133.319 314.845C137.52 312.343 142.843 312.343 147.043 314.845Z" fill="#4770FF"/>
<path opacity="0.4" d="M133.977 304.992C133.977 301.565 136.754 298.787 140.181 298.787C143.608 298.787 146.386 301.565 146.386 304.992C146.386 308.418 143.608 311.196 140.181 311.196C136.754 311.196 133.977 308.418 133.977 304.992Z" fill="#4770FF"/>
<g filter="url(#filter2_f_16_2)">
<circle cx="140.467" cy="314.777" r="6.5" fill="#4871FE"/>
</g>
</g>
</g>
<path d="M193.915 295.129H195.148V301.87C195.148 302.566 194.984 303.188 194.656 303.735C194.331 304.278 193.872 304.707 193.278 305.022C192.685 305.334 191.989 305.49 191.19 305.49C190.392 305.49 189.696 305.334 189.102 305.022C188.509 304.707 188.048 304.278 187.72 303.735C187.395 303.188 187.233 302.566 187.233 301.87V295.129H188.466V301.771C188.466 302.268 188.575 302.71 188.794 303.098C189.013 303.483 189.324 303.786 189.729 304.008C190.136 304.227 190.624 304.336 191.19 304.336C191.757 304.336 192.244 304.227 192.652 304.008C193.06 303.786 193.371 303.483 193.587 303.098C193.805 302.71 193.915 302.268 193.915 301.771V295.129ZM202.86 299.384L201.806 299.683C201.74 299.507 201.642 299.336 201.513 299.171C201.387 299.002 201.214 298.862 200.996 298.753C200.777 298.644 200.497 298.589 200.155 298.589C199.688 298.589 199.299 298.697 198.987 298.912C198.679 299.124 198.525 299.394 198.525 299.722C198.525 300.014 198.631 300.244 198.843 300.414C199.055 300.583 199.386 300.723 199.837 300.836L200.971 301.115C201.653 301.28 202.162 301.534 202.497 301.875C202.832 302.213 202.999 302.649 202.999 303.183C202.999 303.62 202.873 304.011 202.621 304.356C202.373 304.701 202.025 304.972 201.577 305.171C201.13 305.37 200.609 305.47 200.016 305.47C199.237 305.47 198.593 305.301 198.082 304.963C197.572 304.624 197.249 304.131 197.113 303.481L198.226 303.203C198.332 303.614 198.533 303.922 198.828 304.127C199.126 304.333 199.516 304.436 199.996 304.436C200.543 304.436 200.977 304.32 201.299 304.088C201.624 303.852 201.786 303.57 201.786 303.242C201.786 302.977 201.693 302.755 201.508 302.576C201.322 302.394 201.037 302.258 200.653 302.169L199.38 301.87C198.68 301.704 198.167 301.448 197.839 301.1C197.514 300.748 197.351 300.309 197.351 299.782C197.351 299.351 197.472 298.97 197.714 298.639C197.96 298.307 198.293 298.047 198.714 297.858C199.138 297.669 199.618 297.575 200.155 297.575C200.911 297.575 201.504 297.74 201.935 298.072C202.369 298.403 202.678 298.841 202.86 299.384ZM207.967 305.47C207.231 305.47 206.596 305.307 206.063 304.982C205.533 304.654 205.123 304.197 204.835 303.61C204.55 303.02 204.407 302.334 204.407 301.552C204.407 300.77 204.55 300.08 204.835 299.484C205.123 298.884 205.524 298.417 206.038 298.082C206.555 297.744 207.158 297.575 207.848 297.575C208.245 297.575 208.638 297.641 209.026 297.774C209.414 297.906 209.767 298.122 210.085 298.42C210.403 298.715 210.657 299.106 210.846 299.593C211.034 300.08 211.129 300.68 211.129 301.393V301.89H205.243V300.876H209.936C209.936 300.445 209.85 300.061 209.677 299.722C209.508 299.384 209.266 299.118 208.951 298.922C208.64 298.727 208.272 298.629 207.848 298.629C207.38 298.629 206.976 298.745 206.635 298.977C206.297 299.205 206.036 299.504 205.854 299.872C205.672 300.24 205.581 300.634 205.581 301.055V301.731C205.581 302.308 205.68 302.797 205.879 303.198C206.081 303.595 206.361 303.899 206.719 304.107C207.077 304.313 207.493 304.416 207.967 304.416C208.275 304.416 208.554 304.373 208.802 304.286C209.054 304.197 209.271 304.064 209.453 303.889C209.636 303.71 209.777 303.488 209.876 303.222L211.01 303.541C210.89 303.925 210.69 304.263 210.408 304.555C210.126 304.843 209.778 305.069 209.364 305.231C208.95 305.39 208.484 305.47 207.967 305.47ZM212.914 305.311V297.674H214.047V298.828H214.127C214.266 298.45 214.518 298.143 214.882 297.908C215.247 297.673 215.658 297.555 216.115 297.555C216.202 297.555 216.309 297.557 216.439 297.56C216.568 297.563 216.666 297.568 216.732 297.575V298.768C216.692 298.758 216.601 298.743 216.458 298.723C216.319 298.7 216.172 298.688 216.016 298.688C215.645 298.688 215.313 298.766 215.022 298.922C214.733 299.075 214.505 299.287 214.336 299.558C214.17 299.827 214.087 300.133 214.087 300.478V305.311H212.914ZM223.233 300.717V305.311H222.06V297.674H223.194V298.867H223.293C223.472 298.48 223.744 298.168 224.108 297.933C224.473 297.694 224.944 297.575 225.52 297.575C226.037 297.575 226.49 297.681 226.878 297.893C227.265 298.102 227.567 298.42 227.782 298.847C227.998 299.272 228.106 299.809 228.106 300.458V305.311H226.932V300.538C226.932 299.938 226.777 299.471 226.465 299.136C226.153 298.798 225.726 298.629 225.182 298.629C224.808 298.629 224.473 298.71 224.178 298.872C223.886 299.035 223.656 299.272 223.487 299.583C223.318 299.895 223.233 300.273 223.233 300.717ZM232.497 305.49C232.013 305.49 231.574 305.398 231.179 305.216C230.785 305.03 230.472 304.764 230.24 304.416C230.008 304.064 229.892 303.64 229.892 303.143C229.892 302.705 229.978 302.351 230.15 302.079C230.323 301.804 230.553 301.588 230.841 301.433C231.13 301.277 231.448 301.161 231.796 301.085C232.147 301.005 232.5 300.942 232.855 300.896C233.319 300.836 233.695 300.791 233.983 300.762C234.275 300.728 234.487 300.674 234.62 300.597C234.756 300.521 234.824 300.389 234.824 300.2V300.16C234.824 299.669 234.689 299.288 234.421 299.017C234.156 298.745 233.753 298.609 233.213 298.609C232.653 298.609 232.213 298.731 231.895 298.977C231.577 299.222 231.353 299.484 231.224 299.762L230.11 299.365C230.309 298.901 230.574 298.539 230.906 298.281C231.241 298.019 231.605 297.837 232 297.734C232.397 297.628 232.788 297.575 233.173 297.575C233.418 297.575 233.7 297.605 234.018 297.664C234.34 297.721 234.65 297.838 234.948 298.017C235.249 298.196 235.5 298.466 235.699 298.828C235.897 299.189 235.997 299.673 235.997 300.279V305.311H234.824V304.276H234.764C234.684 304.442 234.552 304.619 234.366 304.808C234.181 304.997 233.934 305.158 233.625 305.291C233.317 305.423 232.941 305.49 232.497 305.49ZM232.676 304.436C233.14 304.436 233.531 304.344 233.849 304.162C234.171 303.98 234.413 303.744 234.575 303.456C234.741 303.168 234.824 302.865 234.824 302.546V301.472C234.774 301.532 234.664 301.587 234.495 301.637C234.33 301.683 234.137 301.724 233.919 301.761C233.703 301.794 233.493 301.824 233.287 301.85C233.085 301.874 232.921 301.893 232.795 301.91C232.49 301.95 232.205 302.014 231.94 302.104C231.678 302.19 231.466 302.321 231.304 302.497C231.145 302.669 231.065 302.904 231.065 303.203C231.065 303.61 231.216 303.919 231.517 304.127C231.822 304.333 232.208 304.436 232.676 304.436ZM238.138 305.311V297.674H239.272V298.867H239.371C239.53 298.46 239.787 298.143 240.142 297.918C240.497 297.689 240.922 297.575 241.42 297.575C241.923 297.575 242.343 297.689 242.677 297.918C243.015 298.143 243.279 298.46 243.468 298.867H243.547C243.743 298.473 244.036 298.16 244.427 297.928C244.818 297.692 245.287 297.575 245.834 297.575C246.517 297.575 247.076 297.789 247.51 298.216C247.944 298.64 248.161 299.302 248.161 300.2V305.311H246.988V300.2C246.988 299.636 246.834 299.234 246.525 298.992C246.217 298.75 245.854 298.629 245.437 298.629C244.9 298.629 244.484 298.791 244.189 299.116C243.894 299.437 243.746 299.845 243.746 300.339V305.311H242.553V300.08C242.553 299.646 242.412 299.297 242.131 299.031C241.849 298.763 241.486 298.629 241.042 298.629C240.737 298.629 240.452 298.71 240.187 298.872C239.925 299.035 239.713 299.26 239.55 299.548C239.391 299.834 239.312 300.163 239.312 300.538V305.311H238.138ZM253.508 305.47C252.772 305.47 252.137 305.307 251.604 304.982C251.074 304.654 250.664 304.197 250.376 303.61C250.091 303.02 249.948 302.334 249.948 301.552C249.948 300.77 250.091 300.08 250.376 299.484C250.664 298.884 251.065 298.417 251.579 298.082C252.096 297.744 252.699 297.575 253.389 297.575C253.786 297.575 254.179 297.641 254.567 297.774C254.955 297.906 255.308 298.122 255.626 298.42C255.944 298.715 256.198 299.106 256.387 299.593C256.575 300.08 256.67 300.68 256.67 301.393V301.89H250.784V300.876H255.477C255.477 300.445 255.391 300.061 255.218 299.722C255.049 299.384 254.807 299.118 254.492 298.922C254.181 298.727 253.813 298.629 253.389 298.629C252.921 298.629 252.517 298.745 252.176 298.977C251.838 299.205 251.577 299.504 251.395 299.872C251.213 300.24 251.122 300.634 251.122 301.055V301.731C251.122 302.308 251.221 302.797 251.42 303.198C251.622 303.595 251.902 303.899 252.26 304.107C252.618 304.313 253.034 304.416 253.508 304.416C253.816 304.416 254.095 304.373 254.343 304.286C254.595 304.197 254.812 304.064 254.994 303.889C255.177 303.71 255.318 303.488 255.417 303.222L256.551 303.541C256.431 303.925 256.231 304.263 255.949 304.555C255.667 304.843 255.319 305.069 254.905 305.231C254.491 305.39 254.025 305.47 253.508 305.47Z" fill="#AFB3CA"/>
<path d="M195.153 320.35C195.044 320.006 194.896 319.697 194.71 319.424C194.528 319.148 194.311 318.913 194.057 318.72C193.803 318.523 193.513 318.373 193.188 318.271C192.866 318.169 192.511 318.117 192.125 318.117C191.47 318.117 190.879 318.286 190.352 318.623C189.826 318.96 189.409 319.454 189.102 320.106C188.799 320.754 188.648 321.547 188.648 322.487C188.648 323.43 188.801 324.227 189.108 324.879C189.415 325.53 189.835 326.025 190.369 326.362C190.903 326.699 191.511 326.867 192.193 326.867C192.826 326.867 193.377 326.739 193.847 326.481C194.32 326.223 194.686 325.86 194.943 325.39C195.205 324.917 195.335 324.36 195.335 323.72L195.79 323.805H192.46V322.356H197.034V323.68C197.034 324.657 196.826 325.506 196.409 326.225C195.996 326.941 195.424 327.494 194.693 327.884C193.966 328.275 193.133 328.47 192.193 328.47C191.14 328.47 190.216 328.227 189.42 327.742C188.629 327.258 188.011 326.57 187.568 325.68C187.125 324.786 186.903 323.725 186.903 322.498C186.903 321.57 187.032 320.737 187.29 319.998C187.547 319.259 187.909 318.633 188.375 318.117C188.845 317.598 189.396 317.203 190.028 316.93C190.665 316.653 191.36 316.515 192.114 316.515C192.742 316.515 193.328 316.608 193.869 316.794C194.415 316.979 194.9 317.242 195.324 317.583C195.752 317.924 196.106 318.329 196.386 318.799C196.667 319.265 196.856 319.782 196.955 320.35H195.153ZM204.155 324.691V319.583H205.859V328.311H204.189V326.799H204.098C203.897 327.265 203.575 327.653 203.132 327.964C202.693 328.271 202.145 328.424 201.49 328.424C200.929 328.424 200.433 328.301 200.001 328.055C199.573 327.805 199.236 327.436 198.99 326.947C198.748 326.458 198.626 325.854 198.626 325.134V319.583H200.325V324.93C200.325 325.525 200.49 325.998 200.82 326.35C201.149 326.703 201.577 326.879 202.104 326.879C202.422 326.879 202.738 326.799 203.053 326.64C203.371 326.481 203.634 326.24 203.842 325.919C204.054 325.597 204.159 325.187 204.155 324.691ZM208.716 331.583C208.462 331.583 208.231 331.562 208.023 331.521C207.814 331.483 207.659 331.441 207.557 331.396L207.966 330.004C208.277 330.087 208.553 330.123 208.795 330.112C209.038 330.1 209.252 330.009 209.438 329.839C209.627 329.669 209.794 329.39 209.938 329.004L210.148 328.424L206.955 319.583H208.773L210.983 326.356H211.074L213.284 319.583H215.108L211.511 329.475C211.345 329.93 211.133 330.314 210.875 330.629C210.617 330.947 210.311 331.186 209.955 331.345C209.598 331.504 209.186 331.583 208.716 331.583ZM220.075 328.311V316.674H221.831V321.731H227.632V316.674H229.393V328.311H227.632V323.237H221.831V328.311H220.075ZM233.854 328.504C233.301 328.504 232.801 328.401 232.354 328.197C231.907 327.989 231.553 327.687 231.291 327.294C231.034 326.9 230.905 326.417 230.905 325.845C230.905 325.352 231 324.947 231.189 324.629C231.378 324.311 231.634 324.059 231.956 323.873C232.278 323.687 232.638 323.547 233.036 323.453C233.433 323.358 233.839 323.286 234.251 323.237C234.774 323.176 235.198 323.127 235.524 323.089C235.85 323.047 236.087 322.981 236.234 322.89C236.382 322.799 236.456 322.651 236.456 322.447V322.407C236.456 321.911 236.316 321.526 236.036 321.254C235.759 320.981 235.346 320.845 234.797 320.845C234.225 320.845 233.774 320.972 233.445 321.225C233.119 321.475 232.893 321.754 232.768 322.061L231.172 321.697C231.361 321.167 231.638 320.739 232.001 320.413C232.369 320.083 232.791 319.845 233.268 319.697C233.746 319.545 234.248 319.47 234.774 319.47C235.123 319.47 235.492 319.511 235.882 319.595C236.276 319.674 236.643 319.822 236.984 320.038C237.329 320.254 237.611 320.562 237.831 320.964C238.051 321.362 238.161 321.879 238.161 322.515V328.311H236.501V327.117H236.433C236.323 327.337 236.159 327.553 235.939 327.765C235.719 327.977 235.437 328.153 235.092 328.294C234.748 328.434 234.335 328.504 233.854 328.504ZM234.223 327.14C234.693 327.14 235.094 327.047 235.428 326.862C235.765 326.676 236.02 326.434 236.195 326.134C236.373 325.831 236.462 325.508 236.462 325.163V324.038C236.401 324.098 236.284 324.155 236.109 324.208C235.939 324.258 235.744 324.301 235.524 324.339C235.304 324.373 235.09 324.405 234.882 324.436C234.674 324.462 234.5 324.485 234.359 324.504C234.03 324.545 233.729 324.615 233.456 324.714C233.187 324.812 232.971 324.954 232.808 325.14C232.649 325.322 232.57 325.564 232.57 325.867C232.57 326.288 232.725 326.606 233.036 326.822C233.346 327.034 233.742 327.14 234.223 327.14ZM241.815 328.311L239.247 319.583H241.003L242.713 325.992H242.798L244.514 319.583H246.27L247.974 325.964H248.06L249.759 319.583H251.514L248.952 328.311H247.219L245.446 322.009H245.315L243.543 328.311H241.815ZM254.189 325.35L254.178 323.276H254.473L257.95 319.583H259.984L256.018 323.788H255.751L254.189 325.35ZM252.626 328.311V316.674H254.325V328.311H252.626ZM258.138 328.311L255.013 324.163L256.183 322.975L260.223 328.311H258.138ZM261.033 328.311V319.583H262.732V328.311H261.033ZM261.891 318.237C261.595 318.237 261.341 318.138 261.129 317.941C260.921 317.74 260.817 317.502 260.817 317.225C260.817 316.945 260.921 316.706 261.129 316.509C261.341 316.309 261.595 316.208 261.891 316.208C262.186 316.208 262.438 316.309 262.646 316.509C262.858 316.706 262.964 316.945 262.964 317.225C262.964 317.502 262.858 317.74 262.646 317.941C262.438 318.138 262.186 318.237 261.891 318.237ZM266.216 323.129V328.311H264.517V319.583H266.148V321.004H266.256C266.456 320.542 266.771 320.17 267.199 319.89C267.631 319.61 268.174 319.47 268.83 319.47C269.424 319.47 269.945 319.595 270.392 319.845C270.839 320.091 271.186 320.458 271.432 320.947C271.678 321.436 271.801 322.04 271.801 322.759V328.311H270.102V322.964C270.102 322.331 269.938 321.837 269.608 321.481C269.278 321.121 268.826 320.941 268.25 320.941C267.856 320.941 267.506 321.026 267.199 321.197C266.896 321.367 266.655 321.617 266.477 321.947C266.303 322.273 266.216 322.667 266.216 323.129ZM280.119 321.714L278.58 321.987C278.515 321.79 278.413 321.602 278.273 321.424C278.136 321.246 277.951 321.1 277.716 320.987C277.481 320.873 277.188 320.816 276.835 320.816C276.354 320.816 275.953 320.924 275.631 321.14C275.309 321.352 275.148 321.627 275.148 321.964C275.148 322.256 275.256 322.49 275.472 322.669C275.688 322.847 276.036 322.992 276.517 323.106L277.903 323.424C278.706 323.61 279.305 323.896 279.699 324.282C280.093 324.669 280.29 325.17 280.29 325.788C280.29 326.311 280.138 326.776 279.835 327.186C279.536 327.591 279.117 327.909 278.58 328.14C278.045 328.371 277.426 328.487 276.722 328.487C275.744 328.487 274.947 328.278 274.33 327.862C273.712 327.441 273.333 326.845 273.193 326.072L274.835 325.822C274.938 326.25 275.148 326.574 275.466 326.794C275.784 327.009 276.199 327.117 276.71 327.117C277.267 327.117 277.712 327.002 278.045 326.771C278.379 326.536 278.545 326.25 278.545 325.913C278.545 325.64 278.443 325.411 278.239 325.225C278.038 325.04 277.729 324.9 277.312 324.805L275.835 324.481C275.021 324.295 274.419 324 274.028 323.595C273.642 323.189 273.449 322.676 273.449 322.055C273.449 321.54 273.593 321.089 273.881 320.703C274.169 320.316 274.566 320.015 275.074 319.799C275.581 319.579 276.163 319.47 276.818 319.47C277.761 319.47 278.504 319.674 279.045 320.083C279.587 320.489 279.945 321.032 280.119 321.714Z" fill="#AFB3CA"/>
</g>
<g filter="url(#filter3_b_16_2)">
<rect y="154.311" width="242" height="74" rx="20" fill="url(#paint2_linear_16_2)" fill-opacity="0.16"/>
<rect x="0.5" y="154.811" width="241" height="73" rx="19.5" stroke="url(#paint3_linear_16_2)"/>
<g filter="url(#filter4_d_16_2)">
<g clip-path="url(#clip1_16_2)">
<rect x="12" y="165.311" width="52" height="52" rx="16" fill="white" fill-opacity="0.07" shape-rendering="crispEdges"/>
<path d="M25.4973 189.91C25.5343 188.179 25.5648 186.748 25.7664 185.588L28.4239 186.955C28.3049 186.913 28.2135 186.91 28.131 186.955C27.9575 187.051 27.9461 187.291 27.9232 187.77C27.8924 188.416 27.8757 189.165 27.8568 190.05C27.8323 191.196 27.8323 191.788 27.8568 192.934C27.8962 194.778 27.926 196.029 28.0935 196.993C28.2512 197.9 28.5143 198.438 28.9644 198.89C29.4098 199.336 29.956 199.604 30.8935 199.767C31.8841 199.939 33.1761 199.975 35.0705 200.022C37.3423 200.079 39.02 200.079 41.2918 200.022C43.1861 199.975 44.4782 199.939 45.4688 199.767C46.4062 199.604 46.9524 199.336 47.3979 198.89C47.8479 198.438 48.1111 197.9 48.2688 196.993C48.4362 196.029 48.4661 194.778 48.5055 192.934C48.5299 191.788 48.5299 191.196 48.5055 190.05C48.4866 189.165 48.4698 188.416 48.4391 187.77C48.4161 187.29 48.4047 187.051 48.2312 186.955C48.1486 186.91 48.057 186.913 47.9376 186.955L50.5958 185.588C50.7974 186.748 50.828 188.179 50.8649 189.91L50.8667 190C50.8919 191.179 50.8919 191.805 50.8667 192.985L50.8649 193.074C50.828 194.806 50.7975 196.237 50.5958 197.396C50.381 198.632 49.9569 199.667 49.0711 200.555C48.1807 201.447 47.1295 201.873 45.874 202.091C44.691 202.297 43.2233 202.333 41.4395 202.378L41.3511 202.38C39.0397 202.438 37.3225 202.438 35.0111 202.38L34.9227 202.378C33.1389 202.333 31.6712 202.297 30.4883 202.091C29.2327 201.873 28.1815 201.447 27.2911 200.555C26.4054 199.667 25.9813 198.632 25.7664 197.396C25.5648 196.237 25.5343 194.806 25.4974 193.074L25.4955 192.985C25.4703 191.805 25.4703 191.179 25.4954 190L25.4973 189.91Z" fill="#F9A876"/>
<path opacity="0.4" d="M35.0123 180.604C37.3236 180.546 39.0409 180.546 41.3522 180.604L41.4407 180.606C43.2245 180.651 44.6922 180.688 45.8752 180.894C46.3128 180.97 46.7255 181.071 47.1154 181.208C47.2189 181.233 47.3184 181.271 47.4111 181.322C48.0208 181.574 48.572 181.928 49.0723 182.43C49.958 183.318 50.3821 184.353 50.597 185.588L47.9387 186.956C47.8074 187.002 47.6425 187.096 47.4189 187.222L42.4129 190.059C40.877 190.929 39.578 191.492 38.182 191.492C36.786 191.492 35.4871 190.929 33.9512 190.059L28.9457 187.223C28.7217 187.096 28.5565 187.002 28.425 186.956L25.7676 185.588C25.9824 184.353 26.4065 183.318 27.2922 182.43C28.1826 181.537 29.2339 181.112 30.4894 180.894C31.6724 180.688 33.14 180.651 34.9238 180.606L35.0123 180.604Z" fill="#F9A876"/>
<g filter="url(#filter5_f_16_2)">
<circle cx="37.4668" cy="193.777" r="6.5" fill="#F9A876"/>
</g>
</g>
</g>
<path d="M85.233 185.311V175.129H91.3778V176.222H86.4659V179.663H91.0597V180.757H86.4659V184.217H91.4574V185.311H85.233ZM93.4411 185.311V177.674H94.5746V178.867H94.674C94.8331 178.46 95.09 178.143 95.4446 177.918C95.7992 177.689 96.2251 177.575 96.7223 177.575C97.2261 177.575 97.6454 177.689 97.9801 177.918C98.3182 178.143 98.5817 178.46 98.7706 178.867H98.8501C99.0457 178.473 99.339 178.16 99.7301 177.928C100.121 177.692 100.59 177.575 101.137 177.575C101.82 177.575 102.378 177.789 102.812 178.216C103.247 178.64 103.464 179.302 103.464 180.2V185.311H102.29V180.2C102.29 179.636 102.136 179.234 101.828 178.992C101.52 178.75 101.157 178.629 100.739 178.629C100.202 178.629 99.7865 178.791 99.4915 179.116C99.1965 179.437 99.049 179.845 99.049 180.339V185.311H97.8558V180.08C97.8558 179.646 97.715 179.297 97.4332 179.031C97.1515 178.763 96.7886 178.629 96.3445 178.629C96.0395 178.629 95.7545 178.71 95.4893 178.872C95.2275 179.035 95.0154 179.26 94.853 179.548C94.6939 179.834 94.6143 180.163 94.6143 180.538V185.311H93.4411ZM107.856 185.49C107.372 185.49 106.933 185.398 106.539 185.216C106.144 185.03 105.831 184.764 105.599 184.416C105.367 184.064 105.251 183.64 105.251 183.143C105.251 182.705 105.337 182.351 105.51 182.079C105.682 181.804 105.912 181.588 106.201 181.433C106.489 181.277 106.807 181.161 107.155 181.085C107.507 181.005 107.859 180.942 108.214 180.896C108.678 180.836 109.054 180.791 109.343 180.762C109.634 180.728 109.846 180.674 109.979 180.597C110.115 180.521 110.183 180.389 110.183 180.2V180.16C110.183 179.669 110.049 179.288 109.78 179.017C109.515 178.745 109.112 178.609 108.572 178.609C108.012 178.609 107.573 178.731 107.255 178.977C106.936 179.222 106.713 179.484 106.583 179.762L105.47 179.365C105.669 178.901 105.934 178.539 106.265 178.281C106.6 178.019 106.965 177.837 107.359 177.734C107.757 177.628 108.148 177.575 108.532 177.575C108.778 177.575 109.059 177.605 109.377 177.664C109.699 177.721 110.009 177.838 110.307 178.017C110.609 178.196 110.859 178.466 111.058 178.828C111.257 179.189 111.356 179.673 111.356 180.279V185.311H110.183V184.276H110.123C110.044 184.442 109.911 184.619 109.725 184.808C109.54 184.997 109.293 185.158 108.985 185.291C108.676 185.423 108.3 185.49 107.856 185.49ZM108.035 184.436C108.499 184.436 108.89 184.344 109.208 184.162C109.53 183.98 109.772 183.744 109.934 183.456C110.1 183.168 110.183 182.865 110.183 182.546V181.472C110.133 181.532 110.024 181.587 109.855 181.637C109.689 181.683 109.497 181.724 109.278 181.761C109.063 181.794 108.852 181.824 108.647 181.85C108.444 181.874 108.28 181.893 108.154 181.91C107.85 181.95 107.565 182.014 107.299 182.104C107.038 182.19 106.825 182.321 106.663 182.497C106.504 182.669 106.424 182.904 106.424 183.203C106.424 183.61 106.575 183.919 106.877 184.127C107.182 184.333 107.568 184.436 108.035 184.436ZM113.498 185.311V177.674H114.671V185.311H113.498ZM114.094 176.401C113.866 176.401 113.668 176.324 113.503 176.168C113.34 176.012 113.259 175.825 113.259 175.606C113.259 175.387 113.34 175.2 113.503 175.044C113.668 174.888 113.866 174.811 114.094 174.811C114.323 174.811 114.519 174.888 114.681 175.044C114.847 175.2 114.93 175.387 114.93 175.606C114.93 175.825 114.847 176.012 114.681 176.168C114.519 176.324 114.323 176.401 114.094 176.401ZM117.993 175.129V185.311H116.82V175.129H117.993ZM126.327 185.49C125.843 185.49 125.404 185.398 125.009 185.216C124.615 185.03 124.302 184.764 124.07 184.416C123.838 184.064 123.722 183.64 123.722 183.143C123.722 182.705 123.808 182.351 123.98 182.079C124.153 181.804 124.383 181.588 124.671 181.433C124.96 181.277 125.278 181.161 125.626 181.085C125.977 181.005 126.33 180.942 126.685 180.896C127.149 180.836 127.525 180.791 127.813 180.762C128.105 180.728 128.317 180.674 128.45 180.597C128.586 180.521 128.654 180.389 128.654 180.2V180.16C128.654 179.669 128.519 179.288 128.251 179.017C127.986 178.745 127.583 178.609 127.043 178.609C126.483 178.609 126.044 178.731 125.725 178.977C125.407 179.222 125.183 179.484 125.054 179.762L123.941 179.365C124.139 178.901 124.405 178.539 124.736 178.281C125.071 178.019 125.435 177.837 125.83 177.734C126.227 177.628 126.619 177.575 127.003 177.575C127.248 177.575 127.53 177.605 127.848 177.664C128.17 177.721 128.48 177.838 128.778 178.017C129.079 178.196 129.33 178.466 129.529 178.828C129.727 179.189 129.827 179.673 129.827 180.279V185.311H128.654V184.276H128.594C128.514 184.442 128.382 184.619 128.196 184.808C128.011 184.997 127.764 185.158 127.455 185.291C127.147 185.423 126.771 185.49 126.327 185.49ZM126.506 184.436C126.97 184.436 127.361 184.344 127.679 184.162C128.001 183.98 128.243 183.744 128.405 183.456C128.571 183.168 128.654 182.865 128.654 182.546V181.472C128.604 181.532 128.494 181.587 128.325 181.637C128.16 181.683 127.968 181.724 127.749 181.761C127.533 181.794 127.323 181.824 127.117 181.85C126.915 181.874 126.751 181.893 126.625 181.91C126.32 181.95 126.035 182.014 125.77 182.104C125.508 182.19 125.296 182.321 125.134 182.497C124.975 182.669 124.895 182.904 124.895 183.203C124.895 183.61 125.046 183.919 125.347 184.127C125.652 184.333 126.039 184.436 126.506 184.436ZM134.852 185.47C134.216 185.47 133.654 185.309 133.167 184.987C132.679 184.663 132.298 184.205 132.023 183.615C131.748 183.022 131.61 182.321 131.61 181.512C131.61 180.71 131.748 180.014 132.023 179.424C132.298 178.834 132.681 178.378 133.172 178.057C133.662 177.735 134.229 177.575 134.872 177.575C135.369 177.575 135.762 177.658 136.05 177.823C136.342 177.986 136.564 178.171 136.716 178.38C136.872 178.586 136.993 178.755 137.079 178.887H137.179V175.129H138.352V185.311H137.218V184.137H137.079C136.993 184.276 136.87 184.452 136.711 184.664C136.552 184.873 136.325 185.06 136.03 185.226C135.735 185.388 135.342 185.47 134.852 185.47ZM135.011 184.416C135.482 184.416 135.879 184.293 136.204 184.048C136.529 183.799 136.776 183.456 136.945 183.019C137.114 182.578 137.199 182.069 137.199 181.492C137.199 180.922 137.116 180.423 136.95 179.996C136.784 179.565 136.539 179.23 136.214 178.992C135.889 178.75 135.488 178.629 135.011 178.629C134.514 178.629 134.1 178.756 133.768 179.012C133.44 179.263 133.193 179.606 133.027 180.041C132.865 180.472 132.784 180.955 132.784 181.492C132.784 182.036 132.867 182.53 133.032 182.974C133.201 183.415 133.45 183.766 133.778 184.028C134.109 184.286 134.52 184.416 135.011 184.416ZM143.547 185.47C142.911 185.47 142.349 185.309 141.862 184.987C141.375 184.663 140.993 184.205 140.718 183.615C140.443 183.022 140.306 182.321 140.306 181.512C140.306 180.71 140.443 180.014 140.718 179.424C140.993 178.834 141.376 178.378 141.867 178.057C142.357 177.735 142.924 177.575 143.567 177.575C144.064 177.575 144.457 177.658 144.745 177.823C145.037 177.986 145.259 178.171 145.412 178.38C145.567 178.586 145.688 178.755 145.775 178.887H145.874V175.129H147.047V185.311H145.914V184.137H145.775C145.688 184.276 145.566 184.452 145.407 184.664C145.248 184.873 145.02 185.06 144.725 185.226C144.431 185.388 144.038 185.47 143.547 185.47ZM143.706 184.416C144.177 184.416 144.575 184.293 144.9 184.048C145.224 183.799 145.471 183.456 145.64 183.019C145.809 182.578 145.894 182.069 145.894 181.492C145.894 180.922 145.811 180.423 145.645 179.996C145.48 179.565 145.234 179.23 144.909 178.992C144.585 178.75 144.184 178.629 143.706 178.629C143.209 178.629 142.795 178.756 142.463 179.012C142.135 179.263 141.888 179.606 141.723 180.041C141.56 180.472 141.479 180.955 141.479 181.492C141.479 182.036 141.562 182.53 141.728 182.974C141.897 183.415 142.145 183.766 142.473 184.028C142.805 184.286 143.216 184.416 143.706 184.416ZM149.359 185.311V177.674H150.493V178.828H150.572C150.711 178.45 150.963 178.143 151.328 177.908C151.692 177.673 152.103 177.555 152.561 177.555C152.647 177.555 152.755 177.557 152.884 177.56C153.013 177.563 153.111 177.568 153.177 177.575V178.768C153.137 178.758 153.046 178.743 152.904 178.723C152.765 178.7 152.617 178.688 152.461 178.688C152.09 178.688 151.759 178.766 151.467 178.922C151.179 179.075 150.95 179.287 150.781 179.558C150.615 179.827 150.532 180.133 150.532 180.478V185.311H149.359ZM157.537 185.47C156.801 185.47 156.167 185.307 155.633 184.982C155.103 184.654 154.694 184.197 154.405 183.61C154.12 183.02 153.978 182.334 153.978 181.552C153.978 180.77 154.12 180.08 154.405 179.484C154.694 178.884 155.095 178.417 155.608 178.082C156.125 177.744 156.729 177.575 157.418 177.575C157.816 177.575 158.208 177.641 158.596 177.774C158.984 177.906 159.337 178.122 159.655 178.42C159.973 178.715 160.227 179.106 160.416 179.593C160.605 180.08 160.699 180.68 160.699 181.393V181.89H154.813V180.876H159.506C159.506 180.445 159.42 180.061 159.248 179.722C159.078 179.384 158.837 179.118 158.522 178.922C158.21 178.727 157.842 178.629 157.418 178.629C156.951 178.629 156.546 178.745 156.205 178.977C155.867 179.205 155.607 179.504 155.424 179.872C155.242 180.24 155.151 180.634 155.151 181.055V181.731C155.151 182.308 155.25 182.797 155.449 183.198C155.651 183.595 155.931 183.899 156.289 184.107C156.647 184.313 157.063 184.416 157.537 184.416C157.846 184.416 158.124 184.373 158.373 184.286C158.624 184.197 158.842 184.064 159.024 183.889C159.206 183.71 159.347 183.488 159.446 183.222L160.58 183.541C160.461 183.925 160.26 184.263 159.978 184.555C159.697 184.843 159.349 185.069 158.934 185.231C158.52 185.39 158.054 185.47 157.537 185.47ZM167.893 179.384L166.839 179.683C166.773 179.507 166.675 179.336 166.546 179.171C166.42 179.002 166.248 178.862 166.029 178.753C165.81 178.644 165.53 178.589 165.189 178.589C164.721 178.589 164.332 178.697 164.02 178.912C163.712 179.124 163.558 179.394 163.558 179.722C163.558 180.014 163.664 180.244 163.876 180.414C164.088 180.583 164.42 180.723 164.87 180.836L166.004 181.115C166.687 181.28 167.195 181.534 167.53 181.875C167.865 182.213 168.032 182.649 168.032 183.183C168.032 183.62 167.906 184.011 167.654 184.356C167.406 184.701 167.058 184.972 166.61 185.171C166.163 185.37 165.643 185.47 165.049 185.47C164.27 185.47 163.626 185.301 163.115 184.963C162.605 184.624 162.282 184.131 162.146 183.481L163.26 183.203C163.366 183.614 163.566 183.922 163.861 184.127C164.159 184.333 164.549 184.436 165.029 184.436C165.576 184.436 166.011 184.32 166.332 184.088C166.657 183.852 166.819 183.57 166.819 183.242C166.819 182.977 166.726 182.755 166.541 182.576C166.355 182.394 166.07 182.258 165.686 182.169L164.413 181.87C163.714 181.704 163.2 181.448 162.872 181.1C162.547 180.748 162.385 180.309 162.385 179.782C162.385 179.351 162.506 178.97 162.748 178.639C162.993 178.307 163.326 178.047 163.747 177.858C164.171 177.669 164.652 177.575 165.189 177.575C165.944 177.575 166.538 177.74 166.968 178.072C167.403 178.403 167.711 178.841 167.893 179.384ZM175.208 179.384L174.154 179.683C174.087 179.507 173.99 179.336 173.86 179.171C173.734 179.002 173.562 178.862 173.343 178.753C173.124 178.644 172.844 178.589 172.503 178.589C172.036 178.589 171.646 178.697 171.335 178.912C171.026 179.124 170.872 179.394 170.872 179.722C170.872 180.014 170.978 180.244 171.191 180.414C171.403 180.583 171.734 180.723 172.185 180.836L173.318 181.115C174.001 181.28 174.51 181.534 174.845 181.875C175.179 182.213 175.347 182.649 175.347 183.183C175.347 183.62 175.221 184.011 174.969 184.356C174.72 184.701 174.372 184.972 173.925 185.171C173.477 185.37 172.957 185.47 172.364 185.47C171.585 185.47 170.94 185.301 170.43 184.963C169.919 184.624 169.596 184.131 169.46 183.481L170.574 183.203C170.68 183.614 170.881 183.922 171.176 184.127C171.474 184.333 171.863 184.436 172.344 184.436C172.891 184.436 173.325 184.32 173.646 184.088C173.971 183.852 174.134 183.57 174.134 183.242C174.134 182.977 174.041 182.755 173.855 182.576C173.67 182.394 173.385 182.258 173 182.169L171.727 181.87C171.028 181.704 170.514 181.448 170.186 181.1C169.861 180.748 169.699 180.309 169.699 179.782C169.699 179.351 169.82 178.97 170.062 178.639C170.307 178.307 170.64 178.047 171.061 177.858C171.485 177.669 171.966 177.575 172.503 177.575C173.259 177.575 173.852 177.74 174.283 178.072C174.717 178.403 175.025 178.841 175.208 179.384Z" fill="#AFB3CA"/>
<path d="M88.9034 208.487C88.0436 208.487 87.303 208.303 86.6818 207.936C86.0644 207.564 85.5871 207.044 85.25 206.373C84.9167 205.699 84.75 204.909 84.75 204.004C84.75 203.11 84.9167 202.322 85.25 201.64C85.5871 200.958 86.0568 200.426 86.6591 200.044C87.2652 199.661 87.9735 199.47 88.7841 199.47C89.2765 199.47 89.7538 199.551 90.2159 199.714C90.678 199.877 91.0928 200.133 91.4602 200.481C91.8277 200.829 92.1174 201.282 92.3295 201.839C92.5417 202.392 92.6477 203.064 92.6477 203.856V204.458H85.7102V203.186H90.983C90.983 202.739 90.892 202.343 90.7102 201.998C90.5284 201.65 90.2727 201.375 89.9432 201.174C89.6174 200.973 89.2348 200.873 88.7955 200.873C88.3182 200.873 87.9015 200.99 87.5455 201.225C87.1932 201.456 86.9205 201.759 86.7273 202.134C86.5379 202.506 86.4432 202.909 86.4432 203.345V204.339C86.4432 204.922 86.5455 205.419 86.75 205.828C86.9583 206.237 87.2481 206.549 87.6193 206.765C87.9905 206.977 88.4242 207.083 88.9205 207.083C89.2424 207.083 89.536 207.038 89.8011 206.947C90.0663 206.852 90.2955 206.712 90.4886 206.526C90.6818 206.341 90.8295 206.112 90.9318 205.839L92.5398 206.129C92.411 206.602 92.1799 207.017 91.8466 207.373C91.517 207.725 91.1023 208 90.6023 208.197C90.1061 208.39 89.5398 208.487 88.9034 208.487ZM95.1705 199.583L97.0966 202.981L99.0398 199.583H100.898L98.1761 203.947L100.92 208.311H99.0625L97.0966 205.049L95.1364 208.311H93.2727L95.9886 203.947L93.3068 199.583H95.1705ZM104.666 208.504C104.113 208.504 103.613 208.401 103.166 208.197C102.719 207.989 102.365 207.687 102.104 207.294C101.846 206.9 101.717 206.417 101.717 205.845C101.717 205.352 101.812 204.947 102.001 204.629C102.191 204.311 102.446 204.059 102.768 203.873C103.09 203.687 103.45 203.547 103.848 203.453C104.246 203.358 104.651 203.286 105.064 203.237C105.587 203.176 106.011 203.127 106.337 203.089C106.662 203.047 106.899 202.981 107.047 202.89C107.195 202.799 107.268 202.651 107.268 202.447V202.407C107.268 201.911 107.128 201.526 106.848 201.254C106.571 200.981 106.159 200.845 105.609 200.845C105.037 200.845 104.587 200.972 104.257 201.225C103.931 201.475 103.706 201.754 103.581 202.061L101.984 201.697C102.174 201.167 102.45 200.739 102.814 200.413C103.181 200.083 103.604 199.845 104.081 199.697C104.558 199.545 105.06 199.47 105.587 199.47C105.935 199.47 106.304 199.511 106.695 199.595C107.089 199.674 107.456 199.822 107.797 200.038C108.142 200.254 108.424 200.562 108.643 200.964C108.863 201.362 108.973 201.879 108.973 202.515V208.311H107.314V207.117H107.246C107.136 207.337 106.971 207.553 106.751 207.765C106.532 207.977 106.25 208.153 105.905 208.294C105.56 208.434 105.147 208.504 104.666 208.504ZM105.036 207.14C105.505 207.14 105.907 207.047 106.24 206.862C106.577 206.676 106.833 206.434 107.007 206.134C107.185 205.831 107.274 205.508 107.274 205.163V204.038C107.214 204.098 107.096 204.155 106.922 204.208C106.751 204.258 106.556 204.301 106.337 204.339C106.117 204.373 105.903 204.405 105.695 204.436C105.486 204.462 105.312 204.485 105.172 204.504C104.842 204.545 104.541 204.615 104.268 204.714C104 204.812 103.784 204.954 103.621 205.14C103.462 205.322 103.382 205.564 103.382 205.867C103.382 206.288 103.537 206.606 103.848 206.822C104.159 207.034 104.554 207.14 105.036 207.14ZM110.736 208.311V199.583H112.366V201.004H112.474C112.656 200.523 112.954 200.148 113.366 199.879C113.779 199.606 114.274 199.47 114.849 199.47C115.433 199.47 115.921 199.606 116.315 199.879C116.713 200.151 117.007 200.526 117.196 201.004H117.287C117.495 200.538 117.827 200.167 118.281 199.89C118.736 199.61 119.277 199.47 119.906 199.47C120.698 199.47 121.344 199.718 121.844 200.214C122.348 200.71 122.599 201.458 122.599 202.458V208.311H120.901V202.617C120.901 202.026 120.74 201.598 120.418 201.333C120.096 201.068 119.711 200.936 119.264 200.936C118.711 200.936 118.281 201.106 117.974 201.447C117.668 201.784 117.514 202.218 117.514 202.748V208.311H115.821V202.509C115.821 202.036 115.673 201.655 115.378 201.367C115.082 201.079 114.698 200.936 114.224 200.936C113.902 200.936 113.605 201.021 113.332 201.191C113.063 201.358 112.846 201.591 112.679 201.89C112.516 202.189 112.435 202.536 112.435 202.93V208.311H110.736ZM124.376 211.583V199.583H126.036V200.998H126.178C126.276 200.816 126.418 200.606 126.604 200.367C126.789 200.129 127.047 199.92 127.376 199.742C127.706 199.561 128.142 199.47 128.683 199.47C129.388 199.47 130.017 199.648 130.57 200.004C131.123 200.36 131.556 200.873 131.871 201.544C132.189 202.214 132.348 203.021 132.348 203.964C132.348 204.907 132.191 205.716 131.876 206.39C131.562 207.061 131.13 207.578 130.581 207.941C130.032 208.301 129.405 208.481 128.7 208.481C128.17 208.481 127.736 208.392 127.399 208.214C127.066 208.036 126.804 207.828 126.615 207.589C126.426 207.35 126.28 207.138 126.178 206.953H126.075V211.583H124.376ZM126.041 203.947C126.041 204.561 126.13 205.098 126.308 205.561C126.486 206.023 126.744 206.384 127.081 206.646C127.418 206.903 127.831 207.032 128.32 207.032C128.827 207.032 129.251 206.898 129.592 206.629C129.933 206.356 130.191 205.987 130.365 205.521C130.543 205.055 130.632 204.53 130.632 203.947C130.632 203.371 130.545 202.854 130.371 202.396C130.2 201.937 129.943 201.576 129.598 201.311C129.257 201.045 128.831 200.913 128.32 200.913C127.827 200.913 127.411 201.04 127.07 201.294C126.732 201.547 126.477 201.901 126.303 202.356C126.128 202.811 126.041 203.341 126.041 203.947ZM135.45 196.674V208.311H133.751V196.674H135.45ZM140.997 208.487C140.137 208.487 139.397 208.303 138.776 207.936C138.158 207.564 137.681 207.044 137.344 206.373C137.01 205.699 136.844 204.909 136.844 204.004C136.844 203.11 137.01 202.322 137.344 201.64C137.681 200.958 138.151 200.426 138.753 200.044C139.359 199.661 140.067 199.47 140.878 199.47C141.37 199.47 141.848 199.551 142.31 199.714C142.772 199.877 143.187 200.133 143.554 200.481C143.921 200.829 144.211 201.282 144.423 201.839C144.635 202.392 144.741 203.064 144.741 203.856V204.458H137.804V203.186H143.077C143.077 202.739 142.986 202.343 142.804 201.998C142.622 201.65 142.366 201.375 142.037 201.174C141.711 200.973 141.329 200.873 140.889 200.873C140.412 200.873 139.995 200.99 139.639 201.225C139.287 201.456 139.014 201.759 138.821 202.134C138.632 202.506 138.537 202.909 138.537 203.345V204.339C138.537 204.922 138.639 205.419 138.844 205.828C139.052 206.237 139.342 206.549 139.713 206.765C140.084 206.977 140.518 207.083 141.014 207.083C141.336 207.083 141.63 207.038 141.895 206.947C142.16 206.852 142.389 206.712 142.582 206.526C142.776 206.341 142.923 206.112 143.026 205.839L144.634 206.129C144.505 206.602 144.274 207.017 143.94 207.373C143.611 207.725 143.196 208 142.696 208.197C142.2 208.39 141.634 208.487 140.997 208.487ZM153.132 211.475C151.958 211.475 150.916 211.314 150.007 210.992C149.102 210.674 148.339 210.204 147.717 209.583C147.096 208.966 146.625 208.208 146.303 207.311C145.981 206.413 145.82 205.388 145.82 204.237C145.82 203.115 145.982 202.108 146.308 201.214C146.634 200.32 147.107 199.559 147.729 198.93C148.354 198.297 149.113 197.814 150.007 197.481C150.901 197.148 151.916 196.981 153.053 196.981C154.14 196.981 155.098 197.151 155.928 197.492C156.757 197.833 157.454 198.301 158.018 198.896C158.587 199.49 159.015 200.172 159.303 200.941C159.59 201.71 159.734 202.523 159.734 203.379C159.734 203.977 159.696 204.562 159.621 205.134C159.545 205.703 159.405 206.218 159.2 206.68C159 207.138 158.708 207.506 158.325 207.782C157.946 208.055 157.454 208.197 156.848 208.208C156.526 208.22 156.214 208.182 155.911 208.095C155.607 208.008 155.35 207.867 155.138 207.674C154.926 207.477 154.797 207.227 154.751 206.924H154.683C154.592 207.148 154.441 207.356 154.229 207.549C154.017 207.739 153.746 207.89 153.416 208.004C153.09 208.114 152.712 208.159 152.28 208.14C151.803 208.121 151.373 208.013 150.99 207.816C150.607 207.619 150.28 207.347 150.007 206.998C149.738 206.65 149.532 206.237 149.388 205.759C149.244 205.282 149.172 204.752 149.172 204.169C149.172 203.608 149.253 203.106 149.416 202.663C149.579 202.216 149.801 201.831 150.081 201.509C150.365 201.184 150.691 200.926 151.058 200.737C151.426 200.547 151.814 200.428 152.223 200.379C152.621 200.333 152.986 200.345 153.32 200.413C153.653 200.481 153.929 200.585 154.149 200.725C154.373 200.865 154.513 201.019 154.57 201.186H154.643V200.549H156.041V205.822C156.041 206.121 156.119 206.375 156.274 206.583C156.433 206.792 156.659 206.896 156.95 206.896C157.295 206.896 157.564 206.769 157.757 206.515C157.954 206.261 158.092 205.871 158.172 205.345C158.255 204.818 158.297 204.144 158.297 203.322C158.297 202.746 158.219 202.204 158.064 201.697C157.912 201.186 157.687 200.723 157.388 200.311C157.092 199.894 156.729 199.536 156.297 199.237C155.865 198.937 155.373 198.706 154.82 198.544C154.27 198.381 153.662 198.299 152.996 198.299C152.09 198.299 151.286 198.439 150.581 198.72C149.876 198.996 149.282 199.396 148.797 199.919C148.316 200.441 147.95 201.068 147.7 201.799C147.454 202.526 147.331 203.343 147.331 204.248C147.331 205.191 147.458 206.028 147.712 206.759C147.965 207.487 148.34 208.1 148.837 208.6C149.333 209.1 149.946 209.479 150.678 209.737C151.409 209.998 152.251 210.129 153.206 210.129C153.63 210.129 154.047 210.091 154.456 210.015C154.865 209.943 155.229 209.86 155.547 209.765C155.869 209.674 156.109 209.6 156.268 209.544L156.666 210.788C156.431 210.898 156.119 211.006 155.729 211.112C155.342 211.218 154.922 211.305 154.467 211.373C154.017 211.441 153.571 211.475 153.132 211.475ZM152.609 206.748C153.102 206.748 153.498 206.65 153.797 206.453C154.1 206.256 154.318 205.962 154.45 205.572C154.587 205.178 154.655 204.686 154.655 204.095C154.651 203.519 154.577 203.061 154.433 202.72C154.293 202.375 154.073 202.129 153.774 201.981C153.479 201.829 153.098 201.754 152.632 201.754C152.204 201.754 151.839 201.858 151.536 202.066C151.236 202.275 151.007 202.557 150.848 202.913C150.693 203.269 150.613 203.665 150.609 204.1C150.613 204.559 150.678 204.99 150.803 205.396C150.931 205.797 151.14 206.123 151.428 206.373C151.719 206.623 152.113 206.748 152.609 206.748ZM164.77 211.765C164.077 211.765 163.48 211.674 162.98 211.492C162.484 211.311 162.079 211.07 161.764 210.771C161.45 210.472 161.215 210.144 161.06 209.788L162.52 209.186C162.622 209.352 162.759 209.528 162.929 209.714C163.103 209.903 163.338 210.064 163.634 210.197C163.933 210.329 164.317 210.396 164.787 210.396C165.431 210.396 165.963 210.239 166.384 209.924C166.804 209.614 167.014 209.117 167.014 208.436V206.72H166.906C166.804 206.905 166.656 207.112 166.463 207.339C166.274 207.566 166.012 207.763 165.679 207.93C165.346 208.097 164.912 208.18 164.378 208.18C163.688 208.18 163.067 208.019 162.514 207.697C161.965 207.371 161.529 206.892 161.207 206.259C160.889 205.623 160.73 204.841 160.73 203.913C160.73 202.985 160.887 202.189 161.202 201.526C161.52 200.864 161.955 200.356 162.509 200.004C163.062 199.648 163.688 199.47 164.389 199.47C164.931 199.47 165.368 199.561 165.702 199.742C166.035 199.92 166.295 200.129 166.48 200.367C166.67 200.606 166.815 200.816 166.918 200.998H167.043V199.583H168.707V208.504C168.707 209.254 168.533 209.869 168.185 210.35C167.836 210.831 167.365 211.187 166.77 211.419C166.179 211.65 165.512 211.765 164.77 211.765ZM164.753 206.771C165.241 206.771 165.654 206.657 165.991 206.43C166.332 206.199 166.59 205.869 166.764 205.441C166.942 205.009 167.031 204.492 167.031 203.89C167.031 203.303 166.944 202.786 166.77 202.339C166.596 201.892 166.34 201.544 166.003 201.294C165.666 201.04 165.249 200.913 164.753 200.913C164.241 200.913 163.815 201.045 163.474 201.311C163.134 201.572 162.876 201.928 162.702 202.379C162.531 202.829 162.446 203.333 162.446 203.89C162.446 204.462 162.533 204.964 162.707 205.396C162.882 205.828 163.139 206.165 163.48 206.407C163.825 206.65 164.249 206.771 164.753 206.771ZM170.486 208.311V199.583H172.116V201.004H172.224C172.406 200.523 172.704 200.148 173.116 199.879C173.529 199.606 174.024 199.47 174.599 199.47C175.183 199.47 175.671 199.606 176.065 199.879C176.463 200.151 176.757 200.526 176.946 201.004H177.037C177.245 200.538 177.577 200.167 178.031 199.89C178.486 199.61 179.027 199.47 179.656 199.47C180.448 199.47 181.094 199.718 181.594 200.214C182.098 200.71 182.349 201.458 182.349 202.458V208.311H180.651V202.617C180.651 202.026 180.49 201.598 180.168 201.333C179.846 201.068 179.461 200.936 179.014 200.936C178.461 200.936 178.031 201.106 177.724 201.447C177.418 201.784 177.264 202.218 177.264 202.748V208.311H175.571V202.509C175.571 202.036 175.423 201.655 175.128 201.367C174.832 201.079 174.448 200.936 173.974 200.936C173.652 200.936 173.355 201.021 173.082 201.191C172.813 201.358 172.596 201.591 172.429 201.89C172.266 202.189 172.185 202.536 172.185 202.93V208.311H170.486ZM186.666 208.504C186.113 208.504 185.613 208.401 185.166 208.197C184.719 207.989 184.365 207.687 184.104 207.294C183.846 206.9 183.717 206.417 183.717 205.845C183.717 205.352 183.812 204.947 184.001 204.629C184.191 204.311 184.446 204.059 184.768 203.873C185.09 203.687 185.45 203.547 185.848 203.453C186.246 203.358 186.651 203.286 187.064 203.237C187.587 203.176 188.011 203.127 188.337 203.089C188.662 203.047 188.899 202.981 189.047 202.89C189.195 202.799 189.268 202.651 189.268 202.447V202.407C189.268 201.911 189.128 201.526 188.848 201.254C188.571 200.981 188.159 200.845 187.609 200.845C187.037 200.845 186.587 200.972 186.257 201.225C185.931 201.475 185.706 201.754 185.581 202.061L183.984 201.697C184.174 201.167 184.45 200.739 184.814 200.413C185.181 200.083 185.604 199.845 186.081 199.697C186.558 199.545 187.06 199.47 187.587 199.47C187.935 199.47 188.304 199.511 188.695 199.595C189.089 199.674 189.456 199.822 189.797 200.038C190.142 200.254 190.424 200.562 190.643 200.964C190.863 201.362 190.973 201.879 190.973 202.515V208.311H189.314V207.117H189.246C189.136 207.337 188.971 207.553 188.751 207.765C188.532 207.977 188.25 208.153 187.905 208.294C187.56 208.434 187.147 208.504 186.666 208.504ZM187.036 207.14C187.505 207.14 187.907 207.047 188.24 206.862C188.577 206.676 188.833 206.434 189.007 206.134C189.185 205.831 189.274 205.508 189.274 205.163V204.038C189.214 204.098 189.096 204.155 188.922 204.208C188.751 204.258 188.556 204.301 188.337 204.339C188.117 204.373 187.903 204.405 187.695 204.436C187.486 204.462 187.312 204.485 187.172 204.504C186.842 204.545 186.541 204.615 186.268 204.714C186 204.812 185.784 204.954 185.621 205.14C185.462 205.322 185.382 205.564 185.382 205.867C185.382 206.288 185.537 206.606 185.848 206.822C186.159 207.034 186.554 207.14 187.036 207.14ZM192.736 208.311V199.583H194.435V208.311H192.736ZM193.594 198.237C193.298 198.237 193.045 198.138 192.832 197.941C192.624 197.74 192.52 197.502 192.52 197.225C192.52 196.945 192.624 196.706 192.832 196.509C193.045 196.309 193.298 196.208 193.594 196.208C193.889 196.208 194.141 196.309 194.349 196.509C194.562 196.706 194.668 196.945 194.668 197.225C194.668 197.502 194.562 197.74 194.349 197.941C194.141 198.138 193.889 198.237 193.594 198.237ZM197.919 196.674V208.311H196.22V196.674H197.919ZM200.824 208.419C200.513 208.419 200.246 208.309 200.023 208.089C199.799 207.865 199.688 207.597 199.688 207.282C199.688 206.972 199.799 206.706 200.023 206.487C200.246 206.263 200.513 206.151 200.824 206.151C201.134 206.151 201.402 206.263 201.625 206.487C201.848 206.706 201.96 206.972 201.96 207.282C201.96 207.49 201.907 207.682 201.801 207.856C201.699 208.026 201.562 208.163 201.392 208.265C201.222 208.367 201.032 208.419 200.824 208.419ZM207.412 208.487C206.567 208.487 205.84 208.295 205.23 207.913C204.624 207.526 204.158 206.994 203.832 206.316C203.507 205.638 203.344 204.862 203.344 203.987C203.344 203.1 203.51 202.318 203.844 201.64C204.177 200.958 204.647 200.426 205.253 200.044C205.859 199.661 206.573 199.47 207.395 199.47C208.058 199.47 208.649 199.593 209.168 199.839C209.687 200.081 210.105 200.422 210.423 200.862C210.745 201.301 210.937 201.814 210.997 202.401H209.344C209.253 201.992 209.045 201.64 208.719 201.345C208.397 201.049 207.965 200.901 207.423 200.901C206.95 200.901 206.535 201.026 206.179 201.276C205.827 201.523 205.552 201.875 205.355 202.333C205.158 202.788 205.06 203.326 205.06 203.947C205.06 204.583 205.156 205.133 205.349 205.595C205.543 206.057 205.815 206.415 206.168 206.669C206.524 206.922 206.942 207.049 207.423 207.049C207.745 207.049 208.037 206.99 208.298 206.873C208.563 206.752 208.785 206.579 208.963 206.356C209.145 206.133 209.272 205.864 209.344 205.549H210.997C210.937 206.114 210.753 206.617 210.446 207.061C210.139 207.504 209.728 207.852 209.213 208.106C208.702 208.36 208.101 208.487 207.412 208.487ZM215.99 208.487C215.172 208.487 214.458 208.299 213.848 207.924C213.238 207.549 212.765 207.025 212.428 206.35C212.09 205.676 211.922 204.888 211.922 203.987C211.922 203.081 212.09 202.29 212.428 201.612C212.765 200.934 213.238 200.407 213.848 200.032C214.458 199.657 215.172 199.47 215.99 199.47C216.808 199.47 217.522 199.657 218.132 200.032C218.742 200.407 219.215 200.934 219.553 201.612C219.89 202.29 220.058 203.081 220.058 203.987C220.058 204.888 219.89 205.676 219.553 206.35C219.215 207.025 218.742 207.549 218.132 207.924C217.522 208.299 216.808 208.487 215.99 208.487ZM215.996 207.061C216.526 207.061 216.965 206.92 217.314 206.64C217.662 206.36 217.92 205.987 218.087 205.521C218.257 205.055 218.342 204.542 218.342 203.981C218.342 203.424 218.257 202.913 218.087 202.447C217.92 201.977 217.662 201.6 217.314 201.316C216.965 201.032 216.526 200.89 215.996 200.89C215.462 200.89 215.018 201.032 214.666 201.316C214.318 201.6 214.058 201.977 213.888 202.447C213.721 202.913 213.638 203.424 213.638 203.981C213.638 204.542 213.721 205.055 213.888 205.521C214.058 205.987 214.318 206.36 214.666 206.64C215.018 206.92 215.462 207.061 215.996 207.061ZM221.455 208.311V199.583H223.085V201.004H223.193C223.375 200.523 223.672 200.148 224.085 199.879C224.498 199.606 224.992 199.47 225.568 199.47C226.152 199.47 226.64 199.606 227.034 199.879C227.432 200.151 227.725 200.526 227.915 201.004H228.006C228.214 200.538 228.545 200.167 229 199.89C229.455 199.61 229.996 199.47 230.625 199.47C231.417 199.47 232.062 199.718 232.562 200.214C233.066 200.71 233.318 201.458 233.318 202.458V208.311H231.619V202.617C231.619 202.026 231.458 201.598 231.136 201.333C230.814 201.068 230.43 200.936 229.983 200.936C229.43 200.936 229 201.106 228.693 201.447C228.386 201.784 228.233 202.218 228.233 202.748V208.311H226.54V202.509C226.54 202.036 226.392 201.655 226.097 201.367C225.801 201.079 225.417 200.936 224.943 200.936C224.621 200.936 224.324 201.021 224.051 201.191C223.782 201.358 223.564 201.591 223.398 201.89C223.235 202.189 223.153 202.536 223.153 202.93V208.311H221.455Z" fill="#AFB3CA"/>
</g>
<defs>
<filter id="filter0_b_16_2" x="40.3" y="212.611" width="365.4" height="197.4" filterUnits="userSpaceOnUse" color-interpolation-filters="sRGB">
<feFlood flood-opacity="0" result="BackgroundImageFix"/>
<feGaussianBlur in="BackgroundImageFix" stdDeviation="30.85"/>
<feComposite in2="SourceAlpha" operator="in" result="effect1_backgroundBlur_16_2"/>
<feBlend mode="normal" in="SourceGraphic" in2="effect1_backgroundBlur_16_2" result="shape"/>
</filter>
<filter id="filter1_d_16_2" x="113" y="284.311" width="54" height="54" filterUnits="userSpaceOnUse" color-interpolation-filters="sRGB">
<feFlood flood-opacity="0" result="BackgroundImageFix"/>
<feColorMatrix in="SourceAlpha" type="matrix" values="0 0 0 0 0 0 0 0 0 0 0 0 0 0 0 0 0 0 127 0" result="hardAlpha"/>
<feMorphology radius="1" operator="dilate" in="SourceAlpha" result="effect1_dropShadow_16_2"/>
<feOffset/>
<feComposite in2="hardAlpha" operator="out"/>
<feColorMatrix type="matrix" values="0 0 0 0 0.176471 0 0 0 0 0.180392 0 0 0 0 0.282353 0 0 0 1 0"/>
<feBlend mode="normal" in2="BackgroundImageFix" result="effect1_dropShadow_16_2"/>
<feBlend mode="normal" in="SourceGraphic" in2="effect1_dropShadow_16_2" result="shape"/>
</filter>
<filter id="filter2_f_16_2" x="116.367" y="290.677" width="48.2" height="48.2" filterUnits="userSpaceOnUse" color-interpolation-filters="sRGB">
<feFlood flood-opacity="0" result="BackgroundImageFix"/>
<feBlend mode="normal" in="SourceGraphic" in2="BackgroundImageFix" result="shape"/>
<feGaussianBlur stdDeviation="8.8" result="effect1_foregroundBlur_16_2"/>
</filter>
<filter id="filter3_b_16_2" x="-61.7" y="92.6105" width="365.4" height="197.4" filterUnits="userSpaceOnUse" color-interpolation-filters="sRGB">
<feFlood flood-opacity="0" result="BackgroundImageFix"/>
<feGaussianBlur in="BackgroundImageFix" stdDeviation="30.85"/>
<feComposite in2="SourceAlpha" operator="in" result="effect1_backgroundBlur_16_2"/>
<feBlend mode="normal" in="SourceGraphic" in2="effect1_backgroundBlur_16_2" result="shape"/>
</filter>
<filter id="filter4_d_16_2" x="11" y="164.311" width="54" height="54" filterUnits="userSpaceOnUse" color-interpolation-filters="sRGB">
<feFlood flood-opacity="0" result="BackgroundImageFix"/>
<feColorMatrix in="SourceAlpha" type="matrix" values="0 0 0 0 0 0 0 0 0 0 0 0 0 0 0 0 0 0 127 0" result="hardAlpha"/>
<feMorphology radius="1" operator="dilate" in="SourceAlpha" result="effect1_dropShadow_16_2"/>
<feOffset/>
<feComposite in2="hardAlpha" operator="out"/>
<feColorMatrix type="matrix" values="0 0 0 0 0.176471 0 0 0 0 0.180392 0 0 0 0 0.282353 0 0 0 1 0"/>
<feBlend mode="normal" in2="BackgroundImageFix" result="effect1_dropShadow_16_2"/>
<feBlend mode="normal" in="SourceGraphic" in2="effect1_dropShadow_16_2" result="shape"/>
</filter>
<filter id="filter5_f_16_2" x="13.3668" y="169.677" width="48.2" height="48.2" filterUnits="userSpaceOnUse" color-interpolation-filters="sRGB">
<feFlood flood-opacity="0" result="BackgroundImageFix"/>
<feBlend mode="normal" in="SourceGraphic" in2="BackgroundImageFix" result="shape"/>
<feGaussianBlur stdDeviation="8.8" result="effect1_foregroundBlur_16_2"/>
</filter>
<linearGradient id="paint0_linear_16_2" x1="223" y1="274.311" x2="238.5" y2="329.311" gradientUnits="userSpaceOnUse">
<stop stop-color="#1B1C36"/>
<stop offset="1" stop-color="#70717A"/>
</linearGradient>
<linearGradient id="paint1_linear_16_2" x1="239" y1="324.311" x2="328.5" y2="278.311" gradientUnits="userSpaceOnUse">
<stop stop-color="#2C2D47"/>
<stop offset="1" stop-color="#444AE2" stop-opacity="0.05"/>
</linearGradient>
<linearGradient id="paint2_linear_16_2" x1="121" y1="154.311" x2="136.5" y2="209.311" gradientUnits="userSpaceOnUse">
<stop stop-color="#1B1C36"/>
<stop offset="1" stop-color="#70717A"/>
</linearGradient>
<linearGradient id="paint3_linear_16_2" x1="137" y1="204.311" x2="226.5" y2="158.311" gradientUnits="userSpaceOnUse">
<stop stop-color="#2C2D47"/>
<stop offset="1" stop-color="#444AE2" stop-opacity="0.05"/>
</linearGradient>
<clipPath id="clip0_16_2">
<rect x="114" y="285.311" width="52" height="52" rx="16" fill="white"/>
</clipPath>
<clipPath id="clip1_16_2">
<rect x="12" y="165.311" width="52" height="52" rx="16" fill="white"/>
</clipPath>
</defs>
</svg>
